<svg width="39" height="39" viewBox="0 0 39 39" fill="none" xmlns="http://www.w3.org/2000/svg">
<path fill-rule="evenodd" clip-rule="evenodd" d="M13.4296 8.04297C14.805 8.043 16.151 8.44113 17.3052 9.1893C18.4593 9.93747 19.3722 11.0037 19.9337 12.2593C20.4952 13.5149 20.6813 14.9061 20.4695 16.2651C20.2577 17.6241 19.657 18.8928 18.7401 19.918C19.657 20.9431 20.2577 22.2118 20.4695 23.5708C20.6813 24.9298 20.4952 26.3211 19.9337 27.5767C19.3722 28.8322 18.4593 29.8985 17.3052 30.6466C16.151 31.3948 14.805 31.7929 13.4296 31.793H7.09627C6.04646 31.793 5.03964 31.3759 4.29731 30.6336C3.55498 29.8913 3.13794 28.8845 3.13794 27.8346V12.0013C3.13794 10.9515 3.55498 9.94467 4.29731 9.20234C5.03964 8.46001 6.04646 8.04297 7.09627 8.04297H13.4296ZM28.4713 14.3763C33.131 14.3763 36.3879 18.5832 36.3879 23.0846C36.3879 23.675 36.168 24.2443 35.771 24.6813C35.3741 25.1183 34.8286 25.3919 34.2409 25.4486L34.0129 25.4596H33.2276C33.7042 25.4606 34.1695 25.6049 34.563 25.8738C34.9564 26.1427 35.2599 26.5237 35.4339 26.9674C35.608 27.4111 35.6445 27.8969 35.5387 28.3616C35.433 28.8263 35.1899 29.2484 34.841 29.5731C33.4224 30.8921 31.3799 31.793 28.4713 31.793C23.8115 31.793 20.5546 27.5861 20.5546 23.0846C20.5546 18.5832 23.8115 14.3763 28.4713 14.3763ZM13.4296 22.293H7.88794V27.043H13.4296C14.0395 27.0427 14.626 26.8077 15.0674 26.3868C15.5088 25.9659 15.7714 25.3913 15.8007 24.7821C15.83 24.1729 15.6238 23.5757 15.2248 23.1144C14.8259 22.6531 14.2647 22.3629 13.6576 22.3041L13.4296 22.293ZM33.2149 25.4596H25.9379C26.5665 26.4809 27.5656 27.043 28.4713 27.043C30.3127 27.043 31.1598 26.5094 31.6015 26.0961C32.0395 25.6885 32.6167 25.4612 33.2149 25.4596ZM28.4697 19.1263C27.564 19.1263 26.5649 19.6884 25.9364 20.7096H31.003C30.3744 19.6884 29.3754 19.1263 28.4697 19.1263ZM13.4296 12.793H7.88794V17.543H13.4296C14.0595 17.543 14.6636 17.2927 15.109 16.8473C15.5544 16.4019 15.8046 15.7979 15.8046 15.168C15.8046 14.5381 15.5544 13.934 15.109 13.4886C14.6636 13.0432 14.0595 12.793 13.4296 12.793ZM30.8463 9.6263C31.4762 9.6263 32.0803 9.87652 32.5257 10.3219C32.9711 10.7673 33.2213 11.3714 33.2213 12.0013C33.2213 12.6312 32.9711 13.2353 32.5257 13.6807C32.0803 14.1261 31.4762 14.3763 30.8463 14.3763H26.0963C25.4664 14.3763 24.8623 14.1261 24.4169 13.6807C23.9715 13.2353 23.7213 12.6312 23.7213 12.0013C23.7213 11.3714 23.9715 10.7673 24.4169 10.3219C24.8623 9.87652 25.4664 9.6263 26.0963 9.6263H30.8463Z" fill="black"/>
</svg>
