<svg width="39" height="39" viewBox="0 0 39 39" fill="none" xmlns="http://www.w3.org/2000/svg">
<mask id="mask0_1198_26594" style="mask-type:luminance" maskUnits="userSpaceOnUse" x="0" y="1" width="38" height="38">
<path d="M37.6475 1.98828H0.818359V38.8175H37.6475V1.98828Z" fill="white"/>
</mask>
<g mask="url(#mask0_1198_26594)">
<path d="M21.5348 35.5758C28.9175 34.4648 34.5784 28.0949 34.5784 20.4022C34.5784 11.9268 27.7083 5.05664 19.2329 5.05664C10.7576 5.05664 3.88745 11.9268 3.88745 20.4022C3.88745 28.0949 9.5484 34.4663 16.9311 35.5758V25.0058H14.6293C14.0188 25.0058 13.4333 24.7632 13.0017 24.3315C12.57 23.8999 12.3275 23.3144 12.3275 22.704C12.3275 22.0934 12.57 21.508 13.0017 21.0763C13.4333 20.6446 14.0188 20.4022 14.6293 20.4022H16.9311V17.3331C16.9311 15.9086 17.4969 14.5425 18.5042 13.5352C19.5115 12.528 20.8775 11.9621 22.302 11.9621H23.0693C23.6798 11.9621 24.2653 12.2046 24.697 12.6363C25.1287 13.068 25.3711 13.6535 25.3711 14.2639C25.3711 14.8744 25.1287 15.4599 24.697 15.8916C24.2653 16.3232 23.6798 16.5658 23.0693 16.5658H22.302C22.0986 16.5658 21.9034 16.6467 21.7594 16.7905C21.6156 16.9344 21.5348 17.1296 21.5348 17.3331V20.4022H23.8366C24.447 20.4022 25.0326 20.6446 25.4643 21.0763C25.896 21.508 26.1384 22.0934 26.1384 22.704C26.1384 23.3144 25.896 23.8999 25.4643 24.3315C25.0326 24.7632 24.447 25.0058 23.8366 25.0058H21.5348V35.5758Z" fill="black"/>
</g>
</svg>
