<svg width="39" height="39" viewBox="0 0 39 39" fill="none" xmlns="http://www.w3.org/2000/svg">
<g clip-path="url(#clip0_1198_26608)">
<g clip-path="url(#clip1_1198_26608)">
<mask id="mask0_1198_26608" style="mask-type:luminance" maskUnits="userSpaceOnUse" x="1" y="1" width="37" height="38">
<path d="M37.8597 1.98828H1.03052V38.8175H37.8597V1.98828Z" fill="white"/>
</mask>
<g mask="url(#mask0_1198_26608)">
<path d="M25.5833 6.5918C27.6183 6.5918 29.5699 7.40018 31.0087 8.8391C32.4476 10.278 33.256 12.2296 33.256 14.2645V26.541C33.256 28.5759 32.4476 30.5274 31.0087 31.9664C29.5699 33.4053 27.6183 34.2137 25.5833 34.2137H13.3069C11.272 34.2137 9.32037 33.4053 7.88146 31.9664C6.44252 30.5274 5.63416 28.5759 5.63416 26.541V14.2645C5.63416 12.2296 6.44252 10.278 7.88146 8.8391C9.32037 7.40018 11.272 6.5918 13.3069 6.5918H25.5833ZM19.4451 14.2645C17.8171 14.2645 16.2558 14.9112 15.1047 16.0623C13.9536 17.2135 13.3069 18.7748 13.3069 20.4028C13.3069 22.0306 13.9536 23.592 15.1047 24.7431C16.2558 25.8942 17.8171 26.541 19.4451 26.541C21.0731 26.541 22.6344 25.8942 23.7854 24.7431C24.9366 23.592 25.5833 22.0306 25.5833 20.4028C25.5833 18.7748 24.9366 17.2135 23.7854 16.0623C22.6344 14.9112 21.0731 14.2645 19.4451 14.2645ZM19.4451 17.3337C20.259 17.3337 21.0396 17.657 21.6153 18.2326C22.1909 18.8081 22.5142 19.5887 22.5142 20.4028C22.5142 21.2167 22.1909 21.9973 21.6153 22.5729C21.0396 23.1486 20.259 23.4719 19.4451 23.4719C18.6312 23.4719 17.8505 23.1486 17.2749 22.5729C16.6993 21.9973 16.376 21.2167 16.376 20.4028C16.376 19.5887 16.6993 18.8081 17.2749 18.2326C17.8505 17.657 18.6312 17.3337 19.4451 17.3337ZM26.3506 11.9627C25.9436 11.9627 25.5532 12.1244 25.2655 12.4122C24.9778 12.7 24.816 13.0903 24.816 13.4973C24.816 13.9043 24.9778 14.2946 25.2655 14.5824C25.5532 14.8702 25.9436 15.0318 26.3506 15.0318C26.7575 15.0318 27.1479 14.8702 27.4356 14.5824C27.7234 14.2946 27.8851 13.9043 27.8851 13.4973C27.8851 13.0903 27.7234 12.7 27.4356 12.4122C27.1479 12.1244 26.7575 11.9627 26.3506 11.9627Z" fill="black"/>
</g>
</g>
</g>
<defs>
<clipPath id="clip0_1198_26608">
<rect width="38.3637" height="38.3637" fill="white" transform="translate(0.263184 0.599609)"/>
</clipPath>
<clipPath id="clip1_1198_26608">
<rect width="38.3637" height="38.3637" fill="white" transform="translate(0.263184 0.599609)"/>
</clipPath>
</defs>
</svg>
