<svg width="39" height="39" viewBox="0 0 39 39" fill="none" xmlns="http://www.w3.org/2000/svg">
<g clip-path="url(#clip0_1198_26600)">
<g clip-path="url(#clip1_1198_26600)">
<mask id="mask0_1198_26600" style="mask-type:luminance" maskUnits="userSpaceOnUse" x="0" y="1" width="38" height="38">
<path d="M37.7613 1.98828H0.932129V38.8175H37.7613V1.98828Z" fill="white"/>
</mask>
<g mask="url(#mask0_1198_26600)">
<path fill-rule="evenodd" clip-rule="evenodd" d="M28.554 6.5918C29.7749 6.5918 30.9459 7.07682 31.8092 7.94017C32.6726 8.80353 33.1577 9.97448 33.1577 11.1954V29.6101C33.1577 30.831 32.6726 32.002 31.8092 32.8653C30.9459 33.7287 29.7749 34.2137 28.554 34.2137H10.1394C8.91845 34.2137 7.7475 33.7287 6.88414 32.8653C6.02079 32.002 5.53577 30.831 5.53577 29.6101V11.1954C5.53577 9.97448 6.02079 8.80353 6.88414 7.94017C7.7475 7.07682 8.91845 6.5918 10.1394 6.5918H28.554ZM13.2085 17.3337C12.8015 17.3337 12.4112 17.4953 12.1234 17.7832C11.8356 18.0709 11.674 18.4613 11.674 18.8682V26.541C11.674 26.9479 11.8356 27.3382 12.1234 27.6261C12.4112 27.9138 12.8015 28.0755 13.2085 28.0755C13.6155 28.0755 14.0058 27.9138 14.2936 27.6261C14.5814 27.3382 14.7431 26.9479 14.7431 26.541V18.8682C14.7431 18.4613 14.5814 18.0709 14.2936 17.7832C14.0058 17.4953 13.6155 17.3337 13.2085 17.3337ZM17.8122 15.7991C17.4052 15.7991 17.0148 15.9607 16.7271 16.2486C16.4394 16.5363 16.2776 16.9267 16.2776 17.3337V26.541C16.2776 26.9479 16.4394 27.3382 16.7271 27.6261C17.0148 27.9138 17.4052 28.0755 17.8122 28.0755C18.2191 28.0755 18.6095 27.9138 18.8972 27.6261C19.185 27.3382 19.3467 26.9479 19.3467 26.541V20.9245C19.8147 20.3966 20.605 19.7767 21.4843 19.4007C21.9953 19.1828 22.7642 19.0938 23.2982 19.2626C23.5314 19.3363 23.6665 19.4406 23.7478 19.5511C23.8276 19.6585 23.9504 19.8979 23.9504 20.4028V26.541C23.9504 26.9479 24.1121 27.3382 24.3998 27.6261C24.6876 27.9138 25.0779 28.0755 25.4849 28.0755C25.8919 28.0755 26.2823 27.9138 26.57 27.6261C26.8577 27.3382 27.0195 26.9479 27.0195 26.541V20.4028C27.0195 19.3746 26.7586 18.46 26.2154 17.7265C25.7155 17.0613 25.0159 16.5736 24.2189 16.3347C22.8347 15.9004 21.3017 16.1413 20.2782 16.5802C19.9502 16.7205 19.6309 16.8804 19.3222 17.059C19.2579 16.7054 19.0714 16.3856 18.7955 16.1553C18.5196 15.9251 18.1716 15.799 17.8122 15.7991ZM13.2085 12.73C12.8015 12.73 12.4112 12.8917 12.1234 13.1795C11.8356 13.4672 11.674 13.8576 11.674 14.2645C11.674 14.6715 11.8356 15.0618 12.1234 15.3496C12.4112 15.6374 12.8015 15.7991 13.2085 15.7991C13.6155 15.7991 14.0058 15.6374 14.2936 15.3496C14.5814 15.0618 14.7431 14.6715 14.7431 14.2645C14.7431 13.8576 14.5814 13.4672 14.2936 13.1795C14.0058 12.8917 13.6155 12.73 13.2085 12.73Z" fill="black"/>
</g>
</g>
</g>
<defs>
<clipPath id="clip0_1198_26600">
<rect width="38.3637" height="38.3637" fill="white" transform="translate(0.164795 0.599609)"/>
</clipPath>
<clipPath id="clip1_1198_26600">
<rect width="38.3637" height="38.3637" fill="white" transform="translate(0.164795 0.599609)"/>
</clipPath>
</defs>
</svg>
