<svg width="39" height="39" viewBox="0 0 39 39" fill="none" xmlns="http://www.w3.org/2000/svg">
<g clip-path="url(#clip0_1198_26616)">
<g clip-path="url(#clip1_1198_26616)">
<mask id="mask0_1198_26616" style="mask-type:luminance" maskUnits="userSpaceOnUse" x="1" y="1" width="38" height="38">
<path d="M38.0715 1.48438H1.24231V38.3136H38.0715V1.48438Z" fill="white"/>
</mask>
<g mask="url(#mask0_1198_26616)">
<path d="M31.5543 8.63371C31.687 8.48197 31.7884 8.30557 31.853 8.1146C31.9175 7.92363 31.9439 7.7218 31.9304 7.52067C31.9169 7.31954 31.8639 7.12302 31.7745 6.94236C31.6851 6.76168 31.561 6.6004 31.4092 6.46769C31.2575 6.335 31.0812 6.23349 30.8901 6.16896C30.6992 6.10442 30.4973 6.07815 30.2962 6.0916C30.0951 6.10508 29.8986 6.15802 29.7179 6.24744C29.5372 6.33684 29.376 6.46097 29.2432 6.61271L21.4017 15.5745L14.7463 6.70171C14.6034 6.51113 14.418 6.35644 14.205 6.24991C13.9919 6.14336 13.7569 6.08789 13.5187 6.08789H7.3805C7.09552 6.08789 6.81617 6.16726 6.57374 6.31708C6.33131 6.46691 6.13541 6.68127 6.00795 6.93617C5.88051 7.19108 5.82655 7.47643 5.85215 7.76026C5.87775 8.04409 5.98187 8.31518 6.15286 8.54317L16.0308 21.7127L7.75953 31.1655C7.62684 31.3173 7.52531 31.4936 7.46079 31.6847C7.39626 31.8756 7.36997 32.0774 7.38345 32.2785C7.3969 32.4797 7.44986 32.6761 7.53928 32.8569C7.62868 33.0375 7.7528 33.1988 7.90455 33.3316C8.0563 33.4641 8.2327 33.5657 8.42367 33.6303C8.61465 33.6948 8.81645 33.721 9.01759 33.7077C9.21872 33.6942 9.41523 33.6412 9.5959 33.5518C9.77657 33.4623 9.93786 33.3383 10.0706 33.1865L17.9121 24.2232L24.5674 33.096C24.7103 33.2866 24.8957 33.4413 25.1088 33.5478C25.3218 33.6543 25.5569 33.7098 25.7951 33.7098H31.9333C32.2183 33.7098 32.4977 33.6305 32.74 33.4806C32.9825 33.3308 33.1784 33.1164 33.3058 32.8615C33.4333 32.6066 33.4872 32.3212 33.4617 32.0375C33.4361 31.7536 33.3319 31.4824 33.1609 31.2545L23.283 18.085L31.5543 8.63371Z" fill="black"/>
</g>
</g>
</g>
<defs>
<clipPath id="clip0_1198_26616">
<rect width="38.3637" height="38.3637" fill="white" transform="translate(0.475098 0.0957031)"/>
</clipPath>
<clipPath id="clip1_1198_26616">
<rect width="38.3637" height="38.3637" fill="white" transform="translate(0.475098 0.0957031)"/>
</clipPath>
</defs>
</svg>
