<svg width="39" height="39" viewBox="0 0 39 39" fill="none" xmlns="http://www.w3.org/2000/svg">
<path d="M16.2299 24.5267L24.4474 19.7767L16.2299 15.0267V24.5267ZM34.5332 12.1292C34.7391 12.8734 34.8816 13.8709 34.9766 15.1375C35.0874 16.4042 35.1349 17.4967 35.1349 18.4467L35.2299 19.7767C35.2299 23.2442 34.9766 25.7934 34.5332 27.4242C34.1374 28.8492 33.2191 29.7675 31.7941 30.1634C31.0499 30.3692 29.6882 30.5117 27.5982 30.6067C25.5399 30.7175 23.6557 30.765 21.9141 30.765L19.3966 30.86C12.7624 30.86 8.6299 30.6067 6.99907 30.1634C5.57407 29.7675 4.65573 28.8492 4.2599 27.4242C4.05407 26.68 3.91157 25.6825 3.81657 24.4159C3.70573 23.1492 3.65823 22.0567 3.65823 21.1067L3.56323 19.7767C3.56323 16.3092 3.81657 13.76 4.2599 12.1292C4.65573 10.7042 5.57407 9.78586 6.99907 9.39003C7.74323 9.18419 9.1049 9.04169 11.1949 8.94669C13.2532 8.83586 15.1374 8.78836 16.8791 8.78836L19.3966 8.69336C26.0307 8.69336 30.1632 8.94669 31.7941 9.39003C33.2191 9.78586 34.1374 10.7042 34.5332 12.1292Z" fill="black"/>
</svg>
