<svg width="48" height="54" viewBox="0 0 48 54" fill="none" xmlns="http://www.w3.org/2000/svg">
<path d="M17.7739 21.2738L20.6141 19.6422L20.9495 20.5464C21.1501 21.0876 21.6527 21.4373 22.2299 21.4373L25.8971 21.4373C26.2701 21.4372 26.6118 21.2911 26.8611 21.0419C26.9976 20.9054 27.1064 20.7378 27.1774 20.5464L27.5126 19.6421L30.3529 21.2738C30.65 21.4444 31.0158 21.3869 31.2471 21.1556C31.2921 21.1106 31.3319 21.0591 31.3652 21.0015L31.442 20.8688C32.7083 18.6756 32.5119 15.4843 29.7899 13.441C30.0378 9.62685 28.2278 5.80729 24.5309 2.74436C24.2562 2.51681 23.8586 2.51681 23.5839 2.74436C19.8844 5.80893 18.0741 9.63243 18.3254 13.45C15.6151 15.4935 15.4217 18.6804 16.685 20.8686L16.7616 21.0014C16.9661 21.3557 17.419 21.4777 17.7739 21.2738ZM19.8401 13.8309C19.8421 13.7656 19.8351 13.6999 19.8194 13.6353C19.6149 11.601 20.0948 9.56618 21.2301 7.65334L26.8841 7.65335C28.8059 10.8912 28.852 14.4794 26.8779 17.8198L21.2364 17.8197C20.4659 16.516 20.0043 15.1745 19.8401 13.8309ZM22.1474 12.4694C21.0887 11.4108 21.0887 9.68819 22.1474 8.62947C23.2061 7.57076 24.9286 7.57076 25.9873 8.62947C27.0461 9.68819 27.0461 11.4107 25.9873 12.4694C24.9286 13.5282 23.2061 13.5282 22.1474 12.4694Z" fill="#F38400"/>
<path d="M27.5644 21.6683C26.479 22.2111 22.3631 22.0076 20.4406 21.6683C19.7619 21.6683 19.6258 26.7572 20.4406 26.7572C21.459 26.7572 22.1362 23.7039 22.8147 23.7039C23.4933 23.7039 23.4933 30.4891 24.511 30.4891C25.5288 30.4891 25.8681 21.6683 26.2073 24.0431C26.4787 25.943 27.4513 27.0965 27.9036 27.4357C28.243 25.4002 28.6499 21.1255 27.5644 21.6683Z" fill="#F38400"/>
<path d="M44.2953 35.3096C44.5176 35.3096 44.6978 35.4898 44.6978 35.7121V37.3281C44.6964 38.1208 44.3803 38.8809 43.8199 39.4414C43.2593 40.002 42.4994 40.3179 41.7066 40.3193H27.804C27.564 40.3193 27.3763 40.5282 27.4278 40.7626C28.1229 43.9257 32.2984 46.9372 32.3629 46.9834C32.4876 47.0768 32.5809 47.207 32.6285 47.3555C32.676 47.5039 32.6758 47.664 32.6285 47.8125C32.5811 47.9609 32.4884 48.091 32.3638 48.1846C32.2393 48.278 32.0888 48.3299 31.9332 48.334H15.9029C15.7479 48.3347 15.5965 48.2871 15.4703 48.1973C15.344 48.1073 15.2488 47.9798 15.1988 47.833C15.1488 47.6862 15.1459 47.5273 15.191 47.3789C15.2361 47.2306 15.3266 47.1 15.4498 47.0059C17.6337 45.3126 20.346 42.5059 20.6425 40.7016C20.6774 40.4893 20.4983 40.3193 20.2832 40.3193H6.12848C5.33585 40.3178 4.57568 40.0019 4.0152 39.4414C3.45488 38.8809 3.13968 38.1207 3.13824 37.3281V35.7121C3.13824 35.4898 3.31846 35.3096 3.54076 35.3096H44.2953ZM22.0474 36.1191C21.8527 36.1222 21.6665 36.2011 21.5298 36.3398C21.3931 36.4787 21.317 36.6665 21.317 36.8613C21.317 37.056 21.3933 37.2431 21.5298 37.3818C21.6665 37.5207 21.8526 37.6005 22.0474 37.6035H25.565C25.7599 37.6006 25.9458 37.5206 26.0826 37.3818C26.2193 37.243 26.2964 37.0562 26.2964 36.8613C26.2964 36.6664 26.2194 36.4787 26.0826 36.3398C25.9458 36.2012 25.7598 36.122 25.565 36.1191H22.0474ZM13.5376 11.2871C13.8658 11.2871 14.0592 11.6612 13.8843 11.9388C12.6659 13.8727 11.9586 16.1608 11.9586 18.6152C11.9586 25.5478 17.5788 31.1679 24.5113 31.168C31.4439 31.168 37.064 25.5478 37.064 18.6152C37.064 16.1607 36.3567 13.8727 35.1383 11.9388C34.9634 11.6612 35.1568 11.2871 35.485 11.2871H41.7066C42.4994 11.2886 43.2593 11.6045 43.8199 12.165C44.3803 12.7256 44.6964 13.4856 44.6978 14.2783V33.4237C44.6978 33.646 44.5176 33.8262 44.2953 33.8262H3.54076C3.31845 33.8262 3.13824 33.646 3.13824 33.4237V14.2783C3.13968 13.4857 3.45485 12.7256 4.0152 12.165C4.57568 11.6046 5.33585 11.2887 6.12848 11.2871H13.5376Z" fill="#F38400"/>
</svg>
