<svg width="183" height="40" viewBox="0 0 183 40" fill="none" xmlns="http://www.w3.org/2000/svg">
<path d="M42.024 38.801C42.0256 39.1803 41.2322 39.26 40.9775 39.2729C39.6748 39.3383 37.9066 39.3191 36.5991 39.2607C35.6907 39.2203 34.6475 38.9215 33.7106 38.9143C33.7108 38.4722 36.5102 39.0337 36.8297 39.0337C37.2216 39.0337 37.6055 38.7984 37.9849 38.7977C39.3308 38.7957 40.6804 38.7996 42.024 38.801Z" fill="#F38400"/>
<path d="M174.79 23.098L175.484 23.7897C174.887 23.7255 174.325 23.8728 174.097 24.4815C176.149 24.3122 178.089 24.6752 180.1 24.9467L179.867 25.6364L180.561 25.8666L177.561 27.0257C177.884 27.294 178.137 28.2088 178.31 28.3524C178.447 28.4656 179.276 28.6678 179.595 28.8108C179.93 28.9606 180.222 28.6736 180.099 29.3319L178.947 29.1026L179.408 30.0232C178.618 29.8036 178.332 30.5864 178.081 30.7053C177.922 30.7803 174.963 31.3869 174.646 31.4083C174.173 31.4404 173.844 31.2315 173.406 31.1802C173.237 32.494 174.444 31.9925 175.342 32.128C176.314 32.2747 177.58 32.5903 178.533 32.8641C178.771 32.9325 179.23 32.923 179.176 33.2555L170.636 34.6432C170.532 35.8418 172.665 34.4234 172.943 35.3336C169.829 35.9027 166.707 36.5206 163.562 36.9226C162.229 37.093 160.896 37.238 159.552 37.1837L159.897 37.6499L168.556 37.6464C168.46 38.1087 168.084 38.0406 167.747 38.1055C161.575 39.2948 152.335 38.54 145.802 38.5578C135.698 38.5853 125.498 38.4975 115.335 38.5693C97.5599 38.6947 79.5837 37.8418 61.7563 38.096C52.5518 38.2274 43.2287 37.6448 34.0506 37.7021C32.5246 37.7116 30.7578 37.4735 29.2656 37.7014C29.0638 37.7321 28.5706 37.8055 28.6341 38.1041C32.0211 38.1025 35.4074 38.6679 38.7914 38.1071C39.092 38.3636 38.8283 38.5492 38.4499 38.5682C36.1335 38.6834 32.8675 38.7522 30.5865 38.577C29.3013 38.4781 27.7728 38.2505 26.4401 38.1055C22.5758 37.6852 18.6815 36.7769 14.7803 36.7196C14.5914 35.8628 15.7655 36.4246 16.2539 36.2324L19.8579 35.5684L12.4129 35.7393L10.6242 35.1066L13.255 35.1154L13.3954 34.41L14.3165 34.4141C12.8355 34.0279 11.0943 34.2467 9.62696 33.9457C9.53576 33.927 9.33765 33.3479 8.40576 33.2798C7.08503 33.183 7.06679 33.1768 5.72621 32.7288C5.16537 32.5416 4.35169 32.6896 4.15866 32.1054L6.23511 31.1772L5.3106 30.833L6.23557 30.1393C4.94855 29.7364 6.72876 29.2151 6.92802 28.754L6.23741 28.4104C6.96612 28.5457 7.50665 28.8163 7.85207 27.9491C7.41729 27.7971 6.80219 27.6614 6.41082 27.4676C6.13721 27.3321 6.35078 26.889 5.65717 27.0176L5.31522 27.4836C4.93054 26.3457 2.73681 25.8867 1.61927 25.8666L2.88712 25.639C3.64192 24.3607 1.15471 24.9306 1.16048 24.3679L3.92684 23.0954C3.798 22.4895 3.10047 22.7844 2.77398 22.5221C3.26763 21.4632 4.4833 21.0781 5.54196 20.7867L4.85019 20.0975L5.77562 20.0956C6.00652 19.1778 4.6627 19.6962 4.62161 19.6357L4.61699 18.9425L3.23485 18.9407C3.05683 18.302 3.59689 18.5352 3.79615 18.2556C3.89175 18.1215 3.57103 17.8211 4.17321 17.6472L3.92915 16.4018L4.61814 16.284L3.69779 15.7123L4.56942 15.6403L5.31152 14.7882C4.43181 14.876 3.71696 15.631 2.77052 15.1325C3.375 14.8601 4.15289 13.7451 4.62553 13.522C5.0834 13.3059 5.82757 13.5486 6.00513 12.9411C5.11272 13.317 4.81648 12.5216 4.67633 12.4844C3.97441 12.2987 3.89844 12.731 3.66778 11.5809L2.77075 11.4384L5.31314 10.6284C5.52718 9.69538 4.53941 10.5592 4.39048 10.3989L4.37593 9.6081C4.40156 9.45179 6.21386 9.09322 6.00352 8.32156L3.92915 8.55222L5.31175 7.63072L3.00187 7.85791L3.23623 7.39936L0 7.28229L2.54078 6.1269L0.92543 6.00961C1.05473 5.44091 1.74973 5.5134 2.13209 5.30052C2.51699 5.08601 2.83725 4.45637 3.69664 4.62423C3.71673 4.21162 3.80562 4.13357 3.34498 4.15573C2.73496 4.18529 2.28679 4.57782 1.51375 4.63762C1.05658 4.67295 0.269456 4.83296 0.462947 4.16613C1.92174 3.88028 3.35307 3.41087 4.80055 3.07514C9.62142 1.95645 13.5744 1.87403 18.358 1.39354C25.4692 0.679149 32.5884 0.116448 39.8311 0.00792733C44.5645 -0.0631885 49.3689 0.371126 54.1466 0.238823C68.841 -0.167784 83.55 0.23721 98.2479 0.0492614C107.69 -0.0712661 117.396 0.525364 126.879 0.238823C141.259 -0.195723 155.535 0.212971 170.056 1.16264C173.446 1.41132 176.748 2.21853 180.1 2.54986C179.844 3.24671 179.002 2.91676 178.428 3.06938C178.197 3.13103 177.979 3.373 177.655 3.45035C176.863 3.63968 175.596 3.47322 175.382 4.14559L174.56 3.93408L174.789 4.85489L171.558 5.08972C171.499 5.41551 171.946 5.41759 172.174 5.45661C173.45 5.67411 175.205 5.36541 176.51 5.56051C177.557 5.71683 178.931 6.52773 180.1 6.47509C179.975 7.23912 178.854 6.6351 178.716 7.16362L180.792 7.97498C180.378 8.26683 179.586 8.05534 179.627 8.77088L178.717 8.32063L178.714 9.24537L178.484 8.55338L177.562 9.01147C177.438 9.74364 177.781 9.36244 178.138 9.46542C179.244 9.78451 180.524 10.1336 181.485 10.746L179.64 10.6305C179.428 11.3595 180.221 10.9616 180.467 11.3112L180.372 11.9662L180.797 12.1304L180.792 12.4738L179.87 12.8222C180.092 13.2235 181.373 13.4114 181.253 13.9746C181.103 14.6867 178.69 13.9409 178.711 14.8998C179.572 15.1741 179.127 16.0445 180.05 15.9896C180.027 17.0042 181.226 16.9335 181.946 17.2092C181.48 17.7072 180.745 17.5354 180.126 17.7052C179.526 17.8693 179.664 18.1646 179.603 18.205C179.445 18.3092 178.893 17.7202 178.947 18.2468C180.127 18.396 181.328 18.1903 182.528 18.2489C182.907 18.2674 183.17 18.4549 182.87 18.7102L178.249 19.5156L178.022 19.8636L179.407 20.0995L179.295 20.5551L178.714 20.7871L180.399 21.0178L180.779 21.6008C180.775 21.6913 179.761 22.3796 179.56 22.4646C179.219 22.6085 178.898 22.4574 178.709 22.5413C178.489 22.6392 178.208 23.098 178.138 23.098H174.79ZM63.2663 0.934046H62.8066V1.16102H63.2663V0.934046ZM160.012 1.16494L158.166 1.27739C158.529 1.81122 159.755 1.75003 160.012 1.16494ZM173.982 2.77914V3.01004C174.132 2.93315 174.132 2.85603 173.982 2.77914ZM177.789 2.77937L176.638 3.01257L176.638 3.23908L177.79 3.24L177.789 2.77937ZM4.38794 4.16658H3.92823V4.39356H4.38794V4.16658ZM168.557 5.31806V5.55035L170.633 5.55104V5.31877L168.557 5.31806ZM171.325 5.32106H170.866V5.54804H171.325V5.32106ZM177.329 6.47554H176.869V6.70252H177.329V6.47554ZM4.27342 18.0182V18.2491C4.42327 18.1723 4.42327 18.0951 4.27342 18.0182ZM4.50431 22.1744V22.4053C4.65416 22.3284 4.65416 22.2513 4.50431 22.1744ZM172.019 23.3268L171.683 22.9412L170.635 23.0998V23.3268H172.019ZM179.175 25.8678V25.4081H178.948V25.8678H179.175ZM53.1069 36.9538H52.1854V37.1807H53.1069V36.9538ZM120.53 36.9508V37.183L122.837 37.1837V36.9515L120.53 36.9508ZM28.1702 37.6464H27.2487V37.8734H28.1702V37.6464ZM145.004 37.8753H139.694L141.877 38.3472C142.564 38.3225 143.254 38.3779 143.94 38.3119C144.167 38.29 145.029 38.2098 145.004 37.8753Z" fill="#F38400"/>
<path d="M180.33 15.2498H179.64V15.4767H180.33V15.2498Z" fill="#F38400"/>
<path d="M175.829 4.16455C175.979 4.24144 175.979 4.31856 175.829 4.39545V4.16455Z" fill="#F38400"/>
<path d="M4.27344 12.7078C4.42329 12.7847 4.42329 12.8618 4.27344 12.9387V12.7078Z" fill="#F38400"/>
</svg>
