<svg width="70" height="70" viewBox="0 0 70 70" fill="none" xmlns="http://www.w3.org/2000/svg">
<path d="M35 24.0625C32.8368 24.0625 30.7221 24.704 28.9235 25.9058C27.1248 27.1076 25.7229 28.8158 24.8951 30.8144C24.0672 32.813 23.8506 35.0121 24.2727 37.1338C24.6947 39.2555 25.7364 41.2043 27.266 42.734C28.7957 44.2636 30.7445 45.3053 32.8662 45.7273C34.9879 46.1494 37.187 45.9328 39.1856 45.1049C41.1842 44.2771 42.8924 42.8752 44.0942 41.0765C45.296 39.2779 45.9375 37.1632 45.9375 35C45.9343 32.1002 44.781 29.32 42.7305 27.2695C40.68 25.219 37.8998 24.0657 35 24.0625ZM37.1875 40.4688H35V37.1875H30.625V40.4688H28.4375V36.0938C28.4376 35.9544 28.4639 35.8164 28.5152 35.6869L30.7027 30.2181C30.784 30.0152 30.9243 29.8413 31.1054 29.7189C31.2865 29.5964 31.5001 29.5311 31.7188 29.5312H33.9063C34.1249 29.5311 34.3385 29.5964 34.5196 29.7189C34.7008 29.8413 34.841 30.0152 34.9224 30.2181L37.1099 35.6869C37.1611 35.8164 37.1875 35.9544 37.1875 36.0938V40.4688ZM40.4688 40.4688H38.2813V29.5312H40.4688V40.4688Z" fill="#F38400"/>
<path d="M32.4609 31.7188L31.1484 35H34.48L33.1675 31.7188H32.4609Z" fill="#F38400"/>
<path d="M61.4531 24.0624C61.7111 24.7922 62.2188 25.4072 62.8865 25.7989C63.5541 26.1905 64.3387 26.3336 65.1016 26.2027C65.8645 26.0718 66.5565 25.6754 67.0554 25.0836C67.5543 24.4918 67.828 23.7427 67.828 22.9687C67.828 22.1946 67.5543 21.4455 67.0554 20.8537C66.5565 20.2619 65.8645 19.8656 65.1016 19.7347C64.3387 19.6038 63.5541 19.7468 62.8865 20.1384C62.2188 20.5301 61.7111 21.1452 61.4531 21.8749H57.9706C57.6806 21.875 57.4024 21.9903 57.1973 22.1954L51.9659 27.4268C51.5385 26.4561 51.0288 25.5237 50.4423 24.6399C50.3157 24.4515 50.2508 24.2284 50.2567 24.0014C50.2626 23.7745 50.3389 23.555 50.4752 23.3734L52.1158 21.1859L51.2408 20.3109L61.23 10.3184C61.8974 10.7197 62.6606 10.9336 63.4394 10.9374C64.3047 10.9374 65.1505 10.6808 65.87 10.2001C66.5895 9.71937 67.1502 9.03609 67.4813 8.23666C67.8125 7.43723 67.8991 6.55757 67.7303 5.7089C67.5615 4.86023 67.1448 4.08068 66.533 3.46883C65.9211 2.85697 65.1416 2.4403 64.2929 2.27148C63.4442 2.10267 62.5646 2.18931 61.7651 2.52045C60.9657 2.85158 60.2824 3.41234 59.8017 4.1318C59.321 4.85127 59.0644 5.69713 59.0644 6.56242C59.0682 7.34116 59.2821 8.10444 59.6834 8.7718L49.6964 18.7588L48.8214 17.8838L46.6284 19.5245C46.4468 19.6607 46.2273 19.737 46.0004 19.7429C45.7734 19.7488 45.5503 19.6839 45.3619 19.5573C44.4791 18.9698 43.547 18.46 42.5761 18.0337L47.8075 12.8023C48.0117 12.5976 48.1265 12.3203 48.1269 12.0312V8.54867C48.8566 8.29066 49.4717 7.78297 49.8633 7.11533C50.255 6.4477 50.398 5.6631 50.2671 4.90021C50.1362 4.13733 49.7399 3.44527 49.1481 2.94637C48.5563 2.44746 47.8072 2.17383 47.0331 2.17383C46.2591 2.17383 45.51 2.44746 44.9182 2.94637C44.3264 3.44527 43.93 4.13733 43.7991 4.90021C43.6682 5.6631 43.8113 6.4477 44.2029 7.11533C44.5946 7.78297 45.2096 8.29066 45.9394 8.54867V11.5784L40.3284 17.1893C39.7597 17.0209 39.1833 16.8754 38.5948 16.7605C38.3716 16.7174 38.1673 16.6057 38.0105 16.441C37.8537 16.2763 37.7521 16.0669 37.7198 15.8418L37.3348 13.1249H32.6689L32.2806 15.8418C32.2484 16.0669 32.1468 16.2763 31.99 16.441C31.8331 16.6057 31.6289 16.7174 31.4056 16.7605C30.8172 16.8754 30.2408 17.0209 29.672 17.1893L24.0644 11.5784V8.54867C24.7941 8.29066 25.4092 7.78297 25.8008 7.11533C26.1925 6.4477 26.3355 5.6631 26.2046 4.90021C26.0737 4.13733 25.6774 3.44527 25.0856 2.94637C24.4938 2.44746 23.7447 2.17383 22.9706 2.17383C22.1966 2.17383 21.4475 2.44746 20.8557 2.94637C20.2639 3.44527 19.8675 4.13733 19.7366 4.90021C19.6057 5.6631 19.7488 6.4477 20.1404 7.11533C20.532 7.78297 21.1471 8.29066 21.8769 8.54867V12.0312C21.8769 12.3212 21.9922 12.5994 22.1973 12.8045L27.4287 18.0359C26.4578 18.4622 25.5258 18.972 24.643 19.5595C24.4546 19.6861 24.2314 19.751 24.0044 19.7451C23.7775 19.7392 23.558 19.6629 23.3764 19.5266L21.1889 17.886L20.3139 18.761L10.3203 8.7718C10.7217 8.10444 10.9355 7.34116 10.9394 6.56242C10.9394 5.69713 10.6828 4.85127 10.2021 4.1318C9.72132 3.41234 9.03804 2.85158 8.23861 2.52045C7.43919 2.18931 6.55952 2.10267 5.71085 2.27148C4.86219 2.4403 4.08264 2.85697 3.47078 3.46883C2.85893 4.08068 2.44225 4.86023 2.27344 5.7089C2.10463 6.55757 2.19127 7.43723 2.5224 8.23666C2.85353 9.03609 3.41429 9.71937 4.13375 10.2001C4.85322 10.6808 5.69908 10.9374 6.56437 10.9374C7.34312 10.9336 8.1064 10.7197 8.77375 10.3184L18.7608 20.3054L17.8858 21.1804L19.5264 23.3679C19.6626 23.5495 19.739 23.769 19.7449 23.9959C19.7508 24.2229 19.6859 24.446 19.5592 24.6345C18.9272 25.5858 18.3849 26.5939 17.9394 27.6455L12.4892 22.1954C12.387 22.0932 12.2656 22.0122 12.1319 21.9572C11.9983 21.9022 11.855 21.8742 11.7105 21.8749H8.55062C8.29261 21.1452 7.78492 20.5301 7.11729 20.1384C6.44965 19.7468 5.66505 19.6038 4.90217 19.7347C4.13928 19.8656 3.44723 20.2619 2.94832 20.8537C2.44942 21.4455 2.17578 22.1946 2.17578 22.9687C2.17578 23.7427 2.44942 24.4918 2.94832 25.0836C3.44723 25.6754 4.13928 26.0718 4.90217 26.2027C5.66505 26.3336 6.44965 26.1905 7.11729 25.7989C7.78492 25.4072 8.29261 24.7922 8.55062 24.0624H11.2577L17.1278 29.9326C16.9911 30.4182 16.8609 30.9071 16.7625 31.4069C16.7193 31.6302 16.6076 31.8345 16.443 31.9913C16.2783 32.1481 16.0688 32.2497 15.8437 32.2819L13.1269 32.667V37.3329L15.8437 37.7212C16.0688 37.7534 16.2783 37.855 16.443 38.0118C16.6076 38.1687 16.7193 38.3729 16.7625 38.5962C16.8609 39.096 16.9911 39.5805 17.1278 40.0705L11.2577 45.9374H8.55062C8.29261 45.2077 7.78492 44.5926 7.11729 44.201C6.44965 43.8093 5.66505 43.6663 4.90217 43.7972C4.13928 43.9281 3.44723 44.3244 2.94832 44.9162C2.44942 45.508 2.17578 46.2571 2.17578 47.0312C2.17578 47.8052 2.44942 48.5543 2.94832 49.1461C3.44723 49.7379 4.13928 50.1343 4.90217 50.2652C5.66505 50.3961 6.44965 50.253 7.11729 49.8614C7.78492 49.4697 8.29261 48.8547 8.55062 48.1249H11.7105C12.0005 48.1249 12.2787 48.0096 12.4837 47.8045L17.9394 42.3543C18.3877 43.404 18.9325 44.4099 19.5669 45.3588C19.6935 45.5472 19.7584 45.7704 19.7525 45.9973C19.7467 46.2243 19.6703 46.4438 19.5341 46.6254L17.8934 48.8184L18.7684 49.6934L8.77375 59.6815C8.1064 59.2801 7.34312 59.0662 6.56437 59.0624C5.69908 59.0624 4.85322 59.319 4.13375 59.7997C3.41429 60.2805 2.85353 60.9638 2.5224 61.7632C2.19127 62.5626 2.10463 63.4423 2.27344 64.2909C2.44225 65.1396 2.85893 65.9192 3.47078 66.531C4.08264 67.1429 4.86219 67.5595 5.71085 67.7284C6.55952 67.8972 7.43919 67.8105 8.23861 67.4794C9.03804 67.1483 9.72132 66.5875 10.2021 65.868C10.6828 65.1486 10.9394 64.3027 10.9394 63.4374C10.9355 62.6587 10.7217 61.8954 10.3203 61.228L20.3073 51.241L21.1823 52.116L23.3698 50.4754C23.5514 50.3391 23.7709 50.2628 23.9979 50.2569C24.2248 50.251 24.448 50.3159 24.6364 50.4426C25.5202 51.029 26.4526 51.5387 27.4233 51.9662L22.1919 57.1976C21.9893 57.403 21.8761 57.6802 21.8769 57.9687V61.4512C21.1471 61.7092 20.532 62.2169 20.1404 62.8845C19.7488 63.5521 19.6057 64.3367 19.7366 65.0996C19.8675 65.8625 20.2639 66.5546 20.8557 67.0535C21.4475 67.5524 22.1966 67.826 22.9706 67.826C23.7447 67.826 24.4938 67.5524 25.0856 67.0535C25.6774 66.5546 26.0737 65.8625 26.2046 65.0996C26.3355 64.3367 26.1925 63.5521 25.8008 62.8845C25.4092 62.2169 24.7941 61.7092 24.0644 61.4512V58.4215L29.6753 52.8105C30.2441 52.979 30.8216 53.1245 31.4089 53.2393C31.6322 53.2825 31.8364 53.3942 31.9932 53.5588C32.1501 53.7235 32.2517 53.9329 32.2839 54.158L32.6689 56.8749H37.3348L37.7231 54.158C37.7554 53.9329 37.857 53.7235 38.0138 53.5588C38.1706 53.3942 38.3749 53.2825 38.5981 53.2393C39.1855 53.1245 39.763 52.979 40.3317 52.8105L45.9394 58.4215V61.4512C45.2096 61.7092 44.5946 62.2169 44.2029 62.8845C43.8113 63.5521 43.6682 64.3367 43.7991 65.0996C43.93 65.8625 44.3264 66.5546 44.9182 67.0535C45.51 67.5524 46.2591 67.826 47.0331 67.826C47.8072 67.826 48.5563 67.5524 49.1481 67.0535C49.7399 66.5546 50.1362 65.8625 50.2671 65.0996C50.398 64.3367 50.255 63.5521 49.8633 62.8845C49.4717 62.2169 48.8566 61.7092 48.1269 61.4512V57.9687C48.1268 57.6786 48.0115 57.4005 47.8064 57.1954L42.575 51.964C43.5457 51.5365 44.4781 51.0268 45.3619 50.4404C45.5503 50.3137 45.7734 50.2488 46.0004 50.2547C46.2273 50.2606 46.4468 50.337 46.6284 50.4732L48.8159 52.1138L49.6909 51.2388L59.678 61.2259C59.2781 61.8944 59.0662 62.6584 59.0644 63.4374C59.0644 64.3027 59.321 65.1486 59.8017 65.868C60.2824 66.5875 60.9657 67.1483 61.7651 67.4794C62.5646 67.8105 63.4442 67.8972 64.2929 67.7284C65.1416 67.5595 65.9211 67.1429 66.533 66.531C67.1448 65.9192 67.5615 65.1396 67.7303 64.2909C67.8991 63.4423 67.8125 62.5626 67.4813 61.7632C67.1502 60.9638 66.5895 60.2805 65.87 59.7997C65.1505 59.319 64.3047 59.0624 63.4394 59.0624C62.6606 59.0662 61.8974 59.2801 61.23 59.6815L51.243 49.6945L52.118 48.8195L50.4773 46.6265C50.3411 46.4449 50.2648 46.2254 50.2589 45.9984C50.253 45.7715 50.3179 45.5483 50.4445 45.3599C51.0312 44.4766 51.5409 43.5446 51.9681 42.5741L57.1995 47.8055C57.4042 48.0097 57.6815 48.1246 57.9706 48.1249H61.4531C61.7111 48.8547 62.2188 49.4697 62.8865 49.8614C63.5541 50.253 64.3387 50.3961 65.1016 50.2652C65.8645 50.1343 66.5565 49.7379 67.0554 49.1461C67.5543 48.5543 67.828 47.8052 67.828 47.0312C67.828 46.2571 67.5543 45.508 67.0554 44.9162C66.5565 44.3244 65.8645 43.9281 65.1016 43.7972C64.3387 43.6663 63.5541 43.8093 62.8865 44.201C62.2188 44.5926 61.7111 45.2077 61.4531 45.9374H58.4234L52.8125 40.3265C52.9809 39.7577 53.1264 39.1802 53.2412 38.5929C53.2844 38.3696 53.3961 38.1654 53.5608 38.0086C53.7255 37.8517 53.9349 37.7501 54.16 37.7179L56.8769 37.3329V32.667L54.16 32.2787C53.9349 32.2464 53.7255 32.1448 53.5608 31.988C53.3961 31.8312 53.2844 31.6269 53.2412 31.4037C53.1264 30.8163 52.9809 30.2388 52.8125 29.6701L58.4234 24.0624H61.4531ZM35.0019 48.1249C32.406 48.1249 29.8684 47.3552 27.71 45.913C25.5516 44.4708 23.8694 42.4209 22.876 40.0226C21.8826 37.6244 21.6226 34.9854 22.1291 32.4394C22.6355 29.8934 23.8855 27.5547 25.7211 25.7191C27.5567 23.8836 29.8953 22.6335 32.4413 22.1271C34.9873 21.6207 37.6263 21.8806 40.0246 22.874C42.4229 23.8674 44.4727 25.5497 45.9149 27.7081C47.3571 29.8665 48.1269 32.404 48.1269 34.9999C48.1231 38.4797 46.7391 41.8159 44.2785 44.2765C41.8179 46.7371 38.4817 48.1212 35.0019 48.1249Z" fill="#F38400"/>
</svg>
