<svg width="90" height="119" viewBox="0 0 90 119" fill="none" xmlns="http://www.w3.org/2000/svg">
<path d="M78 79.1403C78 75.1359 77.03 71.1707 75.1455 67.4712C73.2609 63.7716 70.4987 60.4101 67.0165 57.5786C63.5343 54.7471 59.4003 52.501 54.8506 50.9686C50.3009 49.4362 45.4246 48.6475 40.5 48.6475C35.5754 48.6475 30.6991 49.4362 26.1494 50.9686C21.5997 52.501 17.4657 54.7471 13.9835 57.5786C10.5013 60.4101 7.73907 63.7716 5.85452 67.4712C3.96997 71.1707 3 75.1359 3 79.1403L40.5 79.1403H78Z" fill="#F38400"/>
<ellipse cx="30.9877" cy="60.1747" rx="5.98385" ry="3.47945" transform="rotate(-21.54 30.9877 60.1747)" fill="#FFBB6A"/>
<ellipse cx="31.2971" cy="60.6271" rx="4.54312" ry="2.64171" transform="rotate(-21.54 31.2971 60.6271)" fill="#FFDDB5"/>
<ellipse cx="46.5318" cy="70.4026" rx="7.709" ry="4.48258" transform="rotate(6.40612 46.5318 70.4026)" fill="#FFBB6A"/>
<ellipse cx="46.6085" cy="71.1044" rx="5.85291" ry="3.40331" transform="rotate(6.40612 46.6085 71.1044)" fill="#FFDDB5"/>
<ellipse cx="22.2038" cy="75.0792" rx="2.65109" ry="1.54154" transform="rotate(-21.54 22.2038 75.0792)" fill="#FFBB6A"/>
<ellipse cx="22.341" cy="75.2793" rx="2.01279" ry="1.17038" transform="rotate(-21.54 22.341 75.2793)" fill="#FFDDB5"/>
<ellipse cx="8.58918" cy="74.7698" rx="2.05903" ry="1.19727" transform="rotate(-21.54 8.58918 74.7698)" fill="#FFBB6A"/>
<ellipse cx="8.69409" cy="74.9259" rx="1.56327" ry="0.909002" transform="rotate(-21.54 8.69409 74.9259)" fill="#FFDDB5"/>
<ellipse cx="16.8589" cy="65.2474" rx="4.71311" ry="2.74055" transform="rotate(-21.54 16.8589 65.2474)" fill="#FFBB6A"/>
<ellipse cx="17.1002" cy="65.6035" rx="3.57833" ry="2.08071" transform="rotate(-21.54 17.1002 65.6035)" fill="#FFDDB5"/>
<ellipse cx="55.6716" cy="58.3134" rx="3.13866" ry="1.82505" transform="rotate(29.9515 55.6716 58.3134)" fill="#FFBB6A"/>
<ellipse cx="55.5839" cy="58.5871" rx="2.38296" ry="1.38563" transform="rotate(29.9515 55.5839 58.5871)" fill="#FFDDB5"/>
<ellipse cx="66.7006" cy="70.699" rx="5.21073" ry="3.0299" transform="rotate(59.067 66.7006 70.699)" fill="#FFBB6A"/>
<ellipse cx="66.3573" cy="71.0291" rx="3.95614" ry="2.30039" transform="rotate(59.067 66.3573 71.0291)" fill="#FFDDB5"/>
<path d="M41.043 5.57617C45.5917 3.62196 49.9915 3.12169 53.7275 3.26465C56.8805 3.38531 59.5577 3.96404 61.4453 4.5127C62.3887 4.78691 63.1343 5.05319 63.6416 5.25C63.851 5.33124 64.0192 5.40192 64.1445 5.45508V29.459C64.1071 29.4425 64.0687 29.4237 64.0283 29.4062C63.5177 29.1853 62.77 28.8915 61.8125 28.5938C59.8972 27.9981 57.139 27.3865 53.7549 27.3164C50.0514 27.2398 45.6014 27.8115 40.6914 29.7578C35.9847 31.6235 31.723 32.1908 28.168 32.1387C24.8315 32.0897 22.114 31.4951 20.2344 30.915C19.2947 30.625 18.5646 30.3385 18.0723 30.126C17.8635 30.0359 17.6983 29.9575 17.5771 29.8994V5.84473C17.6358 5.86809 17.6975 5.8953 17.7637 5.9209C18.3028 6.1296 19.0874 6.40894 20.0762 6.69434C22.0531 7.26494 24.8521 7.86179 28.1455 7.96875C31.9511 8.0923 36.4215 7.5617 41.043 5.57617Z" fill="#FFDCB3" stroke="#FFA53C" stroke-width="0.920304"/>
<rect x="15.1867" y="0.460152" width="2.94497" height="65.7097" rx="1.47249" fill="#FFDCB3" stroke="#FFA53C" stroke-width="0.920304"/>
</svg>
