<svg width="68" height="68" viewBox="0 0 68 68" fill="none" xmlns="http://www.w3.org/2000/svg">
<path d="M38.9497 38.9514C39.0285 39.0302 39.1565 39.0303 39.2331 38.9494C40.164 37.9648 40.7996 36.7367 41.0648 35.4054C41.3432 34.0081 41.201 32.5599 40.6562 31.2439C40.1115 29.9279 39.1886 28.8032 38.0043 28.0121C36.8201 27.221 35.4276 26.799 34.003 26.7995C32.5784 26.7999 31.1856 27.2228 30.0009 28.0146C28.8161 28.8065 27.8926 29.9317 27.347 31.248C26.8014 32.5643 26.6583 34.0127 26.9358 35.4098C27.2002 36.7408 27.8349 37.9685 28.7652 38.9524C28.8418 39.0335 28.9698 39.0333 29.0487 38.9544C29.1275 38.8756 29.1273 38.748 29.0508 38.6668C28.1769 37.7394 27.5805 36.5837 27.3317 35.3309C27.0698 34.0121 27.2048 32.6449 27.7198 31.4024C28.2348 30.1598 29.1067 29.0976 30.225 28.3502C31.3434 27.6027 32.6581 27.2035 34.0029 27.2031C35.3476 27.2027 36.6621 27.601 37.78 28.3478C38.8979 29.0946 39.769 30.1562 40.2833 31.3985C40.7975 32.6407 40.9317 34.0078 40.669 35.3268C40.4194 36.5798 39.8222 37.736 38.9476 38.6639C38.8712 38.745 38.871 38.8726 38.9497 38.9514Z" fill="#D9D9D9"/>
<path d="M36.618 36.6193C36.6867 36.688 36.7985 36.6883 36.864 36.6165C37.3406 36.0947 37.6667 35.4518 37.8053 34.7568C37.9554 34.0041 37.879 33.2241 37.5858 32.5154C37.2926 31.8067 36.7957 31.2011 36.158 30.7752C35.5202 30.3492 34.7703 30.1221 34.003 30.1226C33.2357 30.123 32.4855 30.351 31.8473 30.7776C31.209 31.2043 30.7114 31.8105 30.4174 32.5195C30.1233 33.2286 30.0461 34.0087 30.1953 34.7612C30.3331 35.4559 30.6583 36.0983 31.1342 36.6195C31.1998 36.6914 31.3117 36.6911 31.3805 36.6223C31.4493 36.5535 31.449 36.4422 31.3837 36.3701C30.9569 35.8983 30.6651 35.3187 30.5408 34.6922C30.4051 34.0081 30.4753 33.2988 30.7427 32.6541C31.01 32.0094 31.4625 31.4583 32.0428 31.0704C32.623 30.6824 33.3051 30.4752 34.0028 30.4748C34.7004 30.4744 35.3823 30.6809 35.9621 31.0681C36.542 31.4554 36.9937 32.006 37.2604 32.6504C37.527 33.2948 37.5964 34.0039 37.4599 34.6883C37.3349 35.315 37.0423 35.895 36.6148 36.3674C36.5496 36.4394 36.5492 36.5506 36.618 36.6193Z" fill="#D9D9D9"/>
<path d="M41.1836 41.1855H41.1875L34.002 68L26.8164 41.1865H26.8125V41.1846L0 34L26.8125 26.8145H26.8164L34.002 0L41.1875 26.8145H41.1836V41.1855ZM68 34L41.1855 41.1855V26.8145L68 34Z" fill="#F38400"/>
</svg>
