<svg width="74" height="80" viewBox="0 0 74 80" fill="none" xmlns="http://www.w3.org/2000/svg">
<path d="M24.5792 27.2507C25.2525 27.8453 26.2804 27.7815 26.8751 27.1082L29.2674 24.3992C29.862 23.7258 30.8899 23.662 31.5632 24.2566L40.2336 31.9134C40.9069 32.508 41.9348 32.4442 42.5295 31.7708L44.8015 29.198C45.3961 28.5246 45.3323 27.4967 44.659 26.9021L41.4068 24.0302C40.7335 23.4356 40.6697 22.4077 41.2643 21.7343L59.3284 1.27885C59.923 0.605503 60.9509 0.541689 61.6242 1.13632L72.8676 11.0652C73.5409 11.6598 73.6047 12.6877 73.0101 13.3611L54.946 33.8165C54.3514 34.4899 53.3235 34.5537 52.6501 33.9591L49.4002 31.0891C48.7269 30.4945 47.699 30.5583 47.1044 31.2316L44.8323 33.8045C44.2377 34.4778 44.3015 35.5057 44.9748 36.1003L53.6445 43.7564C54.3178 44.351 54.3816 45.3789 53.787 46.0523L51.3947 48.7613C50.8001 49.4346 50.8639 50.4625 51.5373 51.0571L52.2072 51.6487C52.7297 52.1102 53.483 52.1596 54.1536 51.9694C55.6691 51.5395 57.3647 51.865 58.6333 52.9851C60.6158 54.7359 60.8042 57.7629 59.0537 59.7455C57.3028 61.7281 54.2752 61.9161 52.2926 60.1653C51.0236 59.0444 50.491 57.4011 50.731 55.8434C50.8372 55.154 50.6951 54.4121 50.1722 53.9504L49.5036 53.36C48.8303 52.7654 47.8024 52.8292 47.2077 53.5025L44.8148 56.2122C44.2202 56.8856 43.1923 56.9494 42.5189 56.3548L33.8493 48.6987C33.176 48.1041 32.1481 48.1679 31.5534 48.8412L29.2801 51.4155C28.6855 52.0889 28.7493 53.1168 29.4226 53.7114L32.6726 56.5814C33.3459 57.176 33.4097 58.2039 32.8151 58.8773L14.751 79.3327C14.1564 80.0061 13.1285 80.0699 12.4552 79.4753L1.21186 69.5464C0.538512 68.9518 0.474697 67.9239 1.06933 67.2505L19.1334 46.795C19.728 46.1217 20.7559 46.0579 21.4293 46.6525L24.6814 49.5244C25.3547 50.1191 26.3826 50.0552 26.9773 49.3819L29.2506 46.8076C29.8452 46.1342 29.7814 45.1064 29.1081 44.5117L20.4377 36.855C19.7644 36.2604 19.7005 35.2325 20.2952 34.5591L22.6881 31.8494C23.2827 31.1761 23.2189 30.1482 22.5456 29.5535L22.3425 29.3742C21.7066 28.8127 21.6463 27.8419 22.2079 27.206C22.7695 26.5701 23.7402 26.5098 24.3761 27.0714L24.5792 27.2507Z" fill="#F38400"/>
</svg>
