<svg width="70" height="78" viewBox="0 0 70 78" fill="none" xmlns="http://www.w3.org/2000/svg">
<path d="M25.5699 30.4151L29.7558 28.0105L30.25 29.3431C30.5457 30.1408 31.2863 30.6562 32.1371 30.6562L37.5418 30.6562C38.0915 30.656 38.5951 30.4408 38.9625 30.0734C39.1637 29.8722 39.3241 29.6252 39.4287 29.3431L39.9228 28.0105L44.1087 30.4152C44.5465 30.6667 45.0857 30.5819 45.4267 30.2409C45.4929 30.1747 45.5516 30.0988 45.6007 30.0139L45.7138 29.8183C47.5801 26.5859 47.2907 21.8826 43.279 18.8713C43.6444 13.25 40.9768 7.62068 35.5282 3.10655C35.1234 2.77119 34.5374 2.77119 34.1326 3.10656C28.6803 7.6231 26.0123 13.2582 26.3826 18.8845C22.3882 21.8963 22.1032 26.5931 23.9651 29.8181L24.078 30.0137C24.3793 30.5359 25.0468 30.7157 25.5699 30.4151ZM28.615 19.4459C28.6179 19.3497 28.6077 19.2528 28.5846 19.1576C28.2831 16.1595 28.9903 13.1605 30.6636 10.3414L38.9964 10.3414C41.8287 15.1134 41.8968 20.4017 38.9873 25.3246L30.6728 25.3245C29.5373 23.4032 28.857 21.4261 28.615 19.4459ZM32.0155 17.4394C30.4552 15.8791 30.4551 13.3404 32.0155 11.78C33.5758 10.2197 36.1145 10.2197 37.6748 11.78C39.2351 13.3403 39.2351 15.879 37.6748 17.4394C36.1145 18.9997 33.5758 18.9997 32.0155 17.4394Z" fill="#F38400"/>
<path d="M39.9981 31.0003C38.3983 31.8003 32.3324 31.5003 29.499 31.0003C28.4987 31.0002 28.2982 38.5003 29.499 38.5003C30.9999 38.5003 31.998 34.0003 32.998 34.0003C33.998 34.0003 33.998 44.0003 35.498 44.0003C36.998 44.0003 37.498 31.0003 37.998 34.5003C38.398 37.3003 39.8313 39.0003 40.498 39.5003C40.9982 36.5003 41.5978 30.2003 39.9981 31.0003Z" fill="#F38400"/>
<path d="M64.25 51.1045C64.8023 51.1045 65.25 51.5522 65.25 52.1045V54.0791C65.2479 55.2475 64.7832 56.3682 63.957 57.1943C63.1309 58.0205 62.0101 58.4852 60.8418 58.4873H40.8073C40.2111 58.4873 39.7452 59.0083 39.9102 59.5812C41.2076 64.0866 47.0015 68.259 47.0723 68.3096C47.2559 68.4472 47.3919 68.6388 47.4619 68.8574C47.5319 69.0762 47.5326 69.3114 47.4629 69.5303C47.3932 69.749 47.2567 69.9402 47.0732 70.0781C46.8895 70.2161 46.6672 70.2939 46.4375 70.2998H22.8125C22.584 70.3008 22.3609 70.2302 22.1748 70.0977C21.9886 69.9651 21.8491 69.7769 21.7754 69.5605C21.7017 69.3442 21.6972 69.1103 21.7637 68.8916C21.8301 68.6729 21.9639 68.4805 22.1455 68.3418C25.2151 65.9618 28.9917 62.0894 29.714 59.4293C29.854 58.9136 29.4134 58.4873 28.8791 58.4873H8.4082C7.23985 58.4852 6.11913 58.0205 5.29297 57.1943C4.4668 56.3682 4.00212 55.2475 4 54.0791V52.1045C4 51.5522 4.44772 51.1045 5 51.1045H64.25ZM31.8691 52.2969C31.582 52.3013 31.3079 52.4184 31.1064 52.623C30.905 52.8277 30.792 53.1034 30.792 53.3906C30.7921 53.6777 30.905 53.9536 31.1064 54.1582C31.3079 54.3627 31.5821 54.4799 31.8691 54.4844H37.0527C37.34 54.4801 37.6148 54.3629 37.8164 54.1582C38.0179 53.9536 38.1308 53.6778 38.1309 53.3906C38.1309 53.1035 38.0178 52.8277 37.8164 52.623C37.6148 52.4184 37.34 52.3011 37.0527 52.2969H31.8691ZM18.5276 15.6992C19.3428 15.6992 19.8288 16.6329 19.4244 17.3408C17.8821 20.0413 17 23.1674 17 26.5C17 36.7173 25.2827 45 35.5 45C45.7173 45 54 36.7173 54 26.5C54 23.1674 53.1179 20.0413 51.5756 17.3408C51.1712 16.6329 51.6572 15.6992 52.4724 15.6992H60.8418C62.0102 15.7013 63.1309 16.167 63.957 16.9932C64.783 17.8193 65.2479 18.9392 65.25 20.1074V47.917C65.25 48.4693 64.8023 48.917 64.25 48.917H5C4.44772 48.917 4 48.4693 4 47.917V20.1074C4.00215 18.9392 4.46698 17.8193 5.29297 16.9932C6.11913 16.167 7.23983 15.7013 8.4082 15.6992H18.5276Z" fill="#F38400"/>
</svg>
