<svg width="67" height="58" viewBox="0 0 67 58" fill="none" xmlns="http://www.w3.org/2000/svg">
<path d="M60 0C63.866 0 67 3.13401 67 7V43C67 46.866 63.866 50 60 50H51.7275L57.4795 56.3271C58.0635 56.9695 57.6074 58 56.7393 58H10.2607C9.3926 58 8.93653 56.9695 9.52051 56.3271L15.2725 50H7C3.13401 50 1.61069e-08 46.866 0 43V7C0 3.13401 3.13401 8.0532e-08 7 0H60Z" fill="#F38400"/>
<rect x="4" y="3" width="59" height="41" rx="7" fill="white"/>
<line x1="9.5" y1="10.5" x2="30.5" y2="10.5" stroke="#F38400" stroke-width="3" stroke-linecap="round"/>
<line x1="9.5" y1="18.5" x2="30.5" y2="18.5" stroke="#F38400" stroke-width="3" stroke-linecap="round"/>
<line x1="9.5" y1="26.5" x2="30.5" y2="26.5" stroke="#F38400" stroke-width="3" stroke-linecap="round"/>
<line x1="9.5" y1="34.5" x2="30.5" y2="34.5" stroke="#F38400" stroke-width="3" stroke-linecap="round"/>
<path d="M47.9246 19.1974L50.2981 15.151L45.9 16.7961L42.7926 13.2942L43.0103 17.9709L38.7119 19.8614L43.2356 21.1037L43.6909 25.7791L46.2728 21.8544L50.8608 22.8642L47.9246 19.1974Z" fill="#F38400"/>
<path d="M57.3553 25.2426L58.8981 22.6299L56.0624 23.7034L54.0412 21.4277L54.1813 24.4681L51.4011 25.6778L54.3292 26.4729L54.6222 29.4988L56.2911 26.9619L59.2568 27.6146L57.3553 25.2426Z" fill="#F38400"/>
</svg>
