<svg width="278" height="278" viewBox="0 0 278 278" fill="none" xmlns="http://www.w3.org/2000/svg">
<path d="M0.350586 0H277.639V277.288H200.455C89.9404 277.288 0.350586 187.698 0.350586 77.1833V0Z" fill="#111111" fill-opacity="0.4"/>
<path d="M89.4823 122.739C89.3553 121.666 88.8401 120.834 87.9367 120.241C87.0333 119.648 85.9252 119.351 84.6125 119.351C83.6527 119.351 82.8128 119.507 82.0929 119.817C81.3801 120.128 80.8226 120.555 80.4203 121.098C80.025 121.642 79.8274 122.259 79.8274 122.951C79.8274 123.53 79.9651 124.027 80.2403 124.444C80.5226 124.853 80.8826 125.195 81.3201 125.47C81.7577 125.739 82.2164 125.961 82.6964 126.137C83.1763 126.307 83.6174 126.444 84.0197 126.55L86.2217 127.143C86.7863 127.291 87.4144 127.496 88.1061 127.757C88.8048 128.018 89.4717 128.375 90.1069 128.826C90.7491 129.271 91.2785 129.843 91.6949 130.541C92.1113 131.24 92.3195 132.098 92.3195 133.114C92.3195 134.285 92.0125 135.344 91.3985 136.29C90.7915 137.236 89.9022 137.987 88.7307 138.545C87.5661 139.102 86.1511 139.381 84.4855 139.381C82.9328 139.381 81.5883 139.131 80.452 138.629C79.3228 138.128 78.4335 137.43 77.7842 136.533C77.142 135.637 76.7785 134.596 76.6938 133.41H79.404C79.4746 134.229 79.7498 134.907 80.2297 135.443C80.7167 135.972 81.3307 136.367 82.0718 136.629C82.8199 136.883 83.6245 137.01 84.4855 137.01C85.4877 137.01 86.3875 136.847 87.185 136.523C87.9826 136.191 88.6142 135.732 89.08 135.147C89.5458 134.554 89.7787 133.862 89.7787 133.072C89.7787 132.352 89.5776 131.766 89.1753 131.314C88.773 130.863 88.2437 130.496 87.5873 130.213C86.931 129.931 86.2217 129.684 85.4594 129.472L82.7916 128.71C81.0978 128.223 79.7569 127.528 78.7688 126.624C77.7807 125.721 77.2867 124.539 77.2867 123.078C77.2867 121.864 77.6149 120.805 78.2712 119.902C78.9346 118.992 79.8239 118.286 80.939 117.785C82.0612 117.277 83.3139 117.022 84.6972 117.022C86.0946 117.022 87.3368 117.273 88.4237 117.774C89.5105 118.268 90.3716 118.946 91.0068 119.807C91.649 120.668 91.9878 121.645 92.0231 122.739H89.4823ZM98.7958 117.319V139H96.2973V117.319H98.7958ZM108.157 139.381C107.126 139.381 106.191 139.187 105.351 138.799C104.512 138.404 103.845 137.835 103.351 137.094C102.857 136.346 102.61 135.443 102.61 134.384C102.61 133.453 102.793 132.698 103.16 132.119C103.527 131.533 104.018 131.074 104.632 130.743C105.246 130.411 105.923 130.164 106.664 130.001C107.412 129.832 108.164 129.698 108.919 129.599C109.907 129.472 110.708 129.377 111.322 129.313C111.943 129.243 112.395 129.126 112.677 128.964C112.967 128.802 113.111 128.519 113.111 128.117V128.032C113.111 126.988 112.825 126.176 112.254 125.598C111.689 125.019 110.832 124.729 109.681 124.729C108.489 124.729 107.553 124.991 106.876 125.513C106.198 126.035 105.722 126.593 105.447 127.185L103.075 126.339C103.499 125.351 104.063 124.581 104.769 124.031C105.482 123.473 106.258 123.085 107.098 122.866C107.945 122.64 108.778 122.527 109.597 122.527C110.119 122.527 110.719 122.591 111.396 122.718C112.081 122.838 112.741 123.089 113.376 123.47C114.018 123.851 114.551 124.426 114.975 125.195C115.398 125.965 115.61 126.995 115.61 128.286V139H113.111V136.798H112.984C112.815 137.151 112.533 137.528 112.137 137.931C111.742 138.333 111.216 138.675 110.56 138.958C109.904 139.24 109.103 139.381 108.157 139.381ZM108.538 137.137C109.526 137.137 110.359 136.943 111.036 136.555C111.721 136.166 112.236 135.665 112.582 135.051C112.935 134.437 113.111 133.791 113.111 133.114V130.827C113.005 130.954 112.773 131.071 112.413 131.177C112.06 131.275 111.65 131.364 111.185 131.441C110.726 131.512 110.278 131.575 109.84 131.632C109.41 131.681 109.06 131.724 108.792 131.759C108.143 131.844 107.536 131.981 106.971 132.172C106.414 132.355 105.962 132.634 105.616 133.008C105.277 133.375 105.108 133.876 105.108 134.511C105.108 135.379 105.429 136.036 106.071 136.48C106.721 136.918 107.543 137.137 108.538 137.137ZM132.884 122.739L126.871 139H124.33L118.317 122.739H121.027L125.516 135.697H125.685L130.174 122.739H132.884ZM142.417 139.339C140.851 139.339 139.499 138.993 138.363 138.301C137.233 137.603 136.362 136.629 135.748 135.379C135.141 134.123 134.837 132.662 134.837 130.997C134.837 129.331 135.141 127.863 135.748 126.593C136.362 125.315 137.216 124.32 138.31 123.607C139.411 122.887 140.695 122.527 142.163 122.527C143.01 122.527 143.847 122.669 144.672 122.951C145.498 123.233 146.25 123.692 146.927 124.327C147.605 124.955 148.145 125.788 148.547 126.826C148.949 127.863 149.15 129.14 149.15 130.658V131.717H136.616V129.557H146.61C146.61 128.639 146.426 127.821 146.059 127.101C145.699 126.381 145.184 125.813 144.513 125.396C143.85 124.98 143.067 124.772 142.163 124.772C141.168 124.772 140.307 125.019 139.58 125.513C138.86 126 138.306 126.635 137.918 127.418C137.53 128.202 137.336 129.042 137.336 129.938V131.378C137.336 132.606 137.548 133.647 137.971 134.501C138.402 135.348 138.998 135.993 139.76 136.438C140.522 136.876 141.408 137.094 142.417 137.094C143.074 137.094 143.667 137.003 144.196 136.819C144.732 136.629 145.195 136.346 145.583 135.972C145.971 135.591 146.271 135.118 146.483 134.554L148.896 135.231C148.642 136.05 148.215 136.77 147.615 137.391C147.015 138.005 146.274 138.485 145.392 138.831C144.51 139.169 143.518 139.339 142.417 139.339ZM152.951 139V122.739H155.365V125.195H155.534C155.83 124.391 156.367 123.738 157.143 123.237C157.919 122.736 158.795 122.485 159.769 122.485C159.952 122.485 160.181 122.489 160.457 122.496C160.732 122.503 160.94 122.513 161.081 122.527V125.068C160.997 125.047 160.803 125.015 160.499 124.973C160.203 124.924 159.889 124.899 159.557 124.899C158.766 124.899 158.061 125.065 157.44 125.396C156.826 125.721 156.339 126.173 155.979 126.751C155.626 127.323 155.449 127.976 155.449 128.71V139H152.951ZM166.147 145.098C165.723 145.098 165.346 145.063 165.014 144.992C164.682 144.928 164.453 144.865 164.326 144.801L164.961 142.599C165.568 142.755 166.105 142.811 166.57 142.769C167.036 142.726 167.449 142.518 167.809 142.144C168.176 141.777 168.511 141.181 168.815 140.355L169.281 139.085L163.267 122.739H165.978L170.466 135.697H170.636L175.124 122.739H177.834L170.932 141.371C170.621 142.211 170.237 142.906 169.778 143.457C169.319 144.014 168.786 144.427 168.18 144.696C167.58 144.964 166.902 145.098 166.147 145.098ZM77.6254 175V153.319H90.6256V155.648H80.2509V162.974H89.6517V165.303H80.2509V175H77.6254ZM100.196 175.339C98.7278 175.339 97.4398 174.989 96.3318 174.291C95.2308 173.592 94.3697 172.615 93.7487 171.358C93.1346 170.102 92.8276 168.634 92.8276 166.954C92.8276 165.26 93.1346 163.782 93.7487 162.519C94.3697 161.255 95.2308 160.274 96.3318 159.576C97.4398 158.877 98.7278 158.527 100.196 158.527C101.664 158.527 102.948 158.877 104.049 159.576C105.157 160.274 106.018 161.255 106.632 162.519C107.253 163.782 107.564 165.26 107.564 166.954C107.564 168.634 107.253 170.102 106.632 171.358C106.018 172.615 105.157 173.592 104.049 174.291C102.948 174.989 101.664 175.339 100.196 175.339ZM100.196 173.094C101.311 173.094 102.228 172.809 102.948 172.237C103.668 171.665 104.201 170.914 104.547 169.982C104.893 169.05 105.066 168.041 105.066 166.954C105.066 165.867 104.893 164.855 104.547 163.916C104.201 162.977 103.668 162.219 102.948 161.64C102.228 161.061 101.311 160.772 100.196 160.772C99.0807 160.772 98.1632 161.061 97.4433 161.64C96.7235 162.219 96.1906 162.977 95.8448 163.916C95.4989 164.855 95.326 165.867 95.326 166.954C95.326 168.041 95.4989 169.05 95.8448 169.982C96.1906 170.914 96.7235 171.665 97.4433 172.237C98.1632 172.809 99.0807 173.094 100.196 173.094ZM117.984 175.339C116.516 175.339 115.228 174.989 114.12 174.291C113.019 173.592 112.158 172.615 111.537 171.358C110.923 170.102 110.616 168.634 110.616 166.954C110.616 165.26 110.923 163.782 111.537 162.519C112.158 161.255 113.019 160.274 114.12 159.576C115.228 158.877 116.516 158.527 117.984 158.527C119.452 158.527 120.736 158.877 121.837 159.576C122.945 160.274 123.806 161.255 124.42 162.519C125.041 163.782 125.352 165.26 125.352 166.954C125.352 168.634 125.041 170.102 124.42 171.358C123.806 172.615 122.945 173.592 121.837 174.291C120.736 174.989 119.452 175.339 117.984 175.339ZM117.984 173.094C119.099 173.094 120.016 172.809 120.736 172.237C121.456 171.665 121.989 170.914 122.335 169.982C122.681 169.05 122.854 168.041 122.854 166.954C122.854 165.867 122.681 164.855 122.335 163.916C121.989 162.977 121.456 162.219 120.736 161.64C120.016 161.061 119.099 160.772 117.984 160.772C116.869 160.772 115.951 161.061 115.231 161.64C114.511 162.219 113.979 162.977 113.633 163.916C113.287 164.855 113.114 165.867 113.114 166.954C113.114 168.041 113.287 169.05 113.633 169.982C113.979 170.914 114.511 171.665 115.231 172.237C115.951 172.809 116.869 173.094 117.984 173.094ZM136.237 158.739V160.856H127.811V158.739H136.237ZM130.267 154.843H132.765V170.342C132.765 171.048 132.867 171.577 133.072 171.93C133.284 172.276 133.552 172.509 133.877 172.629C134.208 172.742 134.558 172.798 134.925 172.798C135.2 172.798 135.426 172.784 135.602 172.756C135.779 172.72 135.92 172.692 136.026 172.671L136.534 174.915C136.365 174.979 136.128 175.042 135.825 175.106C135.521 175.176 135.136 175.212 134.671 175.212C133.965 175.212 133.273 175.06 132.596 174.757C131.925 174.453 131.368 173.991 130.923 173.37C130.485 172.749 130.267 171.965 130.267 171.019V154.843ZM139.996 181.098V158.739H142.409V161.322H142.706C142.889 161.04 143.143 160.68 143.468 160.242C143.8 159.798 144.273 159.403 144.887 159.057C145.508 158.704 146.348 158.527 147.406 158.527C148.775 158.527 149.982 158.87 151.027 159.554C152.071 160.239 152.886 161.209 153.472 162.466C154.058 163.722 154.351 165.204 154.351 166.912C154.351 168.634 154.058 170.127 153.472 171.39C152.886 172.646 152.075 173.62 151.037 174.312C150 174.996 148.804 175.339 147.449 175.339C146.404 175.339 145.568 175.166 144.94 174.82C144.311 174.467 143.828 174.068 143.489 173.624C143.15 173.172 142.889 172.798 142.706 172.502H142.494V181.098H139.996ZM142.452 166.87C142.452 168.098 142.632 169.181 142.992 170.12C143.352 171.051 143.877 171.782 144.569 172.311C145.261 172.833 146.108 173.094 147.11 173.094C148.154 173.094 149.026 172.819 149.725 172.269C150.43 171.711 150.96 170.963 151.313 170.024C151.673 169.079 151.853 168.027 151.853 166.87C151.853 165.726 151.676 164.696 151.323 163.778C150.977 162.854 150.452 162.123 149.746 161.587C149.047 161.043 148.168 160.772 147.11 160.772C146.093 160.772 145.24 161.029 144.548 161.545C143.856 162.053 143.334 162.766 142.981 163.683C142.628 164.593 142.452 165.656 142.452 166.87ZM158.162 175V158.739H160.576V161.195H160.745C161.042 160.391 161.578 159.738 162.354 159.237C163.131 158.736 164.006 158.485 164.98 158.485C165.163 158.485 165.393 158.489 165.668 158.496C165.943 158.503 166.151 158.513 166.292 158.527V161.068C166.208 161.047 166.014 161.015 165.71 160.973C165.414 160.924 165.1 160.899 164.768 160.899C163.978 160.899 163.272 161.065 162.651 161.396C162.037 161.721 161.55 162.173 161.19 162.751C160.837 163.323 160.66 163.976 160.66 164.71V175H158.162ZM169.254 175V158.739H171.752V175H169.254ZM170.524 156.029C170.037 156.029 169.618 155.863 169.265 155.531C168.919 155.2 168.746 154.801 168.746 154.335C168.746 153.869 168.919 153.471 169.265 153.139C169.618 152.807 170.037 152.641 170.524 152.641C171.011 152.641 171.428 152.807 171.774 153.139C172.127 153.471 172.303 153.869 172.303 154.335C172.303 154.801 172.127 155.2 171.774 155.531C171.428 155.863 171.011 156.029 170.524 156.029ZM178.827 165.218V175H176.328V158.739H178.742V161.28H178.954C179.335 160.454 179.914 159.791 180.69 159.29C181.466 158.782 182.469 158.527 183.697 158.527C184.798 158.527 185.761 158.753 186.587 159.205C187.413 159.65 188.055 160.327 188.514 161.238C188.972 162.141 189.202 163.284 189.202 164.668V175H186.703V164.837C186.703 163.56 186.372 162.564 185.708 161.852C185.045 161.132 184.134 160.772 182.977 160.772C182.179 160.772 181.466 160.945 180.838 161.291C180.217 161.636 179.727 162.141 179.367 162.804C179.007 163.468 178.827 164.272 178.827 165.218ZM200.839 158.739V160.856H192.412V158.739H200.839ZM194.868 154.843H197.366V170.342C197.366 171.048 197.469 171.577 197.673 171.93C197.885 172.276 198.153 172.509 198.478 172.629C198.81 172.742 199.159 172.798 199.526 172.798C199.801 172.798 200.027 172.784 200.204 172.756C200.38 172.72 200.521 172.692 200.627 172.671L201.135 174.915C200.966 174.979 200.729 175.042 200.426 175.106C200.122 175.176 199.738 175.212 199.272 175.212C198.566 175.212 197.875 175.06 197.197 174.757C196.527 174.453 195.969 173.991 195.524 173.37C195.087 172.749 194.868 171.965 194.868 171.019V154.843Z" fill="#0E0E10"/>
</svg>
