<svg width="278" height="278" viewBox="0 0 278 278" fill="none" xmlns="http://www.w3.org/2000/svg">
<path d="M0.350586 0H277.639V277.288H200.455C89.9404 277.288 0.350586 187.698 0.350586 77.1833V0Z" fill="#111111" fill-opacity="0.4"/>
<path d="M83.089 161.988C83.0403 161.576 82.8427 161.257 82.4962 161.029C82.1497 160.802 81.7247 160.688 81.2212 160.688C80.853 160.688 80.5309 160.748 80.2548 160.867C79.9813 160.986 79.7675 161.15 79.6132 161.358C79.4616 161.567 79.3858 161.803 79.3858 162.069C79.3858 162.291 79.4386 162.482 79.5442 162.641C79.6524 162.798 79.7905 162.93 79.9583 163.035C80.1262 163.138 80.3021 163.223 80.4862 163.291C80.6703 163.356 80.8395 163.409 80.9938 163.449L81.8384 163.677C82.0549 163.734 82.2959 163.812 82.5612 163.912C82.8292 164.012 83.085 164.149 83.3286 164.322C83.5749 164.493 83.778 164.712 83.9377 164.98C84.0974 165.248 84.1773 165.577 84.1773 165.967C84.1773 166.416 84.0595 166.822 83.824 167.185C83.5912 167.548 83.2501 167.836 82.8007 168.05C82.3541 168.264 81.8113 168.371 81.1724 168.371C80.5769 168.371 80.0612 168.275 79.6254 168.082C79.1922 167.89 78.8512 167.622 78.6021 167.278C78.3558 166.935 78.2164 166.535 78.1839 166.081H79.2234C79.2504 166.395 79.356 166.655 79.5401 166.86C79.7269 167.063 79.9624 167.215 80.2466 167.315C80.5336 167.412 80.8422 167.461 81.1724 167.461C81.5568 167.461 81.902 167.399 82.2079 167.274C82.5138 167.147 82.7561 166.971 82.9347 166.747C83.1134 166.519 83.2027 166.254 83.2027 165.951C83.2027 165.675 83.1256 165.45 82.9713 165.277C82.817 165.103 82.6139 164.963 82.3622 164.854C82.1104 164.746 81.8384 164.651 81.546 164.57L80.5228 164.278C79.8731 164.091 79.3587 163.824 78.9797 163.478C78.6008 163.131 78.4113 162.678 78.4113 162.118C78.4113 161.652 78.5371 161.246 78.7889 160.899C79.0434 160.55 79.3844 160.279 79.8122 160.087C80.2426 159.892 80.7231 159.795 81.2537 159.795C81.7897 159.795 82.2661 159.891 82.683 160.083C83.0999 160.273 83.4301 160.533 83.6738 160.863C83.9201 161.193 84.05 161.568 84.0636 161.988H83.089ZM86.6613 159.909V168.225H85.703V159.909H86.6613ZM90.2519 168.371C89.8566 168.371 89.498 168.296 89.1758 168.147C88.8537 167.996 88.5979 167.778 88.4084 167.494C88.2189 167.207 88.1241 166.86 88.1241 166.454C88.1241 166.097 88.1945 165.807 88.3353 165.585C88.4761 165.361 88.6642 165.185 88.8997 165.057C89.1352 164.93 89.3951 164.835 89.6793 164.773C89.9663 164.708 90.2546 164.657 90.5442 164.619C90.9232 164.57 91.2305 164.534 91.466 164.509C91.7042 164.482 91.8775 164.437 91.9857 164.375C92.0967 164.313 92.1522 164.205 92.1522 164.05V164.018C92.1522 163.617 92.0426 163.306 91.8233 163.084C91.6067 162.862 91.2778 162.751 90.8366 162.751C90.3791 162.751 90.0204 162.851 89.7605 163.051C89.5007 163.252 89.3179 163.466 89.2124 163.693L88.3028 163.368C88.4652 162.989 88.6818 162.694 88.9525 162.483C89.2259 162.269 89.5237 162.12 89.8458 162.036C90.1707 161.95 90.4901 161.906 90.8041 161.906C91.0044 161.906 91.2345 161.931 91.4944 161.979C91.757 162.025 92.0101 162.122 92.2537 162.268C92.5001 162.414 92.7045 162.635 92.8669 162.93C93.0293 163.225 93.1105 163.62 93.1105 164.115V168.225H92.1522V167.38H92.1035C92.0385 167.515 91.9302 167.66 91.7786 167.814C91.6271 167.969 91.4254 168.1 91.1736 168.208C90.9219 168.317 90.6146 168.371 90.2519 168.371ZM90.3981 167.51C90.777 167.51 91.0965 167.436 91.3563 167.287C91.6189 167.138 91.8165 166.946 91.9492 166.71C92.0845 166.475 92.1522 166.227 92.1522 165.967V165.09C92.1116 165.139 92.0223 165.183 91.8842 165.224C91.7489 165.262 91.5919 165.296 91.4132 165.325C91.2372 165.352 91.0653 165.377 90.8975 165.398C90.7324 165.417 90.5984 165.434 90.4955 165.447C90.2465 165.48 90.0137 165.532 89.7971 165.606C89.5832 165.676 89.41 165.783 89.2773 165.926C89.1474 166.067 89.0824 166.259 89.0824 166.503C89.0824 166.836 89.2056 167.088 89.4519 167.258C89.701 167.426 90.0164 167.51 90.3981 167.51ZM99.7363 161.988L97.4299 168.225H96.4554L94.149 161.988H95.1885L96.9102 166.958H96.9752L98.6968 161.988H99.7363ZM103.393 168.355C102.792 168.355 102.274 168.222 101.838 167.957C101.405 167.689 101.07 167.315 100.835 166.836C100.602 166.354 100.486 165.794 100.486 165.155C100.486 164.516 100.602 163.953 100.835 163.466C101.07 162.976 101.398 162.594 101.817 162.321C102.24 162.044 102.732 161.906 103.295 161.906C103.62 161.906 103.941 161.961 104.258 162.069C104.575 162.177 104.863 162.353 105.123 162.597C105.383 162.838 105.59 163.157 105.744 163.555C105.898 163.953 105.975 164.443 105.975 165.025V165.431H101.168V164.603H105.001C105.001 164.251 104.93 163.937 104.79 163.661C104.652 163.384 104.454 163.166 104.197 163.007C103.942 162.847 103.642 162.767 103.295 162.767C102.914 162.767 102.583 162.862 102.305 163.051C102.029 163.238 101.816 163.482 101.667 163.782C101.518 164.083 101.444 164.405 101.444 164.749V165.301C101.444 165.772 101.525 166.171 101.687 166.499C101.853 166.824 102.081 167.071 102.374 167.242C102.666 167.41 103.006 167.494 103.393 167.494C103.645 167.494 103.872 167.459 104.075 167.388C104.281 167.315 104.458 167.207 104.607 167.063C104.756 166.917 104.871 166.736 104.952 166.519L105.878 166.779C105.78 167.093 105.617 167.369 105.387 167.607C105.157 167.843 104.872 168.027 104.534 168.16C104.196 168.29 103.815 168.355 103.393 168.355ZM107.433 168.225V161.988H108.359V162.93H108.424C108.538 162.621 108.743 162.371 109.041 162.178C109.339 161.986 109.675 161.89 110.048 161.89C110.119 161.89 110.207 161.891 110.312 161.894C110.418 161.897 110.498 161.901 110.552 161.906V162.881C110.519 162.873 110.445 162.861 110.328 162.844C110.215 162.825 110.094 162.816 109.967 162.816C109.664 162.816 109.393 162.88 109.155 163.007C108.919 163.131 108.733 163.305 108.594 163.527C108.459 163.746 108.391 163.996 108.391 164.278V168.225H107.433ZM112.495 170.563C112.332 170.563 112.187 170.55 112.06 170.523C111.933 170.499 111.845 170.474 111.796 170.45L112.04 169.605C112.273 169.665 112.478 169.686 112.657 169.67C112.836 169.654 112.994 169.574 113.132 169.431C113.273 169.29 113.402 169.061 113.518 168.744L113.697 168.257L111.39 161.988H112.43L114.151 166.958H114.216L115.938 161.988H116.978L114.33 169.134C114.211 169.456 114.063 169.723 113.887 169.934C113.711 170.148 113.507 170.306 113.274 170.409C113.044 170.512 112.784 170.563 112.495 170.563ZM118.372 168.225V159.909H123.359V160.802H119.379V163.612H122.985V164.505H119.379V168.225H118.372ZM127.029 168.355C126.466 168.355 125.972 168.221 125.547 167.953C125.125 167.685 124.795 167.31 124.557 166.828C124.321 166.346 124.203 165.783 124.203 165.139C124.203 164.489 124.321 163.922 124.557 163.437C124.795 162.953 125.125 162.576 125.547 162.308C125.972 162.04 126.466 161.906 127.029 161.906C127.593 161.906 128.085 162.04 128.507 162.308C128.932 162.576 129.263 162.953 129.498 163.437C129.736 163.922 129.856 164.489 129.856 165.139C129.856 165.783 129.736 166.346 129.498 166.828C129.263 167.31 128.932 167.685 128.507 167.953C128.085 168.221 127.593 168.355 127.029 168.355ZM127.029 167.494C127.457 167.494 127.809 167.384 128.085 167.165C128.361 166.946 128.566 166.657 128.698 166.3C128.831 165.943 128.897 165.555 128.897 165.139C128.897 164.722 128.831 164.333 128.698 163.973C128.566 163.613 128.361 163.322 128.085 163.1C127.809 162.878 127.457 162.767 127.029 162.767C126.602 162.767 126.25 162.878 125.974 163.1C125.698 163.322 125.493 163.613 125.361 163.973C125.228 164.333 125.162 164.722 125.162 165.139C125.162 165.555 125.228 165.943 125.361 166.3C125.493 166.657 125.698 166.946 125.974 167.165C126.25 167.384 126.602 167.494 127.029 167.494ZM133.852 168.355C133.289 168.355 132.795 168.221 132.37 167.953C131.948 167.685 131.618 167.31 131.379 166.828C131.144 166.346 131.026 165.783 131.026 165.139C131.026 164.489 131.144 163.922 131.379 163.437C131.618 162.953 131.948 162.576 132.37 162.308C132.795 162.04 133.289 161.906 133.852 161.906C134.415 161.906 134.908 162.04 135.33 162.308C135.755 162.576 136.086 162.953 136.321 163.437C136.559 163.922 136.678 164.489 136.678 165.139C136.678 165.783 136.559 166.346 136.321 166.828C136.086 167.31 135.755 167.685 135.33 167.953C134.908 168.221 134.415 168.355 133.852 168.355ZM133.852 167.494C134.28 167.494 134.632 167.384 134.908 167.165C135.184 166.946 135.388 166.657 135.521 166.3C135.654 165.943 135.72 165.555 135.72 165.139C135.72 164.722 135.654 164.333 135.521 163.973C135.388 163.613 135.184 163.322 134.908 163.1C134.632 162.878 134.28 162.767 133.852 162.767C133.424 162.767 133.073 162.878 132.796 163.1C132.52 163.322 132.316 163.613 132.183 163.973C132.051 164.333 131.984 164.722 131.984 165.139C131.984 165.555 132.051 165.943 132.183 166.3C132.316 166.657 132.52 166.946 132.796 167.165C133.073 167.384 133.424 167.494 133.852 167.494ZM140.854 161.988V162.8H137.621V161.988H140.854ZM138.563 160.493H139.522V166.438C139.522 166.709 139.561 166.912 139.64 167.047C139.721 167.18 139.824 167.269 139.948 167.315C140.075 167.358 140.209 167.38 140.35 167.38C140.456 167.38 140.542 167.375 140.61 167.364C140.678 167.35 140.732 167.339 140.772 167.331L140.967 168.192C140.902 168.216 140.812 168.241 140.695 168.265C140.579 168.292 140.431 168.306 140.253 168.306C139.982 168.306 139.717 168.248 139.457 168.131C139.2 168.015 138.986 167.838 138.815 167.599C138.647 167.361 138.563 167.061 138.563 166.698V160.493ZM142.295 170.563V161.988H143.221V162.978H143.335C143.405 162.87 143.502 162.732 143.627 162.564C143.754 162.394 143.936 162.242 144.171 162.109C144.409 161.974 144.731 161.906 145.138 161.906C145.663 161.906 146.126 162.038 146.526 162.3C146.927 162.563 147.24 162.935 147.464 163.417C147.689 163.899 147.801 164.467 147.801 165.122C147.801 165.783 147.689 166.355 147.464 166.84C147.24 167.322 146.928 167.695 146.53 167.961C146.132 168.223 145.674 168.355 145.154 168.355C144.753 168.355 144.432 168.288 144.191 168.156C143.95 168.02 143.765 167.867 143.635 167.697C143.505 167.523 143.405 167.38 143.335 167.266H143.253V170.563H142.295ZM143.237 165.106C143.237 165.577 143.306 165.993 143.444 166.353C143.582 166.71 143.784 166.99 144.049 167.193C144.315 167.394 144.639 167.494 145.024 167.494C145.424 167.494 145.759 167.388 146.027 167.177C146.298 166.963 146.501 166.676 146.636 166.316C146.774 165.953 146.843 165.55 146.843 165.106C146.843 164.668 146.775 164.272 146.64 163.92C146.507 163.566 146.306 163.286 146.035 163.08C145.767 162.871 145.43 162.767 145.024 162.767C144.634 162.767 144.306 162.866 144.041 163.064C143.776 163.259 143.576 163.532 143.44 163.884C143.305 164.233 143.237 164.64 143.237 165.106ZM149.263 168.225V161.988H150.189V162.93H150.254C150.368 162.621 150.573 162.371 150.871 162.178C151.169 161.986 151.505 161.89 151.878 161.89C151.948 161.89 152.036 161.891 152.142 161.894C152.248 161.897 152.327 161.901 152.382 161.906V162.881C152.349 162.873 152.275 162.861 152.158 162.844C152.045 162.825 151.924 162.816 151.797 162.816C151.494 162.816 151.223 162.88 150.985 163.007C150.749 163.131 150.562 163.305 150.424 163.527C150.289 163.746 150.221 163.996 150.221 164.278V168.225H149.263ZM153.518 168.225V161.988H154.476V168.225H153.518ZM154.005 160.948C153.818 160.948 153.657 160.884 153.522 160.757C153.389 160.63 153.323 160.477 153.323 160.298C153.323 160.12 153.389 159.967 153.522 159.84C153.657 159.712 153.818 159.649 154.005 159.649C154.192 159.649 154.351 159.712 154.484 159.84C154.619 159.967 154.687 160.12 154.687 160.298C154.687 160.477 154.619 160.63 154.484 160.757C154.351 160.884 154.192 160.948 154.005 160.948ZM157.189 164.473V168.225H156.231V161.988H157.157V162.962H157.238C157.384 162.645 157.606 162.391 157.904 162.199C158.202 162.004 158.586 161.906 159.057 161.906C159.479 161.906 159.849 161.993 160.166 162.166C160.482 162.337 160.729 162.597 160.905 162.946C161.081 163.292 161.169 163.731 161.169 164.261V168.225H160.21V164.326C160.21 163.836 160.083 163.455 159.829 163.181C159.574 162.905 159.225 162.767 158.781 162.767C158.475 162.767 158.202 162.834 157.961 162.966C157.723 163.099 157.534 163.292 157.396 163.547C157.258 163.801 157.189 164.11 157.189 164.473ZM165.632 161.988V162.8H162.4V161.988H165.632ZM163.342 160.493H164.3V166.438C164.3 166.709 164.34 166.912 164.418 167.047C164.499 167.18 164.602 167.269 164.727 167.315C164.854 167.358 164.988 167.38 165.129 167.38C165.234 167.38 165.321 167.375 165.389 167.364C165.456 167.35 165.51 167.339 165.551 167.331L165.746 168.192C165.681 168.216 165.59 168.241 165.474 168.265C165.357 168.292 165.21 168.306 165.031 168.306C164.761 168.306 164.495 168.248 164.235 168.131C163.978 168.015 163.764 167.838 163.594 167.599C163.426 167.361 163.342 167.061 163.342 166.698V160.493Z" fill="#0E0E10"/>
</svg>
