<svg width="66" height="66" viewBox="0 0 66 66" fill="none" xmlns="http://www.w3.org/2000/svg">
<path d="M33.0001 22.0625C30.8369 22.0625 28.7222 22.704 26.9236 23.9058C25.1249 25.1076 23.723 26.8158 22.8952 28.8144C22.0674 30.813 21.8508 33.0121 22.2728 35.1338C22.6948 37.2555 23.7365 39.2043 25.2661 40.734C26.7958 42.2636 28.7447 43.3053 30.8663 43.7273C32.988 44.1494 35.1872 43.9328 37.1857 43.1049C39.1843 42.2771 40.8925 40.8752 42.0943 39.0765C43.2962 37.2779 43.9376 35.1632 43.9376 33C43.9344 30.1002 42.7811 27.32 40.7306 25.2695C38.6801 23.219 35.9 22.0657 33.0001 22.0625ZM35.1876 38.4688H33.0001V35.1875H28.6251V38.4688H26.4376V34.0938C26.4377 33.9544 26.464 33.8164 26.5153 33.6869L28.7028 28.2181C28.7841 28.0152 28.9244 27.8413 29.1055 27.7189C29.2866 27.5964 29.5003 27.5311 29.7189 27.5312H31.9064C32.125 27.5311 32.3386 27.5964 32.5198 27.7189C32.7009 27.8413 32.8411 28.0152 32.9225 28.2181L35.11 33.6869C35.1612 33.8164 35.1876 33.9544 35.1876 34.0938V38.4688ZM38.4689 38.4688H36.2814V27.5312H38.4689V38.4688Z" fill="#F38400"/>
<path d="M30.4591 29.7188L29.1466 33H32.4782L31.1657 29.7188H30.4591Z" fill="#F38400"/>
<path d="M59.4513 22.0624C59.7093 22.7922 60.217 23.4072 60.8846 23.7989C61.5523 24.1905 62.3369 24.3336 63.0998 24.2027C63.8626 24.0718 64.5547 23.6754 65.0536 23.0836C65.5525 22.4918 65.8261 21.7427 65.8261 20.9687C65.8261 20.1946 65.5525 19.4455 65.0536 18.8537C64.5547 18.2619 63.8626 17.8656 63.0998 17.7347C62.3369 17.6038 61.5523 17.7468 60.8846 18.1384C60.217 18.5301 59.7093 19.1452 59.4513 19.8749H55.9688C55.6787 19.875 55.4006 19.9903 55.1955 20.1954L49.9641 25.4268C49.5367 24.4561 49.0269 23.5237 48.4405 22.6399C48.3139 22.4515 48.249 22.2284 48.2548 22.0014C48.2607 21.7745 48.3371 21.555 48.4733 21.3734L50.1139 19.1859L49.2389 18.3109L59.2282 8.31836C59.8955 8.71973 60.6588 8.9336 61.4375 8.93742C62.3028 8.93742 63.1487 8.68083 63.8682 8.2001C64.5876 7.71937 65.1484 7.03609 65.4795 6.23666C65.8107 5.43723 65.8973 4.55757 65.7285 3.7089C65.5597 2.86023 65.143 2.08068 64.5311 1.46883C63.9193 0.856973 63.1397 0.440295 62.2911 0.271485C61.4424 0.102674 60.5627 0.189314 59.7633 0.520447C58.9639 0.851581 58.2806 1.41234 57.7999 2.1318C57.3191 2.85127 57.0625 3.69713 57.0625 4.56242C57.0664 5.34116 57.2802 6.10444 57.6816 6.7718L47.6946 16.7588L46.8196 15.8838L44.6266 17.5245C44.445 17.6607 44.2255 17.737 43.9986 17.7429C43.7716 17.7488 43.5485 17.6839 43.36 17.5573C42.4773 16.9698 41.5452 16.46 40.5743 16.0337L45.8057 10.8023C46.0099 10.5976 46.1247 10.3203 46.125 10.0312V6.54867C46.8548 6.29066 47.4699 5.78297 47.8615 5.11533C48.2532 4.4477 48.3962 3.6631 48.2653 2.90021C48.1344 2.13733 47.738 1.44527 47.1462 0.946368C46.5544 0.447462 45.8053 0.173828 45.0313 0.173828C44.2573 0.173828 43.5081 0.447462 42.9164 0.946368C42.3246 1.44527 41.9282 2.13733 41.7973 2.90021C41.6664 3.6631 41.8094 4.4477 42.2011 5.11533C42.5927 5.78297 43.2078 6.29066 43.9375 6.54867V9.57836L38.3266 15.1893C37.7579 15.0209 37.1814 14.8754 36.593 14.7605C36.3698 14.7174 36.1655 14.6057 36.0087 14.441C35.8519 14.2763 35.7503 14.0669 35.718 13.8418L35.333 11.1249H30.6671L30.2788 13.8418C30.2465 14.0669 30.1449 14.2763 29.9881 14.441C29.8313 14.6057 29.627 14.7174 29.4038 14.7605C28.8154 14.8754 28.2389 15.0209 27.6702 15.1893L22.0625 9.57836V6.54867C22.7923 6.29066 23.4074 5.78297 23.799 5.11533C24.1907 4.4477 24.3337 3.6631 24.2028 2.90021C24.0719 2.13733 23.6755 1.44527 23.0837 0.946368C22.4919 0.447462 21.7428 0.173828 20.9688 0.173828C20.1948 0.173828 19.4456 0.447462 18.8539 0.946368C18.2621 1.44527 17.8657 2.13733 17.7348 2.90021C17.6039 3.6631 17.7469 4.4477 18.1386 5.11533C18.5302 5.78297 19.1453 6.29066 19.875 6.54867V10.0312C19.8751 10.3212 19.9904 10.5994 20.1955 10.8045L25.4269 16.0359C24.456 16.4622 23.5239 16.972 22.6411 17.5595C22.4527 17.6861 22.2296 17.751 22.0026 17.7451C21.7757 17.7392 21.5562 17.6629 21.3746 17.5266L19.1871 15.886L18.3121 16.761L8.31848 6.7718C8.71985 6.10444 8.93372 5.34116 8.93754 4.56242C8.93754 3.69713 8.68095 2.85127 8.20022 2.1318C7.71949 1.41234 7.03621 0.851581 6.23678 0.520447C5.43736 0.189314 4.55769 0.102674 3.70902 0.271485C2.86036 0.440295 2.0808 0.856973 1.46895 1.46883C0.857095 2.08068 0.440417 2.86023 0.271607 3.7089C0.102797 4.55757 0.189436 5.43723 0.52057 6.23666C0.851703 7.03609 1.41246 7.71937 2.13192 8.2001C2.85139 8.68083 3.69725 8.93742 4.56254 8.93742C5.34128 8.9336 6.10457 8.71973 6.77192 8.31836L16.7589 18.3054L15.8839 19.1804L17.5246 21.3679C17.6608 21.5495 17.7372 21.769 17.743 21.9959C17.7489 22.2229 17.684 22.446 17.5574 22.6345C16.9254 23.5858 16.3831 24.5939 15.9375 25.6455L10.4874 20.1954C10.3852 20.0932 10.2638 20.0122 10.1301 19.9572C9.99642 19.9022 9.85318 19.8742 9.70864 19.8749H6.54879C6.29078 19.1452 5.78309 18.5301 5.11546 18.1384C4.44782 17.7468 3.66322 17.6038 2.90033 17.7347C2.13745 17.8656 1.4454 18.2619 0.94649 18.8537C0.447584 19.4455 0.17395 20.1946 0.17395 20.9687C0.17395 21.7427 0.447584 22.4918 0.94649 23.0836C1.4454 23.6754 2.13745 24.0718 2.90033 24.2027C3.66322 24.3336 4.44782 24.1905 5.11546 23.7989C5.78309 23.4072 6.29078 22.7922 6.54879 22.0624H9.25582L15.126 27.9326C14.9893 28.4182 14.8591 28.9071 14.7607 29.4069C14.7175 29.6302 14.6058 29.8345 14.4411 29.9913C14.2765 30.1481 14.067 30.2497 13.8419 30.2819L11.125 30.667V35.3329L13.8419 35.7212C14.067 35.7534 14.2765 35.855 14.4411 36.0118C14.6058 36.1687 14.7175 36.3729 14.7607 36.5962C14.8591 37.096 14.9893 37.5805 15.126 38.0705L9.25582 43.9374H6.54879C6.29078 43.2077 5.78309 42.5926 5.11546 42.201C4.44782 41.8093 3.66322 41.6663 2.90033 41.7972C2.13745 41.9281 1.4454 42.3244 0.94649 42.9162C0.447584 43.508 0.17395 44.2571 0.17395 45.0312C0.17395 45.8052 0.447584 46.5543 0.94649 47.1461C1.4454 47.7379 2.13745 48.1343 2.90033 48.2652C3.66322 48.3961 4.44782 48.253 5.11546 47.8614C5.78309 47.4697 6.29078 46.8547 6.54879 46.1249H9.70864C9.99869 46.1249 10.2768 46.0096 10.4819 45.8045L15.9375 40.3543C16.3859 41.404 16.9307 42.4099 17.565 43.3588C17.6917 43.5472 17.7566 43.7704 17.7507 43.9973C17.7448 44.2243 17.6685 44.4438 17.5322 44.6254L15.8916 46.8184L16.7666 47.6934L6.77192 57.6815C6.10457 57.2801 5.34128 57.0662 4.56254 57.0624C3.69725 57.0624 2.85139 57.319 2.13192 57.7997C1.41246 58.2805 0.851703 58.9638 0.52057 59.7632C0.189436 60.5626 0.102797 61.4423 0.271607 62.2909C0.440417 63.1396 0.857095 63.9192 1.46895 64.531C2.0808 65.1429 2.86036 65.5595 3.70902 65.7284C4.55769 65.8972 5.43736 65.8105 6.23678 65.4794C7.03621 65.1483 7.71949 64.5875 8.20022 63.868C8.68095 63.1486 8.93754 62.3027 8.93754 61.4374C8.93372 60.6587 8.71985 59.8954 8.31848 59.228L18.3055 49.241L19.1805 50.116L21.368 48.4754C21.5496 48.3391 21.7691 48.2628 21.9961 48.2569C22.223 48.251 22.4462 48.3159 22.6346 48.4426C23.5184 49.029 24.4507 49.5387 25.4214 49.9662L20.19 55.1976C19.9874 55.403 19.8742 55.6802 19.875 55.9687V59.4512C19.1453 59.7092 18.5302 60.2169 18.1386 60.8845C17.7469 61.5521 17.6039 62.3367 17.7348 63.0996C17.8657 63.8625 18.2621 64.5546 18.8539 65.0535C19.4456 65.5524 20.1948 65.826 20.9688 65.826C21.7428 65.826 22.4919 65.5524 23.0837 65.0535C23.6755 64.5546 24.0719 63.8625 24.2028 63.0996C24.3337 62.3367 24.1907 61.5521 23.799 60.8845C23.4074 60.2169 22.7923 59.7092 22.0625 59.4512V56.4215L27.6735 50.8105C28.2422 50.979 28.8197 51.1245 29.4071 51.2393C29.6303 51.2825 29.8346 51.3942 29.9914 51.5588C30.1482 51.7235 30.2498 51.9329 30.2821 52.158L30.6671 54.8749H35.333L35.7213 52.158C35.7535 51.9329 35.8551 51.7235 36.012 51.5588C36.1688 51.3942 36.373 51.2825 36.5963 51.2393C37.1836 51.1245 37.7611 50.979 38.3299 50.8105L43.9375 56.4215V59.4512C43.2078 59.7092 42.5927 60.2169 42.2011 60.8845C41.8094 61.5521 41.6664 62.3367 41.7973 63.0996C41.9282 63.8625 42.3246 64.5546 42.9164 65.0535C43.5081 65.5524 44.2573 65.826 45.0313 65.826C45.8053 65.826 46.5544 65.5524 47.1462 65.0535C47.738 64.5546 48.1344 63.8625 48.2653 63.0996C48.3962 62.3367 48.2532 61.5521 47.8615 60.8845C47.4699 60.2169 46.8548 59.7092 46.125 59.4512V55.9687C46.125 55.6786 46.0097 55.4005 45.8046 55.1954L40.5732 49.964C41.5439 49.5365 42.4762 49.0268 43.36 48.4404C43.5485 48.3137 43.7716 48.2488 43.9986 48.2547C44.2255 48.2606 44.445 48.337 44.6266 48.4732L46.8141 50.1138L47.6891 49.2388L57.6761 59.2259C57.2763 59.8944 57.0643 60.6584 57.0625 61.4374C57.0625 62.3027 57.3191 63.1486 57.7999 63.868C58.2806 64.5875 58.9639 65.1483 59.7633 65.4794C60.5627 65.8105 61.4424 65.8972 62.2911 65.7284C63.1397 65.5595 63.9193 65.1429 64.5311 64.531C65.143 63.9192 65.5597 63.1396 65.7285 62.2909C65.8973 61.4423 65.8107 60.5626 65.4795 59.7632C65.1484 58.9638 64.5876 58.2805 63.8682 57.7997C63.1487 57.319 62.3028 57.0624 61.4375 57.0624C60.6588 57.0662 59.8955 57.2801 59.2282 57.6815L49.2411 47.6945L50.1161 46.8195L48.4755 44.6265C48.3393 44.4449 48.2629 44.2254 48.257 43.9984C48.2512 43.7715 48.316 43.5483 48.4427 43.3599C49.0293 42.4766 49.5391 41.5446 49.9663 40.5741L55.1977 45.8055C55.4024 46.0097 55.6797 46.1246 55.9688 46.1249H59.4513C59.7093 46.8547 60.217 47.4697 60.8846 47.8614C61.5523 48.253 62.3369 48.3961 63.0998 48.2652C63.8626 48.1343 64.5547 47.7379 65.0536 47.1461C65.5525 46.5543 65.8261 45.8052 65.8261 45.0312C65.8261 44.2571 65.5525 43.508 65.0536 42.9162C64.5547 42.3244 63.8626 41.9281 63.0998 41.7972C62.3369 41.6663 61.5523 41.8093 60.8846 42.201C60.217 42.5926 59.7093 43.2077 59.4513 43.9374H56.4216L50.8107 38.3265C50.9791 37.7577 51.1246 37.1802 51.2394 36.5929C51.2826 36.3696 51.3943 36.1654 51.559 36.0086C51.7236 35.8517 51.9331 35.7501 52.1582 35.7179L54.875 35.3329V30.667L52.1582 30.2787C51.9331 30.2464 51.7236 30.1448 51.559 29.988C51.3943 29.8312 51.2826 29.6269 51.2394 29.4037C51.1246 28.8163 50.9791 28.2388 50.8107 27.6701L56.4216 22.0624H59.4513ZM33 46.1249C30.4042 46.1249 27.8666 45.3552 25.7082 43.913C23.5498 42.4708 21.8675 40.4209 20.8741 38.0226C19.8807 35.6244 19.6208 32.9854 20.1272 30.4394C20.6337 27.8934 21.8837 25.5547 23.7193 23.7191C25.5548 21.8836 27.8935 20.6335 30.4395 20.1271C32.9855 19.6207 35.6245 19.8806 38.0228 20.874C40.421 21.8674 42.4709 23.5497 43.9131 25.7081C45.3553 27.8665 46.125 30.404 46.125 32.9999C46.1213 36.4797 44.7373 39.8159 42.2767 42.2765C39.8161 44.7371 36.4799 46.1212 33 46.1249Z" fill="#F38400"/>
</svg>
