<svg width="70" height="78" viewBox="0 0 70 78" fill="none" xmlns="http://www.w3.org/2000/svg">
<rect x="17" y="19" width="36" height="20" fill="#F7F7F7"/>
<rect x="15.0002" y="0.395508" width="40" height="77.2093" rx="4.03101" fill="#F38400"/>
<rect x="16.8606" y="3.49658" width="36.2791" height="63.5659" rx="2.7907" fill="white"/>
<circle cx="35.1552" cy="72.9538" r="2.7907" fill="white"/>
<path d="M27.2943 4.90757L26.6685 4.28742C25.6849 3.3128 26.3751 1.63574 27.7597 1.63574H42.2407C43.6254 1.63574 44.3156 3.31276 43.332 4.2874L42.7062 4.90755C42.4159 5.19526 42.0237 5.35667 41.6149 5.35667H28.3856C27.9768 5.35667 27.5846 5.19527 27.2943 4.90757Z" fill="#F38400"/>
<ellipse cx="34.5" cy="35" rx="27.5" ry="11" stroke="#F38400" stroke-linecap="round" stroke-dasharray="2 2"/>
<circle cx="35" cy="46" r="3" fill="#F38400"/>
<circle cx="35" cy="46" r="3" fill="url(#paint0_linear_819_2459)"/>
<circle cx="62" cy="35" r="3" fill="#F38400"/>
<circle cx="62" cy="35" r="3" fill="url(#paint1_linear_819_2459)"/>
<circle cx="50" cy="27" r="3" fill="#F38400"/>
<circle cx="50" cy="27" r="3" fill="url(#paint2_linear_819_2459)"/>
<circle cx="35" cy="24" r="3" fill="#F38400"/>
<circle cx="35" cy="24" r="3" fill="url(#paint3_linear_819_2459)"/>
<circle cx="21" cy="26" r="3" fill="#F38400"/>
<circle cx="21" cy="26" r="3" fill="url(#paint4_linear_819_2459)"/>
<circle cx="21" cy="44" r="3" fill="url(#paint5_linear_819_2459)"/>
<circle cx="50" cy="43" r="3" fill="#F38400"/>
<circle cx="50" cy="43" r="3" fill="url(#paint6_linear_819_2459)"/>
<circle cx="8" cy="35" r="3" fill="#F38400"/>
<circle cx="8" cy="35" r="3" fill="url(#paint7_linear_819_2459)"/>
<rect x="17" y="20" width="36" height="14" fill="white"/>
<defs>
<linearGradient id="paint0_linear_819_2459" x1="33" y1="44" x2="37" y2="48.5" gradientUnits="userSpaceOnUse">
<stop stop-color="white"/>
<stop offset="1" stop-color="#FFC47D"/>
</linearGradient>
<linearGradient id="paint1_linear_819_2459" x1="60" y1="33" x2="64" y2="37.5" gradientUnits="userSpaceOnUse">
<stop stop-color="white"/>
<stop offset="1" stop-color="#FFC47D"/>
</linearGradient>
<linearGradient id="paint2_linear_819_2459" x1="48" y1="25" x2="52" y2="29.5" gradientUnits="userSpaceOnUse">
<stop stop-color="white"/>
<stop offset="1" stop-color="#FFC47D"/>
</linearGradient>
<linearGradient id="paint3_linear_819_2459" x1="33" y1="22" x2="37" y2="26.5" gradientUnits="userSpaceOnUse">
<stop stop-color="white"/>
<stop offset="1" stop-color="#FFC47D"/>
</linearGradient>
<linearGradient id="paint4_linear_819_2459" x1="19" y1="24" x2="23" y2="28.5" gradientUnits="userSpaceOnUse">
<stop stop-color="white"/>
<stop offset="1" stop-color="#FFC47D"/>
</linearGradient>
<linearGradient id="paint5_linear_819_2459" x1="19" y1="42" x2="23" y2="46.5" gradientUnits="userSpaceOnUse">
<stop stop-color="white"/>
<stop offset="1" stop-color="#FFC47D"/>
</linearGradient>
<linearGradient id="paint6_linear_819_2459" x1="48" y1="41" x2="52" y2="45.5" gradientUnits="userSpaceOnUse">
<stop stop-color="white"/>
<stop offset="1" stop-color="#FFC47D"/>
</linearGradient>
<linearGradient id="paint7_linear_819_2459" x1="6" y1="33" x2="10" y2="37.5" gradientUnits="userSpaceOnUse">
<stop stop-color="white"/>
<stop offset="1" stop-color="#FFC47D"/>
</linearGradient>
</defs>
</svg>
