<svg width="90" height="119" viewBox="0 0 90 119" fill="none" xmlns="http://www.w3.org/2000/svg">
<path d="M78 79.1403C78 75.1359 77.03 71.1707 75.1455 67.4712C73.2609 63.7716 70.4987 60.4101 67.0165 57.5786C63.5343 54.7471 59.4003 52.501 54.8506 50.9686C50.3009 49.4362 45.4246 48.6475 40.5 48.6475C35.5754 48.6475 30.6991 49.4362 26.1494 50.9686C21.5997 52.501 17.4657 54.7471 13.9835 57.5786C10.5013 60.4101 7.73907 63.7716 5.85452 67.4712C3.96997 71.1707 3 75.1359 3 79.1403L40.5 79.1403H78Z" fill="#F38400"/>
<ellipse cx="30.9877" cy="60.1747" rx="5.98385" ry="3.47945" transform="rotate(-21.54 30.9877 60.1747)" fill="#FFBB6A"/>
<ellipse cx="31.2961" cy="60.6271" rx="4.54312" ry="2.64171" transform="rotate(-21.54 31.2961 60.6271)" fill="#FFDDB5"/>
<ellipse cx="46.5326" cy="70.4026" rx="7.709" ry="4.48258" transform="rotate(6.40612 46.5326 70.4026)" fill="#FFBB6A"/>
<ellipse cx="46.6102" cy="71.1044" rx="5.85291" ry="3.40331" transform="rotate(6.40612 46.6102 71.1044)" fill="#FFDDB5"/>
<ellipse cx="22.2021" cy="75.0787" rx="2.65109" ry="1.54154" transform="rotate(-21.54 22.2021 75.0787)" fill="#FFBB6A"/>
<ellipse cx="22.339" cy="75.2788" rx="2.01279" ry="1.17038" transform="rotate(-21.54 22.339 75.2788)" fill="#FFDDB5"/>
<ellipse cx="8.58893" cy="74.7703" rx="2.05903" ry="1.19727" transform="rotate(-21.54 8.58893 74.7703)" fill="#FFBB6A"/>
<ellipse cx="8.69506" cy="74.9263" rx="1.56327" ry="0.909002" transform="rotate(-21.54 8.69506 74.9263)" fill="#FFDDB5"/>
<ellipse cx="16.8601" cy="65.2474" rx="4.71311" ry="2.74055" transform="rotate(-21.54 16.8601 65.2474)" fill="#FFBB6A"/>
<ellipse cx="17.1031" cy="65.6035" rx="3.57833" ry="2.08071" transform="rotate(-21.54 17.1031 65.6035)" fill="#FFDDB5"/>
<ellipse cx="55.6684" cy="58.3134" rx="3.13866" ry="1.82505" transform="rotate(29.9515 55.6684 58.3134)" fill="#FFBB6A"/>
<ellipse cx="55.5831" cy="58.5871" rx="2.38296" ry="1.38563" transform="rotate(29.9515 55.5831 58.5871)" fill="#FFDDB5"/>
<ellipse cx="66.7004" cy="70.699" rx="5.21073" ry="3.0299" transform="rotate(59.067 66.7004 70.699)" fill="#FFBB6A"/>
<ellipse cx="66.3551" cy="71.0291" rx="3.95614" ry="2.30039" transform="rotate(59.067 66.3551 71.0291)" fill="#FFDDB5"/>
<path d="M41.0435 5.57617C45.5922 3.62196 49.992 3.12169 53.728 3.26465C56.881 3.38531 59.5581 3.96404 61.4458 4.5127C62.3892 4.78691 63.1348 5.05319 63.6421 5.25C63.8514 5.33124 64.0196 5.40192 64.145 5.45508V29.459C64.1076 29.4425 64.0692 29.4237 64.0288 29.4062C63.5181 29.1853 62.7705 28.8915 61.813 28.5938C59.8977 27.9981 57.1394 27.3865 53.7554 27.3164C50.0518 27.2398 45.6019 27.8115 40.6919 29.7578C35.9852 31.6235 31.7235 32.1908 28.1685 32.1387C24.832 32.0897 22.1145 31.4951 20.2349 30.915C19.2952 30.625 18.5651 30.3385 18.0728 30.126C17.864 30.0359 17.6988 29.9575 17.5776 29.8994V5.84473C17.6363 5.86809 17.698 5.8953 17.7642 5.9209C18.3033 6.1296 19.0879 6.40894 20.0767 6.69434C22.0536 7.26494 24.8526 7.86179 28.146 7.96875C31.9516 8.0923 36.422 7.5617 41.0435 5.57617Z" fill="#FFDCB3" stroke="#FFA53C" stroke-width="0.920304"/>
<rect x="15.185" y="0.460152" width="2.94497" height="65.7097" rx="1.47249" fill="#FFDCB3" stroke="#FFA53C" stroke-width="0.920304"/>
</svg>
