<svg width="32" height="37" viewBox="0 0 32 37" fill="none" xmlns="http://www.w3.org/2000/svg">
<path fill-rule="evenodd" clip-rule="evenodd" d="M4.29268 0.5C3.15419 0.5 2.06233 1.0088 1.2573 1.91446C0.452264 2.82012 0 4.04847 0 5.32927C0 6.61007 0.452264 7.83841 1.2573 8.74408C2.06233 9.64974 3.15419 10.1585 4.29268 10.1585C5.43117 10.1585 6.52303 9.64974 7.32807 8.74408C8.1331 7.83841 8.58537 6.61007 8.58537 5.32927C8.58537 4.04847 8.1331 2.82012 7.32807 1.91446C6.52303 1.0088 5.43117 0.5 4.29268 0.5ZM2.34146 5.32927C2.34146 4.74709 2.54704 4.18875 2.91296 3.77708C3.27889 3.36542 3.77519 3.13415 4.29268 3.13415C4.81018 3.13415 5.30648 3.36542 5.6724 3.77708C6.03833 4.18875 6.2439 4.74709 6.2439 5.32927C6.2439 5.91145 6.03833 6.46979 5.6724 6.88145C5.30648 7.29312 4.81018 7.52439 4.29268 7.52439C3.77519 7.52439 3.27889 7.29312 2.91296 6.88145C2.54704 6.46979 2.34146 5.91145 2.34146 5.32927ZM0 12.3537C0 12.0043 0.123344 11.6693 0.342899 11.4223C0.562454 11.1753 0.860234 11.0366 1.17073 11.0366H7.41463C7.72513 11.0366 8.02291 11.1753 8.24247 11.4223C8.46202 11.6693 8.58537 12.0043 8.58537 12.3537V35.1829C8.58537 35.5322 8.46202 35.8672 8.24247 36.1142C8.02291 36.3612 7.72513 36.5 7.41463 36.5H1.17073C0.860234 36.5 0.562454 36.3612 0.342899 36.1142C0.123344 35.8672 0 35.5322 0 35.1829V12.3537ZM2.34146 13.6707V33.8659H6.2439V13.6707H2.34146ZM10.9268 12.3537C10.9268 12.0043 11.0502 11.6693 11.2697 11.4223C11.4893 11.1753 11.7871 11.0366 12.0976 11.0366H18.3415C18.652 11.0366 18.9497 11.1753 19.1693 11.4223C19.3888 11.6693 19.5122 12.0043 19.5122 12.3537V13.1158L20.1912 12.7874C21.362 12.2248 22.6041 11.8722 23.872 11.7425C28.2037 11.3 32 15.1283 32 20.0454V35.1829C32 35.5322 31.8767 35.8672 31.6571 36.1142C31.4375 36.3612 31.1398 36.5 30.8293 36.5H24.5854C24.2749 36.5 23.9771 36.3612 23.7575 36.1142C23.538 35.8672 23.4146 35.5322 23.4146 35.1829V22.8902C23.4146 22.3081 23.2091 21.7497 22.8431 21.3381C22.4772 20.9264 21.9809 20.6951 21.4634 20.6951C20.9459 20.6951 20.4496 20.9264 20.0837 21.3381C19.7178 21.7497 19.5122 22.3081 19.5122 22.8902V35.1829C19.5122 35.5322 19.3888 35.8672 19.1693 36.1142C18.9497 36.3612 18.652 36.5 18.3415 36.5H12.0976C11.7871 36.5 11.4893 36.3612 11.2697 36.1142C11.0502 35.8672 10.9268 35.5322 10.9268 35.1829V12.3537ZM13.2683 13.6707V33.8659H17.1707V22.8902C17.1707 21.6094 17.623 20.3811 18.428 19.4754C19.2331 18.5698 20.3249 18.061 21.4634 18.061C22.6019 18.061 23.6938 18.5698 24.4988 19.4754C25.3038 20.3811 25.7561 21.6094 25.7561 22.8902V33.8659H29.6585V20.0454C29.6585 16.7018 27.0658 14.0606 24.0859 14.3661C23.0621 14.4706 22.0592 14.7551 21.1138 15.2091L18.8035 16.3242C18.6253 16.4103 18.4309 16.4453 18.2377 16.4259C18.0446 16.4066 17.8587 16.3336 17.6968 16.2135C17.5349 16.0933 17.4021 15.9298 17.3103 15.7377C17.2185 15.5455 17.1705 15.3307 17.1707 15.1125V13.6707H13.2683Z" fill="#F38400"/>
</svg>
