<svg width="68" height="68" viewBox="0 0 68 68" fill="none" xmlns="http://www.w3.org/2000/svg">
<path d="M38.9512 38.9514C39.03 39.0302 39.158 39.0303 39.2345 38.9494C40.1655 37.9648 40.8011 36.7367 41.0663 35.4054C41.3447 34.0081 41.2025 32.5599 40.6577 31.2439C40.1129 29.9279 39.1901 28.8032 38.0058 28.0121C36.8215 27.221 35.429 26.799 34.0044 26.7995C32.5798 26.7999 31.1871 27.2228 30.0023 28.0146C28.8176 28.8065 27.894 29.9317 27.3484 31.248C26.8029 32.5643 26.6598 34.0127 26.9373 35.4098C27.2016 36.7408 27.8364 37.9685 28.7667 38.9524C28.8433 39.0335 28.9713 39.0333 29.0502 38.9544C29.129 38.8756 29.1287 38.748 29.0523 38.6668C28.1784 37.7394 27.582 36.5837 27.3332 35.3309C27.0712 34.0121 27.2063 32.6449 27.7213 31.4024C28.2363 30.1598 29.1081 29.0976 30.2265 28.3502C31.3449 27.6027 32.6595 27.2035 34.0043 27.2031C35.3491 27.2027 36.6635 27.601 37.7814 28.3478C38.8994 29.0946 39.7705 30.1562 40.2847 31.3985C40.799 32.6407 40.9332 34.0078 40.6704 35.3268C40.4208 36.5798 39.8236 37.736 38.9491 38.6639C38.8727 38.745 38.8724 38.8726 38.9512 38.9514Z" fill="#D9D9D9"/>
<path d="M36.6194 36.6193C36.6882 36.688 36.7999 36.6883 36.8655 36.6165C37.3421 36.0947 37.6681 35.4518 37.8068 34.7568C37.9569 34.0041 37.8805 33.2241 37.5873 32.5154C37.2941 31.8067 36.7972 31.2011 36.1594 30.7752C35.5217 30.3492 34.7717 30.1221 34.0044 30.1226C33.2371 30.123 32.487 30.351 31.8487 30.7776C31.2105 31.2043 30.7129 31.8105 30.4189 32.5195C30.1248 33.2286 30.0475 34.0087 30.1968 34.7612C30.3346 35.4559 30.6598 36.0983 31.1357 36.6195C31.2013 36.6914 31.3132 36.6911 31.382 36.6223C31.4508 36.5535 31.4504 36.4422 31.3851 36.3701C30.9583 35.8983 30.6665 35.3187 30.5423 34.6922C30.4066 34.0081 30.4768 33.2988 30.7442 32.6541C31.0115 32.0094 31.4639 31.4583 32.0442 31.0704C32.6245 30.6824 33.3066 30.4752 34.0042 30.4748C34.7019 30.4744 35.3837 30.6809 35.9636 31.0681C36.5434 31.4554 36.9952 32.006 37.2618 32.6504C37.5284 33.2948 37.5979 34.0039 37.4614 34.6883C37.3364 35.315 37.0438 35.895 36.6163 36.3674C36.5511 36.4394 36.5507 36.5506 36.6194 36.6193Z" fill="#D9D9D9"/>
<path d="M68 34L41.1855 41.1855L34 68L26.8145 41.1855L0 34L26.8145 26.8145L34 0L41.1855 26.8145L68 34Z" fill="#F38400"/>
</svg>
