<svg width="67" height="28" viewBox="0 0 67 28" fill="none" xmlns="http://www.w3.org/2000/svg">
<path d="M1.21183 9.6248C1.21183 5.64752 4.50551 2.88207 9.29067 2.88207C13.8894 2.88207 16.8102 5.43001 16.9345 9.53158H12.9572C12.864 7.57401 11.4657 6.42433 9.22853 6.42433C6.7738 6.42433 5.18911 7.60509 5.18911 9.50051C5.18911 11.1163 6.05914 12.0174 7.95456 12.4524L11.5279 13.2292C15.412 14.0682 17.3074 16.0568 17.3074 19.4437C17.3074 23.6696 14.0137 26.4039 9.01102 26.4039C4.16371 26.4039 0.99432 23.8249 0.901102 19.7544H4.87838C4.90945 21.6809 6.46308 22.8306 9.01102 22.8306C11.6522 22.8306 13.3301 21.6809 13.3301 19.7855C13.3301 18.2629 12.5533 17.3618 10.6889 16.9579L7.08453 16.15C3.23154 15.3111 1.21183 13.1049 1.21183 9.6248ZM35.0124 26H20.9055V3.28601H35.0124V6.95256H24.8828V12.7942H33.9559V16.3054H24.8828V22.3334H35.0124V26Z" fill="#F38400"/>
<ellipse cx="53.4057" cy="13.2961" rx="13.5942" ry="12.3254" fill="#F38400"/>
<ellipse cx="50.6304" cy="3.66585" rx="2.16922" ry="1.26135" transform="rotate(-13.3499 50.6304 3.66585)" fill="#FFBB6A"/>
<ellipse cx="50.7176" cy="3.84447" rx="1.64694" ry="0.957651" transform="rotate(-13.3499 50.7176 3.84447)" fill="#FFDDB5"/>
<ellipse cx="48.3479" cy="13.4241" rx="2.16922" ry="1.26135" transform="rotate(-13.3499 48.3479 13.4241)" fill="#FFBB6A"/>
<ellipse cx="48.4354" cy="13.6018" rx="1.64694" ry="0.957651" transform="rotate(-13.3499 48.4354 13.6018)" fill="#FFDDB5"/>
<ellipse cx="55.5929" cy="9.21948" rx="2.79461" ry="1.62499" transform="rotate(12.3547 55.5929 9.21948)" fill="#FFBB6A"/>
<ellipse cx="55.5943" cy="9.47555" rx="2.12175" ry="1.23374" transform="rotate(12.3547 55.5943 9.47555)" fill="#FFDDB5"/>
<ellipse cx="46.3611" cy="20.9984" rx="2.79461" ry="1.62499" transform="rotate(-152.556 46.3611 20.9984)" fill="#FFBB6A"/>
<ellipse cx="46.4264" cy="20.751" rx="2.12175" ry="1.23374" transform="rotate(-152.556 46.4264 20.751)" fill="#FFDDB5"/>
<ellipse cx="49.6296" cy="7.66749" rx="0.961053" ry="0.558827" transform="rotate(-20.288 49.6296 7.66749)" fill="#FFBB6A"/>
<ellipse cx="49.6777" cy="7.74115" rx="0.72966" ry="0.424278" transform="rotate(-20.288 49.6777 7.74115)" fill="#FFDDB5"/>
<ellipse cx="58.3298" cy="16.0054" rx="0.961053" ry="0.558827" transform="rotate(-20.288 58.3298 16.0054)" fill="#FFBB6A"/>
<ellipse cx="58.3779" cy="16.079" rx="0.72966" ry="0.424278" transform="rotate(-20.288 58.3779 16.079)" fill="#FFDDB5"/>
<ellipse cx="50.3545" cy="17.8184" rx="0.961053" ry="0.558827" transform="rotate(-20.288 50.3545 17.8184)" fill="#FFBB6A"/>
<ellipse cx="50.4026" cy="17.892" rx="0.72966" ry="0.424278" transform="rotate(-20.288 50.4026 17.892)" fill="#FFDDB5"/>
<ellipse cx="41.8378" cy="10.803" rx="0.746422" ry="0.434025" transform="rotate(-21.54 41.8378 10.803)" fill="#FFBB6A"/>
<ellipse cx="41.8761" cy="10.8597" rx="0.566706" ry="0.329525" transform="rotate(-21.54 41.8761 10.8597)" fill="#FFDDB5"/>
<ellipse cx="44.9483" cy="6.88575" rx="1.70856" ry="0.993482" transform="rotate(-33.6751 44.9483 6.88575)" fill="#FFBB6A"/>
<ellipse cx="45.0615" cy="6.9934" rx="1.29719" ry="0.754281" transform="rotate(-33.6751 45.0615 6.9934)" fill="#FFDDB5"/>
<ellipse cx="57.7429" cy="4.446" rx="1.1378" ry="0.661602" transform="rotate(29.9515 57.7429 4.446)" fill="#FFBB6A"/>
<ellipse cx="57.7121" cy="4.54474" rx="0.863853" ry="0.502308" transform="rotate(29.9515 57.7121 4.54474)" fill="#FFDDB5"/>
<ellipse cx="62.8821" cy="8.45735" rx="1.88895" ry="1.09838" transform="rotate(59.067 62.8821 8.45735)" fill="#FFBB6A"/>
<ellipse cx="62.7572" cy="8.57729" rx="1.43415" ry="0.83392" transform="rotate(59.067 62.7572 8.57729)" fill="#FFDDB5"/>
<ellipse cx="60.9063" cy="21.2805" rx="1.88895" ry="1.09838" transform="rotate(-24.4241 60.9063 21.2805)" fill="#FFBB6A"/>
<ellipse cx="61.0107" cy="21.4187" rx="1.43415" ry="0.83392" transform="rotate(-24.4241 61.0107 21.4187)" fill="#FFDDB5"/>
</svg>
