<svg width="74" height="80" viewBox="0 0 74 80" fill="none" xmlns="http://www.w3.org/2000/svg">
<path d="M24.5778 27.2504C25.2512 27.8451 26.2791 27.7813 26.8737 27.1079L29.266 24.3989C29.8606 23.7256 30.8885 23.6618 31.5619 24.2564L40.2322 31.9131C40.9055 32.5077 41.9334 32.4439 42.5281 31.7706L44.8014 29.1963C45.396 28.5229 45.3322 27.495 44.6589 26.9004L41.4075 24.0291C40.7341 23.4345 40.6703 22.4066 41.265 21.7333L59.329 1.27779C59.9236 0.604441 60.9515 0.540627 61.6249 1.13526L72.8689 11.0648C73.5423 11.6594 73.6061 12.6873 73.0115 13.3607L54.9474 33.8161C54.3528 34.4895 53.3249 34.5533 52.6515 33.9587L49.4001 31.0874C48.7268 30.4928 47.6989 30.5566 47.1043 31.2299L44.8309 33.8042C44.2363 34.4776 44.3001 35.5055 44.9735 36.1001L53.6431 43.7562C54.3164 44.3508 54.3802 45.3787 53.7856 46.052L51.3933 48.761C50.7987 49.4344 50.8625 50.4623 51.5359 51.0569L52.2055 51.6482C52.7282 52.1098 53.4817 52.1591 54.1526 51.9688C55.6686 51.5386 57.365 51.8648 58.634 52.9854C60.6165 54.7363 60.8045 57.7626 59.0537 59.7452C57.3029 61.7278 54.2766 61.9156 52.2939 60.1648C51.0249 59.0442 50.4914 57.4011 50.7307 55.8436C50.8367 55.1543 50.6945 54.4126 50.1718 53.951L49.5022 53.3597C48.8289 52.7651 47.801 52.8289 47.2064 53.5023L44.8134 56.212C44.2188 56.8853 43.1909 56.9491 42.5176 56.3545L33.8479 48.6985C33.1746 48.1038 32.1467 48.1676 31.5521 48.841L29.2794 51.4145C28.6848 52.0879 28.7486 53.1158 29.4219 53.7104L32.6726 56.581C33.3459 57.1757 33.4097 58.2036 32.8151 58.8769L14.751 79.3324C14.1564 80.0057 13.1285 80.0696 12.4552 79.4749L1.21186 69.5461C0.538512 68.9514 0.474697 67.9235 1.06933 67.2502L19.1334 46.7947C19.728 46.1214 20.7559 46.0575 21.4293 46.6522L24.6806 49.5234C25.354 50.1181 26.3819 50.0543 26.9765 49.3809L29.2492 46.8074C29.8438 46.134 29.78 45.1061 29.1067 44.5115L20.4363 36.8548C19.763 36.2601 19.6992 35.2322 20.2938 34.5589L22.6867 31.8492C23.2813 31.1758 23.2175 30.1479 22.5442 29.5533L22.3411 29.374C21.7052 28.8124 21.6449 27.8416 22.2065 27.2057C22.7681 26.5698 23.7388 26.5096 24.3748 27.0711L24.5778 27.2504Z" fill="#F38400"/>
</svg>
