<svg width="70" height="78" viewBox="0 0 70 78" fill="none" xmlns="http://www.w3.org/2000/svg">
<path d="M25.5703 30.4147L29.7563 28.0101L30.2505 29.3426C30.5462 30.1403 31.2868 30.6557 32.1376 30.6557L37.5423 30.6557C38.0919 30.6555 38.5956 30.4403 38.963 30.0729C39.1642 29.8717 39.3246 29.6247 39.4292 29.3426L39.9233 28.01L44.1092 30.4148C44.547 30.6662 45.0862 30.5814 45.4271 30.2404C45.4934 30.1742 45.5521 30.0983 45.6012 30.0135L45.7143 29.8178C47.5806 26.5855 47.2912 21.8821 43.2795 18.8708C43.6449 13.2495 40.9773 7.6202 35.5287 3.10607C35.1239 2.7707 34.5379 2.7707 34.1331 3.10607C28.6808 7.62261 26.0128 13.2577 26.3831 18.884C22.3887 21.8958 22.1037 26.5926 23.9655 29.8176L24.0785 30.0133C24.3798 30.5354 25.0472 30.7152 25.5703 30.4147ZM28.6155 19.4455C28.6184 19.3492 28.6082 19.2523 28.5851 19.1571C28.2836 16.159 28.9908 13.16 30.6641 10.3409L38.9969 10.3409C41.8292 15.1129 41.8973 20.4012 38.9878 25.3241L30.6733 25.3241C29.5378 23.4027 28.8575 21.4256 28.6155 19.4455ZM32.0159 17.4389C30.4557 15.8786 30.4556 13.3399 32.0159 11.7795C33.5763 10.2192 36.115 10.2192 37.6753 11.7795C39.2356 13.3399 39.2356 15.8785 37.6753 17.4389C36.1149 18.9992 33.5763 18.9992 32.0159 17.4389Z" fill="#F38400"/>
<path d="M39.9995 31.0003C38.3998 31.8003 32.3339 31.5003 29.5004 31.0003C28.5002 31.0002 28.2996 38.5003 29.5004 38.5003C31.0014 38.5003 31.9994 34.0003 32.9994 34.0003C33.9994 34.0003 33.9994 44.0003 35.4994 44.0003C36.9994 44.0003 37.4994 31.0003 37.9994 34.5003C38.3994 37.3003 39.8328 39.0003 40.4994 39.5003C40.9997 36.5003 41.5992 30.2003 39.9995 31.0003Z" fill="#F38400"/>
<path d="M64.25 51.1045C64.8023 51.1045 65.25 51.5522 65.25 52.1045V54.0791C65.2479 55.2475 64.7832 56.3682 63.957 57.1943C63.1309 58.0205 62.0101 58.4852 60.8418 58.4873H40.8073C40.2111 58.4873 39.7452 59.0083 39.9102 59.5812C41.2076 64.0866 47.0015 68.259 47.0723 68.3096C47.2559 68.4472 47.3919 68.6388 47.4619 68.8574C47.5319 69.0762 47.5326 69.3114 47.4629 69.5303C47.3932 69.749 47.2567 69.9402 47.0732 70.0781C46.8895 70.2161 46.6672 70.2939 46.4375 70.2998H22.8125C22.584 70.3008 22.3609 70.2302 22.1748 70.0977C21.9886 69.9651 21.8491 69.7769 21.7754 69.5605C21.7017 69.3442 21.6972 69.1103 21.7637 68.8916C21.8301 68.6729 21.9639 68.4805 22.1455 68.3418C25.2151 65.9618 28.9917 62.0894 29.714 59.4293C29.854 58.9136 29.4134 58.4873 28.8791 58.4873H8.4082C7.23985 58.4852 6.11913 58.0205 5.29297 57.1943C4.4668 56.3682 4.00212 55.2475 4 54.0791V52.1045C4 51.5522 4.44772 51.1045 5 51.1045H64.25ZM31.8691 52.2969C31.582 52.3013 31.3079 52.4184 31.1064 52.623C30.905 52.8277 30.792 53.1034 30.792 53.3906C30.7921 53.6777 30.905 53.9536 31.1064 54.1582C31.3079 54.3627 31.5821 54.4799 31.8691 54.4844H37.0527C37.34 54.4801 37.6148 54.3629 37.8164 54.1582C38.0179 53.9536 38.1308 53.6778 38.1309 53.3906C38.1309 53.1035 38.0178 52.8277 37.8164 52.623C37.6148 52.4184 37.34 52.3011 37.0527 52.2969H31.8691ZM18.5276 15.6992C19.3428 15.6992 19.8288 16.6329 19.4244 17.3408C17.8821 20.0413 17 23.1674 17 26.5C17 36.7173 25.2827 45 35.5 45C45.7173 45 54 36.7173 54 26.5C54 23.1674 53.1179 20.0413 51.5756 17.3408C51.1712 16.6329 51.6572 15.6992 52.4724 15.6992H60.8418C62.0102 15.7013 63.1309 16.167 63.957 16.9932C64.783 17.8193 65.2479 18.9392 65.25 20.1074V47.917C65.25 48.4693 64.8023 48.917 64.25 48.917H5C4.44772 48.917 4 48.4693 4 47.917V20.1074C4.00215 18.9392 4.46698 17.8193 5.29297 16.9932C6.11913 16.167 7.23983 15.7013 8.4082 15.6992H18.5276Z" fill="#F38400"/>
</svg>
