<svg width="67" height="58" viewBox="0 0 67 58" fill="none" xmlns="http://www.w3.org/2000/svg">
<path d="M60 0C63.866 0 67 3.13401 67 7V43C67 46.866 63.866 50 60 50H51.7275L57.4795 56.3271C58.0635 56.9695 57.6074 58 56.7393 58H10.2607C9.3926 58 8.93653 56.9695 9.52051 56.3271L15.2725 50H7C3.13401 50 1.61069e-08 46.866 0 43V7C0 3.13401 3.13401 8.0532e-08 7 0H60Z" fill="#F38400"/>
<rect x="4" y="3" width="59" height="41" rx="7" fill="white"/>
<line x1="9.5" y1="10.5" x2="30.5" y2="10.5" stroke="#F38400" stroke-width="3" stroke-linecap="round"/>
<line x1="9.5" y1="18.5" x2="30.5" y2="18.5" stroke="#F38400" stroke-width="3" stroke-linecap="round"/>
<line x1="9.5" y1="26.5" x2="30.5" y2="26.5" stroke="#F38400" stroke-width="3" stroke-linecap="round"/>
<line x1="9.5" y1="34.5" x2="30.5" y2="34.5" stroke="#F38400" stroke-width="3" stroke-linecap="round"/>
<path d="M47.9246 19.1974L50.2981 15.151L45.9 16.7961L42.7926 13.2942L43.0103 17.9709L38.7119 19.8614L43.2356 21.1037L43.6909 25.7791L46.2728 21.8544L50.8608 22.8642L47.9246 19.1974Z" fill="#F38400"/>
<path d="M57.355 25.2431L58.8978 22.6304L56.0621 23.7039L54.041 21.4282L54.1811 24.4686L51.4008 25.6783L54.329 26.4734L54.622 29.4992L56.2909 26.9623L59.2565 27.6151L57.355 25.2431Z" fill="#F38400"/>
</svg>
