<svg width="166" height="105" viewBox="0 0 166 105" fill="none" xmlns="http://www.w3.org/2000/svg">
<path d="M65.0075 0.705564C75.5829 0.705564 83.6737 3.76351 89.28 9.8794C94.8862 15.8679 97.6893 24.2135 97.6893 34.9163C97.6893 43.4531 96.0329 51.9261 92.7201 60.3355C89.4074 68.6174 84.8205 76.0712 78.9594 82.6967C73.0983 89.3223 66.3454 94.6737 58.7005 98.7509C51.1831 102.701 43.0922 104.676 34.4281 104.676C24.1075 104.676 15.953 101.745 9.96451 95.8841C3.97603 89.8956 0.981796 81.3589 0.981796 70.2738C0.981796 61.6096 2.63818 53.2003 5.95096 45.0458C9.39114 36.8913 14.1055 29.4375 20.094 22.6845C26.0824 15.9316 32.8991 10.5802 40.544 6.63034C48.3162 2.68049 56.4708 0.705564 65.0075 0.705564ZM61.5673 4.14575C56.3433 4.14575 51.3105 6.12068 46.4687 10.0705C41.7544 13.893 37.486 19.0532 33.6636 25.5514C29.9686 32.0495 27.1017 39.3758 25.0631 47.5303C23.0245 55.6849 22.0052 64.0942 22.0052 72.7584C22.0052 83.3338 23.5341 90.7238 26.5921 94.9285C29.65 99.1332 33.4088 101.236 37.8683 101.236C43.4745 101.236 48.6348 99.1969 53.3491 95.1196C58.0634 91.0424 62.1407 85.6273 65.5809 78.8743C69.0211 72.1213 71.6968 64.6676 73.608 56.5131C75.6466 48.2311 76.6659 39.9492 76.6659 31.6673C76.6659 21.4741 75.2644 14.3389 72.4613 10.2616C69.6581 6.18438 66.0268 4.14575 61.5673 4.14575ZM165.675 1.27893L136.051 102H115.984L140.256 20.0088C136.688 21.7926 132.739 23.5127 128.406 25.1691C124.202 26.8255 118.914 28.5456 112.543 30.3294L113.117 26.3159C121.654 23.895 128.852 21.283 134.713 18.4799C140.575 15.6768 145.671 12.8099 150.003 9.8794C154.335 6.94887 158.285 4.08205 161.853 1.27893H165.675Z" fill="#F38400"/>
</svg>
