<svg width="206" height="141" viewBox="0 0 206 141" fill="none" xmlns="http://www.w3.org/2000/svg">
<path d="M64.9966 36.7056C75.572 36.7056 83.6628 39.7635 89.269 45.8794C94.8752 51.8679 97.6783 60.2135 97.6783 70.9163C97.6783 79.4531 96.022 87.9261 92.7092 96.3355C89.3964 104.617 84.8095 112.071 78.9484 118.697C73.0874 125.322 66.3344 130.674 58.6896 134.751C51.1721 138.701 43.0813 140.676 34.4171 140.676C24.0965 140.676 15.942 137.745 9.95355 131.884C3.96507 125.896 0.970832 117.359 0.970832 106.274C0.970832 97.6096 2.62722 89.2003 5.93999 81.0458C9.38018 72.8913 14.0945 65.4375 20.083 58.6845C26.0715 51.9316 32.8881 46.5802 40.533 42.6303C48.3053 38.6805 56.4598 36.7056 64.9966 36.7056ZM61.5564 40.1458C56.3324 40.1458 51.2995 42.1207 46.4578 46.0705C41.7434 49.893 37.4751 55.0532 33.6526 61.5514C29.9576 68.0495 27.0908 75.3758 25.0521 83.5303C23.0135 91.6849 21.9942 100.094 21.9942 108.758C21.9942 119.334 23.5232 126.724 26.5811 130.929C29.6391 135.133 33.3978 137.236 37.8573 137.236C43.4635 137.236 48.6238 135.197 53.3381 131.12C58.0525 127.042 62.1297 121.627 65.5699 114.874C69.0101 108.121 71.6858 100.668 73.597 92.5131C75.6357 84.2311 76.655 75.9492 76.655 67.6673C76.655 57.4741 75.2534 50.3389 72.4503 46.2616C69.6472 42.1844 66.0159 40.1458 61.5564 40.1458ZM204.844 0.0102169L205.991 3.83266C198.856 5.61646 191.72 8.73811 184.585 13.1976C177.45 17.6571 170.633 23.2633 164.135 30.0163C157.765 36.6419 152.031 44.2867 146.934 52.9509C141.838 61.4877 137.824 70.7889 134.894 80.8546C131.963 90.9204 130.498 101.559 130.498 112.772C130.498 122.201 131.581 128.571 133.747 131.884C136.04 135.197 139.162 136.853 143.112 136.853C148.081 136.853 152.541 134.942 156.49 131.12C160.568 127.297 164.008 122.392 166.811 116.403C169.741 110.415 171.908 104.171 173.309 97.6733C174.838 91.0478 175.603 84.9956 175.603 79.5168C175.603 72.8913 174.52 68.1769 172.353 65.3738C170.315 62.4433 167.575 60.978 164.135 60.978C160.695 60.978 157.064 62.5707 153.241 65.756C149.546 68.9414 146.234 74.7388 143.303 83.1481L140.245 82.0014C142.411 74.8662 145.214 69.3236 148.654 65.3738C152.222 61.2965 155.981 58.4297 159.931 56.7733C164.008 55.1169 168.021 54.2887 171.971 54.2887C179.361 54.2887 185.35 56.7733 189.937 61.7425C194.651 66.5842 197.008 73.6557 197.008 82.957C197.008 90.4744 195.479 97.6733 192.421 104.554C189.491 111.434 185.35 117.614 179.998 123.093C174.647 128.444 168.467 132.712 161.46 135.898C154.579 139.083 147.253 140.676 139.481 140.676C129.415 140.676 121.897 137.809 116.928 132.075C112.086 126.342 109.666 117.677 109.666 106.083C109.666 94.6154 111.768 83.8489 115.973 73.7831C120.305 63.59 125.975 54.2888 132.982 45.8794C139.99 37.3426 147.699 29.8889 156.108 23.5182C164.645 17.1475 173.118 11.9872 181.527 8.03733C190.064 3.96007 197.836 1.28437 204.844 0.0102169Z" fill="#F38400"/>
</svg>
