<svg width="356" height="241" viewBox="0 0 356 241" fill="none" xmlns="http://www.w3.org/2000/svg">
<rect x="1.27672" y="0.276722" width="108.475" height="30.9929" rx="12.4525" fill="#F38400" stroke="#F38400" stroke-width="0.553444"/>
<path d="M17.3258 21.7011C14.2089 21.7011 12.136 19.4618 12.136 16.0725C12.136 12.6983 14.2694 10.4135 17.4015 10.4135C19.8678 10.4135 21.7592 11.8812 22.1677 14.1206H20.579C20.1704 12.6983 18.9448 11.8358 17.3561 11.8358C15.147 11.8358 13.6945 13.5002 13.6945 16.0573C13.6945 18.6144 15.147 20.2788 17.3561 20.2788C18.96 20.2788 20.231 19.4164 20.6395 18.0697H22.2131C21.744 20.2486 19.7922 21.7011 17.3258 21.7011ZM23.305 17.8276C23.305 15.5429 24.9391 13.939 27.1633 13.939C29.3724 13.939 31.0066 15.5429 31.0066 17.8276C31.0066 20.1124 29.3724 21.7162 27.1633 21.7162C24.9391 21.7162 23.305 20.1124 23.305 17.8276ZM24.7424 17.8276C24.7424 19.371 25.7259 20.4453 27.1633 20.4453C28.5856 20.4453 29.5843 19.371 29.5843 17.8276C29.5843 16.2843 28.5856 15.21 27.1633 15.21C25.7259 15.21 24.7424 16.2843 24.7424 17.8276ZM34.0335 21.5347H32.6112V10.3984H34.0335V21.5347ZM35.6431 17.8276C35.6431 15.5429 37.2772 13.939 39.5014 13.939C41.7105 13.939 43.3446 15.5429 43.3446 17.8276C43.3446 20.1124 41.7105 21.7162 39.5014 21.7162C37.2772 21.7162 35.6431 20.1124 35.6431 17.8276ZM37.0805 17.8276C37.0805 19.371 38.064 20.4453 39.5014 20.4453C40.9237 20.4453 41.9224 19.371 41.9224 17.8276C41.9224 16.2843 40.9237 15.21 39.5014 15.21C38.064 15.21 37.0805 16.2843 37.0805 17.8276ZM49.1557 14.0752V15.3764H48.5202C47.1736 15.3764 46.3414 16.1935 46.3414 17.6158V21.5347H44.9191V14.1508H46.2506L46.3414 15.2705C46.644 14.4989 47.3854 13.9844 48.3992 13.9844C48.6564 13.9844 48.8682 14.0147 49.1557 14.0752ZM59.1209 17.6309H56.3519V21.5347H54.8691V10.5951H59.1209C61.2694 10.5951 62.6463 12.0023 62.6463 14.1055C62.6463 16.1481 61.2543 17.6309 59.1209 17.6309ZM58.8636 11.9266H56.3519V16.2994H58.8031C60.2708 16.2994 61.0879 15.437 61.0879 14.0903C61.0879 12.7134 60.2557 11.9266 58.8636 11.9266ZM65.9519 21.7162C64.3632 21.7162 63.4251 20.8235 63.4251 19.4769C63.4251 18.1151 64.4389 17.2678 66.1789 17.1316L68.509 16.95V16.7382C68.509 15.4975 67.7676 15.0587 66.769 15.0587C65.5737 15.0587 64.8928 15.5883 64.8928 16.481H63.6521C63.6521 14.9376 64.923 13.9239 66.8295 13.9239C68.6603 13.9239 69.9011 14.8923 69.9011 16.8895V21.5347H68.6906L68.5393 20.3393C68.161 21.1867 67.1473 21.7162 65.9519 21.7162ZM66.3605 20.6117C67.7071 20.6117 68.5242 19.7341 68.5242 18.3421V17.9487L66.6328 18.1C65.377 18.221 64.8625 18.7052 64.8625 19.4315C64.8625 20.2183 65.4375 20.6117 66.3605 20.6117ZM73.3233 21.5347H71.9011V10.3984H73.3233V21.5347ZM76.8696 21.5347H75.4473V10.3984H76.8696V21.5347ZM82.1559 21.7162C79.9771 21.7162 78.4792 20.1426 78.4792 17.8428C78.4792 15.5277 79.9469 13.9239 82.0954 13.9239C84.1986 13.9239 85.5755 15.3764 85.5755 17.5704V18.1L79.8561 18.1151C79.962 19.6736 80.779 20.536 82.1862 20.536C83.2908 20.536 84.017 20.0821 84.2591 19.2348H85.5906C85.2275 20.8235 83.9868 21.7162 82.1559 21.7162ZM82.0954 15.1192C80.8547 15.1192 80.0679 15.8606 79.8863 17.1619H84.1532C84.1532 15.9363 83.3513 15.1192 82.0954 15.1192ZM89.1783 21.5347H87.756V15.331H86.3034V14.1357H87.756V11.8207H89.1783V14.1357H90.6308V15.331H89.1783V21.5347ZM95.026 21.7162C92.8471 21.7162 91.3492 20.1426 91.3492 17.8428C91.3492 15.5277 92.8169 13.9239 94.9654 13.9239C97.0686 13.9239 98.4455 15.3764 98.4455 17.5704V18.1L92.7261 18.1151C92.832 19.6736 93.6491 20.536 95.0562 20.536C96.1608 20.536 96.8871 20.0821 97.1291 19.2348H98.4607C98.0975 20.8235 96.8568 21.7162 95.026 21.7162ZM94.9654 15.1192C93.7247 15.1192 92.9379 15.8606 92.7564 17.1619H97.0232C97.0232 15.9363 96.2213 15.1192 94.9654 15.1192Z" fill="white"/>
<rect x="215.844" y="190.083" width="139.468" height="50.9169" fill="#FFF8D1"/>
<rect y="56.7031" width="216.95" height="134.487" fill="#D54F2F"/>
<rect y="191.19" width="216.95" height="49.81" fill="#563714"/>
<rect x="216.953" y="56.7031" width="138.361" height="134.487" fill="#545724"/>
<path d="M151.917 175.34H153.246L153.617 173.414H152.077L152.316 172.245H153.857L154.375 169.575H155.61L155.092 172.245H157.124L157.642 169.575H158.891L158.373 172.245H159.741L159.515 173.414H158.134L157.762 175.34H159.249L159.023 176.508H157.523L157.005 179.178H155.769L156.287 176.508H154.242L153.724 179.178H152.488L153.006 176.508H151.678L151.917 175.34ZM154.481 175.34H156.513L156.898 173.414H154.853L154.481 175.34ZM164.633 179.178H161.458V169.575H164.579C167.449 169.575 169.388 171.514 169.388 174.383C169.388 177.239 167.475 179.178 164.633 179.178ZM164.487 170.77H162.76V177.97H164.54C166.678 177.97 168.033 176.588 168.033 174.383C168.033 172.152 166.678 170.77 164.487 170.77ZM173.807 179.338C171.841 179.338 170.566 178.089 170.566 176.176H171.854C171.854 177.412 172.611 178.169 173.833 178.169C175.135 178.169 175.972 177.305 175.972 176.004C175.972 174.768 175.188 173.852 173.847 173.852C173.036 173.852 172.292 174.237 171.854 174.782L170.752 174.503L171.921 169.575H176.729V170.77H172.864L172.226 173.321C172.731 172.935 173.368 172.736 174.086 172.736C176.038 172.736 177.3 174.104 177.3 175.951C177.3 177.943 175.879 179.338 173.807 179.338ZM185.586 177.239H184.444V179.178H183.195V177.239H178.227V176.083L182.757 169.575H184.444V176.083H185.586V177.239ZM179.635 176.083H183.195V170.956L179.635 176.083ZM192.41 175.1H188.638V179.178H187.336V169.575H193.127V170.77H188.638V173.918H192.41V175.1ZM200.681 179.165L194.199 179.178V178.182L197.294 175.512C198.848 174.171 199.286 173.52 199.286 172.497C199.286 171.288 198.595 170.571 197.44 170.571C196.258 170.571 195.487 171.434 195.461 172.803H194.159C194.199 170.744 195.501 169.402 197.453 169.402C199.379 169.402 200.614 170.571 200.614 172.417C200.614 173.785 199.937 174.755 198.237 176.229L196.244 177.956H200.681V179.165ZM207.418 175.1H203.645V179.178H202.344V169.575H208.135V170.77H203.645V173.918H207.418V175.1Z" fill="white"/>
<path d="M155.784 226.257H157.113L157.485 224.331H155.944L156.183 223.162H157.724L158.242 220.492H159.477L158.959 223.162H160.991L161.509 220.492H162.758L162.24 223.162H163.608L163.382 224.331H162.001L161.629 226.257H163.116L162.891 227.425H161.39L160.872 230.095H159.636L160.154 227.425H158.109L157.591 230.095H156.356L156.874 227.425H155.545L155.784 226.257ZM158.348 226.257H160.38L160.765 224.331H158.72L158.348 226.257ZM168.088 230.255C166.122 230.255 164.847 229.006 164.847 227.093H166.135C166.135 228.329 166.893 229.086 168.115 229.086C169.416 229.086 170.253 228.222 170.253 226.921C170.253 225.685 169.469 224.769 168.128 224.769C167.318 224.769 166.574 225.154 166.135 225.699L165.033 225.42L166.202 220.492H171.01V221.687H167.145L166.507 224.238C167.012 223.852 167.65 223.653 168.367 223.653C170.32 223.653 171.581 225.021 171.581 226.868C171.581 228.86 170.16 230.255 168.088 230.255ZM173.93 223.534L176.175 220.492H177.689L175.285 223.68C175.617 223.547 175.962 223.48 176.294 223.48C178.287 223.48 179.628 224.915 179.628 226.814C179.628 228.82 178.114 230.255 176.135 230.255C174.143 230.255 172.602 228.754 172.602 226.814C172.602 225.672 172.947 224.875 173.93 223.534ZM173.93 226.828C173.93 228.143 174.833 229.086 176.135 229.086C177.41 229.086 178.313 228.143 178.313 226.828C178.313 225.513 177.41 224.583 176.135 224.583C174.833 224.583 173.93 225.513 173.93 226.828ZM183.629 225.127H182.673V224.264L185.396 221.647H181.079V220.492H187.043V221.541L184.413 224.052C186.047 224.251 187.282 225.353 187.282 227.08C187.282 229.019 185.821 230.255 183.869 230.255C181.982 230.255 180.628 229.099 180.628 227.107H181.916C181.916 228.355 182.686 229.086 183.895 229.086C185.144 229.086 185.954 228.289 185.954 227.053C185.954 225.898 185.157 225.127 183.629 225.127ZM188.092 220.492H194.8V221.687L191.161 230.095H189.806L193.485 221.687H188.092V220.492ZM197.552 221.661H195.533V220.492H198.801V230.095H197.552V221.661ZM207.717 228.156H206.575V230.095H205.326V228.156H200.358V227L204.888 220.492H206.575V227H207.717V228.156ZM201.766 227H205.326V221.873L201.766 227Z" fill="white"/>
<path d="M293.597 226.257H294.925L295.297 224.331H293.756L293.995 223.162H295.536L296.054 220.492H297.29L296.772 223.162H298.804L299.322 220.492H300.57L300.052 223.162H301.42L301.195 224.331H299.813L299.441 226.257H300.929L300.703 227.425H299.202L298.684 230.095H297.449L297.967 227.425H295.921L295.403 230.095H294.168L294.686 227.425H293.358L293.597 226.257ZM296.161 226.257H298.193L298.578 224.331H296.532L296.161 226.257ZM308.212 226.017H304.439V230.095H303.138V220.492H308.929V221.687H304.439V224.835H308.212V226.017ZM315.579 226.017H311.807V230.095H310.505V220.492H316.297V221.687H311.807V224.835H315.579V226.017ZM322.947 226.017H319.175V230.095H317.873V220.492H323.664V221.687H319.175V224.835H322.947V226.017ZM324.749 227.425C324.749 226.27 325.427 225.34 326.49 224.955C325.586 224.57 325.095 223.813 325.095 222.843C325.095 221.342 326.383 220.319 328.296 220.319C330.182 220.319 331.457 221.342 331.457 222.856C331.457 223.839 330.952 224.596 330.049 224.955C331.125 225.3 331.816 226.257 331.816 227.439C331.816 229.126 330.408 230.255 328.283 230.255C326.144 230.255 324.749 229.126 324.749 227.425ZM326.29 222.923C326.29 223.866 327.074 224.477 328.269 224.477C329.478 224.477 330.235 223.879 330.235 222.949C330.235 222.033 329.478 221.448 328.269 221.448C327.074 221.448 326.29 222.033 326.29 222.923ZM326.025 227.332C326.025 228.408 326.915 229.099 328.283 229.099C329.637 229.099 330.527 228.408 330.527 227.332C330.527 226.27 329.651 225.592 328.269 225.592C326.901 225.592 326.025 226.27 326.025 227.332ZM336.717 230.095H333.543V220.492H336.664C339.533 220.492 341.472 222.431 341.472 225.3C341.472 228.156 339.56 230.095 336.717 230.095ZM336.571 221.687H334.844V228.886H336.624C338.763 228.886 340.118 227.505 340.118 225.3C340.118 223.069 338.763 221.687 336.571 221.687ZM344.497 221.661H342.478V220.492H345.745V230.095H344.497V221.661Z" fill="#111111"/>
<path d="M291.933 175.34H293.261L293.633 173.414H292.092L292.331 172.245H293.872L294.39 169.575H295.625L295.107 172.245H297.14L297.658 169.575H298.906L298.388 172.245H299.756L299.531 173.414H298.149L297.777 175.34H299.265L299.039 176.508H297.538L297.02 179.178H295.785L296.303 176.508H294.257L293.739 179.178H292.504L293.022 176.508H291.694L291.933 175.34ZM294.496 175.34H296.529L296.914 173.414H294.868L294.496 175.34ZM304.236 179.338C302.271 179.338 300.996 178.089 300.996 176.176H302.284C302.284 177.412 303.041 178.169 304.263 178.169C305.565 178.169 306.402 177.305 306.402 176.004C306.402 174.768 305.618 173.852 304.276 173.852C303.466 173.852 302.722 174.237 302.284 174.782L301.181 174.503L302.35 169.575H307.159V170.77H303.293L302.656 173.321C303.161 172.935 303.798 172.736 304.515 172.736C306.468 172.736 307.73 174.104 307.73 175.951C307.73 177.943 306.309 179.338 304.236 179.338ZM316.016 177.239H314.874V179.178H313.625V177.239H308.657V176.083L313.187 169.575H314.874V176.083H316.016V177.239ZM310.065 176.083H313.625V170.956L310.065 176.083ZM320.386 179.338C318.42 179.338 317.145 178.089 317.145 176.176H318.433C318.433 177.412 319.19 178.169 320.412 178.169C321.714 178.169 322.551 177.305 322.551 176.004C322.551 174.768 321.767 173.852 320.426 173.852C319.615 173.852 318.872 174.237 318.433 174.782L317.331 174.503L318.5 169.575H323.308V170.77H319.443L318.805 173.321C319.31 172.935 319.947 172.736 320.665 172.736C322.617 172.736 323.879 174.104 323.879 175.951C323.879 177.943 322.458 179.338 320.386 179.338ZM324.409 169.575H331.117V170.77L327.478 179.178H326.123L329.802 170.77H324.409V169.575ZM338.219 179.165L331.737 179.178V178.182L334.832 175.512C336.386 174.171 336.824 173.52 336.824 172.497C336.824 171.288 336.134 170.571 334.978 170.571C333.796 170.571 333.025 171.434 332.999 172.803H331.697C331.737 170.744 333.039 169.402 334.991 169.402C336.917 169.402 338.153 170.571 338.153 172.417C338.153 173.785 337.475 174.755 335.775 176.229L333.783 177.956H338.219V179.165ZM346.317 177.239H345.175V179.178H343.926V177.239H338.958V176.083L343.488 169.575H345.175V176.083H346.317V177.239ZM340.366 176.083H343.926V170.956L340.366 176.083Z" fill="white"/>
</svg>
