<svg width="642" height="333" viewBox="0 0 642 333" fill="none" xmlns="http://www.w3.org/2000/svg">
<rect x="390" y="241" width="252" height="92" fill="#FFF8D1"/>
<rect width="392" height="243" fill="#D54F2F"/>
<rect y="243" width="392" height="90" fill="#563714"/>
<rect x="392" width="250" height="243" fill="#545724"/>
<path d="M274.488 214.064H276.888L277.56 210.584H274.776L275.208 208.472H277.992L278.928 203.648H281.16L280.224 208.472H283.896L284.832 203.648H287.088L286.152 208.472H288.624L288.216 210.584H285.72L285.048 214.064H287.736L287.328 216.176H284.616L283.68 221H281.448L282.384 216.176H278.688L277.752 221H275.52L276.456 216.176H274.056L274.488 214.064ZM279.12 214.064H282.792L283.488 210.584H279.792L279.12 214.064ZM297.463 221H291.727V203.648H297.367C302.551 203.648 306.055 207.152 306.055 212.336C306.055 217.496 302.599 221 297.463 221ZM297.199 205.808H294.079V218.816H297.295C301.159 218.816 303.607 216.32 303.607 212.336C303.607 208.304 301.159 205.808 297.199 205.808ZM314.039 221.288C310.487 221.288 308.183 219.032 308.183 215.576H310.511C310.511 217.808 311.879 219.176 314.087 219.176C316.439 219.176 317.951 217.616 317.951 215.264C317.951 213.032 316.535 211.376 314.111 211.376C312.647 211.376 311.303 212.072 310.511 213.056L308.519 212.552L310.631 203.648H319.319V205.808H312.335L311.183 210.416C312.095 209.72 313.247 209.36 314.543 209.36C318.071 209.36 320.351 211.832 320.351 215.168C320.351 218.768 317.783 221.288 314.039 221.288ZM335.323 217.496H333.259V221H331.003V217.496H322.027V215.408L330.211 203.648H333.259V215.408H335.323V217.496ZM324.571 215.408H331.003V206.144L324.571 215.408ZM347.653 213.632H340.837V221H338.485V203.648H348.949V205.808H340.837V211.496H347.653V213.632ZM362.597 220.976L350.885 221V219.2L356.477 214.376C359.285 211.952 360.077 210.776 360.077 208.928C360.077 206.744 358.829 205.448 356.741 205.448C354.605 205.448 353.213 207.008 353.165 209.48H350.813C350.885 205.76 353.237 203.336 356.765 203.336C360.245 203.336 362.477 205.448 362.477 208.784C362.477 211.256 361.253 213.008 358.181 215.672L354.581 218.792H362.597V220.976ZM374.77 213.632H367.954V221H365.602V203.648H376.066V205.808H367.954V211.496H374.77V213.632Z" fill="white"/>
<path d="M281.488 306.064H283.888L284.56 302.584H281.776L282.208 300.472H284.992L285.928 295.648H288.16L287.224 300.472H290.896L291.832 295.648H294.088L293.152 300.472H295.624L295.216 302.584H292.72L292.048 306.064H294.736L294.328 308.176H291.616L290.68 313H288.448L289.384 308.176H285.688L284.752 313H282.52L283.456 308.176H281.056L281.488 306.064ZM286.12 306.064H289.792L290.488 302.584H286.792L286.12 306.064ZM303.719 313.288C300.167 313.288 297.863 311.032 297.863 307.576H300.191C300.191 309.808 301.559 311.176 303.767 311.176C306.119 311.176 307.631 309.616 307.631 307.264C307.631 305.032 306.215 303.376 303.791 303.376C302.327 303.376 300.983 304.072 300.191 305.056L298.199 304.552L300.311 295.648H308.999V297.808H302.015L300.863 302.416C301.775 301.72 302.927 301.36 304.223 301.36C307.751 301.36 310.031 303.832 310.031 307.168C310.031 310.768 307.463 313.288 303.719 313.288ZM314.275 301.144L318.331 295.648H321.067L316.723 301.408C317.323 301.168 317.947 301.048 318.547 301.048C322.147 301.048 324.571 303.64 324.571 307.072C324.571 310.696 321.835 313.288 318.259 313.288C314.659 313.288 311.875 310.576 311.875 307.072C311.875 305.008 312.499 303.568 314.275 301.144ZM314.275 307.096C314.275 309.472 315.907 311.176 318.259 311.176C320.563 311.176 322.195 309.472 322.195 307.096C322.195 304.72 320.563 303.04 318.259 303.04C315.907 303.04 314.275 304.72 314.275 307.096ZM331.8 304.024H330.072V302.464L334.992 297.736H327.192V295.648H337.968V297.544L333.216 302.08C336.168 302.44 338.4 304.432 338.4 307.552C338.4 311.056 335.76 313.288 332.232 313.288C328.824 313.288 326.376 311.2 326.376 307.6H328.704C328.704 309.856 330.096 311.176 332.28 311.176C334.536 311.176 336 309.736 336 307.504C336 305.416 334.56 304.024 331.8 304.024ZM339.864 295.648H351.984V297.808L345.408 313H342.96L349.608 297.808H339.864V295.648ZM356.957 297.76H353.309V295.648H359.213V313H356.957V297.76ZM375.323 309.496H373.259V313H371.003V309.496H362.027V307.408L370.211 295.648H373.259V307.408H375.323V309.496ZM364.571 307.408H371.003V298.144L364.571 307.408Z" fill="white"/>
<path d="M530.488 306.064H532.888L533.56 302.584H530.776L531.208 300.472H533.992L534.928 295.648H537.16L536.224 300.472H539.896L540.832 295.648H543.088L542.152 300.472H544.624L544.216 302.584H541.72L541.048 306.064H543.736L543.328 308.176H540.616L539.68 313H537.448L538.384 308.176H534.688L533.752 313H531.52L532.456 308.176H530.056L530.488 306.064ZM535.12 306.064H538.792L539.488 302.584H535.792L535.12 306.064ZM556.895 305.632H550.079V313H547.727V295.648H558.191V297.808H550.079V303.496H556.895V305.632ZM570.207 305.632H563.391V313H561.039V295.648H571.503V297.808H563.391V303.496H570.207V305.632ZM583.52 305.632H576.704V313H574.352V295.648H584.816V297.808H576.704V303.496H583.52V305.632ZM586.776 308.176C586.776 306.088 588 304.408 589.92 303.712C588.288 303.016 587.4 301.648 587.4 299.896C587.4 297.184 589.728 295.336 593.184 295.336C596.592 295.336 598.896 297.184 598.896 299.92C598.896 301.696 597.984 303.064 596.352 303.712C598.296 304.336 599.544 306.064 599.544 308.2C599.544 311.248 597 313.288 593.16 313.288C589.296 313.288 586.776 311.248 586.776 308.176ZM589.56 300.04C589.56 301.744 590.976 302.848 593.136 302.848C595.32 302.848 596.688 301.768 596.688 300.088C596.688 298.432 595.32 297.376 593.136 297.376C590.976 297.376 589.56 298.432 589.56 300.04ZM589.08 308.008C589.08 309.952 590.688 311.2 593.16 311.2C595.608 311.2 597.216 309.952 597.216 308.008C597.216 306.088 595.632 304.864 593.136 304.864C590.664 304.864 589.08 306.088 589.08 308.008ZM608.4 313H602.664V295.648H608.304C613.488 295.648 616.992 299.152 616.992 304.336C616.992 309.496 613.536 313 608.4 313ZM608.136 297.808H605.016V310.816H608.232C612.096 310.816 614.544 308.32 614.544 304.336C614.544 300.304 612.096 297.808 608.136 297.808ZM622.457 297.76H618.809V295.648H624.713V313H622.457V297.76Z" fill="#111111"/>
<path d="M527.488 214.064H529.888L530.56 210.584H527.776L528.208 208.472H530.992L531.928 203.648H534.16L533.224 208.472H536.896L537.832 203.648H540.088L539.152 208.472H541.624L541.216 210.584H538.72L538.048 214.064H540.736L540.328 216.176H537.616L536.68 221H534.448L535.384 216.176H531.688L530.752 221H528.52L529.456 216.176H527.056L527.488 214.064ZM532.12 214.064H535.792L536.488 210.584H532.792L532.12 214.064ZM549.719 221.288C546.167 221.288 543.863 219.032 543.863 215.576H546.191C546.191 217.808 547.559 219.176 549.767 219.176C552.119 219.176 553.631 217.616 553.631 215.264C553.631 213.032 552.215 211.376 549.791 211.376C548.327 211.376 546.983 212.072 546.191 213.056L544.199 212.552L546.311 203.648H554.999V205.808H548.015L546.863 210.416C547.775 209.72 548.927 209.36 550.223 209.36C553.751 209.36 556.031 211.832 556.031 215.168C556.031 218.768 553.463 221.288 549.719 221.288ZM571.003 217.496H568.939V221H566.683V217.496H557.707V215.408L565.891 203.648H568.939V215.408H571.003V217.496ZM560.251 215.408H566.683V206.144L560.251 215.408ZM578.899 221.288C575.347 221.288 573.043 219.032 573.043 215.576H575.371C575.371 217.808 576.739 219.176 578.947 219.176C581.299 219.176 582.811 217.616 582.811 215.264C582.811 213.032 581.395 211.376 578.971 211.376C577.507 211.376 576.163 212.072 575.371 213.056L573.379 212.552L575.491 203.648H584.179V205.808H577.195L576.043 210.416C576.955 209.72 578.107 209.36 579.403 209.36C582.931 209.36 585.211 211.832 585.211 215.168C585.211 218.768 582.643 221.288 578.899 221.288ZM586.169 203.648H598.289V205.808L591.713 221H589.265L595.913 205.808H586.169V203.648ZM611.121 220.976L599.409 221V219.2L605.001 214.376C607.809 211.952 608.601 210.776 608.601 208.928C608.601 206.744 607.353 205.448 605.265 205.448C603.129 205.448 601.737 207.008 601.689 209.48H599.337C599.409 205.76 601.761 203.336 605.289 203.336C608.769 203.336 611.001 205.448 611.001 208.784C611.001 211.256 609.777 213.008 606.705 215.672L603.105 218.792H611.121V220.976ZM625.753 217.496H623.689V221H621.433V217.496H612.457V215.408L620.641 203.648H623.689V215.408H625.753V217.496ZM615.001 215.408H621.433V206.144L615.001 215.408Z" fill="white"/>
</svg>
