<svg width="105" height="105" viewBox="0 0 105 105" fill="none" xmlns="http://www.w3.org/2000/svg">
<path fill-rule="evenodd" clip-rule="evenodd" d="M18.5768 85.2988C16.5278 85.4427 14.4428 85.4787 12.25 85.1548C20.9494 97.0693 35.0049 104.772 50.8579 104.772C58.8742 104.772 66.4592 102.793 73.1095 99.301C72.067 98.725 70.9886 97.9691 69.5507 97.1772C64.4461 99.049 58.9102 100.057 53.1585 100.057C39.5343 100.093 27.2762 94.4056 18.5768 85.2988Z" fill="#01A147"/>
<mask id="mask0_2806_27879" style="mask-type:luminance" maskUnits="userSpaceOnUse" x="24" y="18" width="7" height="9">
<path d="M30.022 24.6077C29.6984 25.4715 29.4108 25.8675 28.5481 26.1915H28.5122C28.6559 25.9755 28.7278 25.6875 28.7278 25.3996C28.7278 24.7876 28.4043 24.3197 28.0089 24.2117C27.9729 24.6796 27.3978 24.6437 27.218 24.4277C26.9305 24.1037 27.0742 23.5278 27.3259 23.3118C26.8226 23.4558 26.4991 23.5638 26.1037 23.9237C25.7442 24.2477 25.5285 24.6077 25.4925 25.1116C25.4925 25.3996 25.5285 25.6515 25.6004 25.9035C25.3488 25.7235 25.0971 25.5075 24.8814 25.2196C24.6298 24.8956 24.486 24.4997 24.3782 24.1037C24.1625 23.2398 24.2344 22.3759 24.3063 22.16C24.3782 21.836 24.4141 21.4761 24.5579 21.2241C24.8095 20.7561 25.0612 20.3602 25.4925 20.0362C25.3128 20.5402 25.6723 21.1521 26.3193 21.0081C26.3193 21.0081 26.3193 21.0081 26.3553 21.0081C26.7867 20.8281 27.0383 20.5042 27.1821 20.1802C27.3978 19.6403 27.1461 18.8484 26.6788 18.5244C27.218 18.4884 27.7932 18.7404 28.1527 19.0284C28.5481 19.3523 28.7638 19.7483 28.7997 20.3242C28.8716 21.1881 27.937 22.016 28.4762 22.5919C29.1233 23.0239 29.4827 21.872 29.0514 21.2961C29.7344 21.584 29.986 22.196 30.1298 22.7719C30.3095 23.5278 30.2736 23.9957 30.022 24.6077Z" fill="white"/>
</mask>
<g mask="url(#mask0_2806_27879)">
<path d="M30.2783 18.5232H24.2031V26.2262H30.2783V18.5232Z" fill="url(#paint0_linear_2806_27879)"/>
</g>
<path d="M30.0939 26.4131H24.2344V28.5728H30.0939V26.4131Z" fill="#0C3270"/>
<path d="M29.3575 28.8574H25.0078V29.7213H29.3575V28.8574Z" fill="#0C3270"/>
<path fill-rule="evenodd" clip-rule="evenodd" d="M28.8025 29.9761L28.2992 43.0064H26.0345L25.5312 29.9761H28.8025Z" fill="#0C3270"/>
<path fill-rule="evenodd" clip-rule="evenodd" d="M66.2802 27.6338C63.8357 29.3256 62.6854 32.1692 62.6494 34.9048C62.6135 37.5325 63.5481 40.0882 65.3096 41.456C69.9109 45.0195 78.3586 43.2918 80.8749 36.2007C81.2344 35.1928 81.8455 32.6371 81.5939 31.6293C81.3782 32.9251 81.1985 33.609 80.7671 34.7249C78.6102 40.8801 71.9958 43.7957 68.6168 40.6641C68.4011 40.4481 68.1854 40.1962 67.9697 39.9442C67.8978 39.8722 67.8619 39.8002 67.79 39.7282C67.2867 39.0083 66.8553 38.2164 66.5677 37.2805C66.5318 37.1006 66.4599 36.9206 66.4239 36.7766C65.705 34.1129 65.9926 31.0173 67.7181 29.1816C68.1494 28.6776 68.7246 28.2817 69.3357 27.9937C70.0187 27.6698 70.8455 27.5258 71.7442 27.5258C72.3194 27.5258 72.8586 27.5618 73.29 27.6698C73.7213 27.7778 74.1168 27.9217 74.4403 28.1737L76.4534 26.8779C75.5906 26.6259 74.7638 26.4819 74.0089 26.3379C73.5416 26.2659 73.0743 26.23 72.571 26.194C72.2475 26.158 71.9239 26.158 71.6004 26.158C70.0187 26.158 68.6887 26.4099 67.5383 26.9499C67.107 27.1298 66.6756 27.3818 66.2802 27.6338Z" fill="#0C3270"/>
<path fill-rule="evenodd" clip-rule="evenodd" d="M81.7362 30.228L82.3833 32.5677H81.5565L80.7656 32.5317L81.2329 31.3799L81.7362 30.228Z" fill="#01A147"/>
<path fill-rule="evenodd" clip-rule="evenodd" d="M90.1821 56.8637L89.0318 44.1933C88.9959 43.8694 88.7442 43.5814 88.4207 43.4734C88.0612 43.3655 87.7018 43.4374 87.4501 43.7254C86.3717 44.9133 85.6527 46.4611 85.437 48.1528L84.754 56.9717L81.6985 65.5746C81.5906 65.9706 81.4109 66.3665 81.1233 66.6905C78.8227 69.3541 73.5743 73.4936 72.7475 74.1415C72.6756 74.1775 72.5678 74.1775 72.4959 74.1415C72.424 74.0695 72.424 73.9615 72.4959 73.8896C73.4665 73.1337 77.9959 69.6421 80.7279 66.6545C81.0514 66.2945 81.2312 65.8986 81.339 65.4666L83.1004 57.8716C83.1004 57.7996 83.0645 57.5836 83.0645 57.4757C82.9207 56.0358 81.3031 55.1719 79.937 55.8559C79.0743 56.2878 78.3913 56.9717 77.9599 57.7636L74.7246 63.9548C74.0416 65.0707 73.107 66.0066 71.9926 66.6905L62.2508 72.9897C59.6625 74.6815 57.5416 76.9132 56.0318 79.5768C55.3848 80.7647 54.8815 81.9885 54.558 83.2844C54.2344 84.5802 54.0547 85.912 54.0547 87.2439L54.0906 93.2191H66.7083L66.5645 88.3957C66.5285 87.0279 67.1037 85.732 68.1821 84.8322L83.3521 73.8896C83.7835 73.5656 84.1789 73.2056 84.5024 72.7737C88.6723 67.3744 89.571 60.3913 90.1102 58.1956C90.2181 57.7996 90.2181 57.3317 90.1821 56.8637Z" fill="#0C3270"/>
<path fill-rule="evenodd" clip-rule="evenodd" d="M12.3968 56.8637L13.5471 44.1933C13.5831 43.8694 13.8347 43.5814 14.1582 43.4734C14.5177 43.3655 14.8772 43.4374 15.1288 43.7254C16.2072 44.9133 16.9262 46.4611 17.1419 48.1528L17.8249 56.9717L20.8804 65.5746C20.9883 65.9706 21.168 66.3665 21.4556 66.6905C23.7563 69.3541 29.0046 73.4936 29.8314 74.1415C29.9033 74.1775 30.0112 74.1775 30.0831 74.1415C30.155 74.0695 30.155 73.9615 30.0831 73.8896C29.1125 73.1337 24.5831 69.6421 21.851 66.6545C21.5275 66.2945 21.3478 65.8986 21.2399 65.4666L19.4785 57.8716C19.4785 57.7996 19.5144 57.5836 19.5144 57.4757C19.6582 56.0358 21.2759 55.1719 22.6419 55.8559C23.5046 56.2878 24.1876 56.9717 24.619 57.7636L27.8543 63.9548C28.5373 65.0707 29.4719 66.0066 30.5863 66.6905L40.3282 72.9897C42.9164 74.6815 45.0373 76.9132 46.5471 79.5768C47.1942 80.7647 47.6974 81.9885 48.021 83.2844C48.3445 84.5802 48.5242 85.912 48.5242 87.2439L48.4883 93.2191H35.8706L36.0144 88.3957C36.0504 87.0279 35.4752 85.732 34.3968 84.8322L19.2268 73.8896C18.7955 73.5656 18.4 73.2056 18.0765 72.7737C13.9066 67.3744 13.0079 60.3913 12.4687 58.1956C12.3608 57.7996 12.3249 57.3317 12.3968 56.8637Z" fill="#0C3270"/>
<path fill-rule="evenodd" clip-rule="evenodd" d="M55.8227 57.978V73.4921C54.3848 74.3919 53.558 75.5078 52.875 76.7316V59.5258L55.8227 57.978Z" fill="#01A147"/>
<path fill-rule="evenodd" clip-rule="evenodd" d="M60.3149 54.9558V70.7938C59.5959 71.0458 57.8705 72.1976 57.3672 72.6655V56.6116L60.3149 54.9558Z" fill="#01A147"/>
<path fill-rule="evenodd" clip-rule="evenodd" d="M64.8353 51.6077V68.9934C64.1882 69.1734 63.2536 69.4254 61.8876 70.2893L61.6719 53.2994L64.8353 51.6077Z" fill="#01A147"/>
<path fill-rule="evenodd" clip-rule="evenodd" d="M63.735 43.5444C63.1958 44.6603 62.8003 45.7402 62.5847 46.784V48.6918C64.2383 48.9437 64.4539 50.1316 62.9082 52.2193C63.2677 50.2756 63.8788 49.0157 61.5781 49.4837L61.65 47.3599C62.0814 45.5602 62.8722 44.1924 63.735 43.5444Z" fill="#0C3270"/>
<path fill-rule="evenodd" clip-rule="evenodd" d="M58.8828 48.6196C59.2063 48.3676 59.5299 48.1157 59.9253 47.9357C60.105 47.8277 60.3207 47.7557 60.4645 47.8997C60.5724 47.9717 60.5724 48.1157 60.5724 48.2596C60.7521 50.5273 60.2488 52.7591 59.7096 54.9548C60.8599 52.6871 61.1475 50.0954 61.3273 47.5757C61.3632 47.2518 61.3273 46.8198 61.0397 46.6758C60.7161 46.4959 60.3567 46.7838 60.105 47.0358C59.6737 47.4317 59.0626 48.0437 58.8828 48.6196Z" fill="#0C3270"/>
<path fill-rule="evenodd" clip-rule="evenodd" d="M61.8582 45.3087C61.8582 45.6686 61.5706 45.9926 61.1752 45.9926C60.8157 45.9926 60.4922 45.7046 60.4922 45.3087C60.4922 44.9487 60.7798 44.6248 61.1752 44.6248C61.5706 44.6248 61.8582 44.9487 61.8582 45.3087Z" fill="#0C3270"/>
<path fill-rule="evenodd" clip-rule="evenodd" d="M63.83 41.457L64.0457 42.2849L64.9084 42.3209L64.2254 42.7889L64.4411 43.6168L63.7941 43.0768L63.0751 43.5808L63.3627 42.7529L62.6797 42.2489L63.5424 42.2849L63.83 41.457Z" fill="#01A147"/>
<path fill-rule="evenodd" clip-rule="evenodd" d="M56.6161 49.6301C56.1488 50.53 55.8253 51.4299 55.6815 52.2938V53.8416C57.0475 54.0576 57.2272 55.0294 55.9691 56.7572C56.2566 55.1374 56.7599 54.0936 54.8906 54.4895L54.9625 52.7257C55.2861 51.2859 55.9331 50.1701 56.6161 49.6301Z" fill="#0C3270"/>
<path fill-rule="evenodd" clip-rule="evenodd" d="M52.6484 53.8034C52.9001 53.5874 53.1877 53.4074 53.5112 53.2274C53.655 53.1555 53.8347 53.0835 53.9785 53.1914C54.0504 53.2634 54.0863 53.3714 54.0863 53.4794C54.2301 55.3512 53.8347 57.1869 53.3674 58.9867C54.338 57.115 54.5537 54.9912 54.6975 52.9035C54.7334 52.6155 54.6975 52.2916 54.4458 52.1836C54.1942 52.0396 53.8707 52.2556 53.655 52.4715C53.2955 52.8315 52.7563 53.3354 52.6484 53.8034Z" fill="#0C3270"/>
<path fill-rule="evenodd" clip-rule="evenodd" d="M55.1113 51.0673C55.1113 51.3912 54.8596 51.6432 54.5361 51.6432C54.2126 51.6432 53.9609 51.3912 53.9609 51.0673C53.9609 50.7433 54.2126 50.5273 54.5361 50.5273C54.8596 50.5273 55.1113 50.7793 55.1113 51.0673Z" fill="#0C3270"/>
<path fill-rule="evenodd" clip-rule="evenodd" d="M56.7237 47.8999L56.9034 48.5838H57.6224L57.0472 48.9798L57.227 49.6637L56.6878 49.2317L56.1126 49.6277L56.3283 48.9798L55.7891 48.5478L56.4721 48.5838L56.7237 47.8999Z" fill="#01A147"/>
<path fill-rule="evenodd" clip-rule="evenodd" d="M47.8072 75.5096C47.8072 75.5455 47.7713 75.5456 47.7713 75.5815C47.7713 75.5815 47.7713 75.5815 47.7354 75.5815C47.7354 75.4376 47.7713 75.3296 47.7713 75.1856C47.8072 74.3217 47.7353 73.4938 47.5556 72.6659C47.4118 72.018 47.1961 71.3701 47.0164 70.7222C47.0164 70.6862 46.9804 70.6502 46.9804 70.5782V70.5422C46.9445 70.5062 46.9445 70.5062 46.9445 70.4702C46.9445 70.4702 46.9445 70.4702 46.9445 70.4342V70.3982C46.9445 70.3622 46.9445 70.3622 46.9086 70.3262C46.9086 70.3262 46.8726 70.2902 46.9086 70.2902C46.8726 70.2902 46.8726 70.2542 46.8726 70.2182C46.8726 70.2182 46.8726 70.2182 46.8726 70.1822V70.1462V70.1102V70.0742C46.8367 70.0383 46.8367 70.0383 46.8367 70.0023C46.8367 70.0023 46.8007 69.9663 46.8367 69.9663C46.8007 69.9663 46.8007 69.9303 46.8007 69.8943C46.6929 69.7503 46.6569 69.5703 46.585 69.4263C46.2615 68.7064 45.938 68.0225 45.5425 67.3746C45.1471 66.7267 44.7517 66.1148 44.3203 65.4668C44.2844 65.3948 44.2125 65.3589 44.2125 65.2869C44.1765 65.2869 44.1765 65.2509 44.1765 65.2149C44.1406 65.2149 44.1406 65.1789 44.1406 65.1429C44.1046 65.1069 44.0687 65.0349 44.0327 64.9989C43.8889 64.9269 43.817 64.7829 43.7452 64.6749C43.0621 63.7751 42.2713 62.9112 41.4805 62.0833C41.085 61.6873 40.6537 61.2914 40.2582 60.8954C40.2582 60.8954 40.2223 60.8594 40.2223 60.8234C40.1863 60.8234 40.1504 60.7874 40.1504 60.7514C40.1144 60.7154 40.0785 60.6795 40.0425 60.6435C39.9706 60.6075 39.8987 60.5355 39.8269 60.4635C39.719 60.3915 39.6112 60.2835 39.5033 60.1755C39.4314 60.1395 39.3595 60.1035 39.3236 60.0315L39.2876 59.9955C39.2876 59.9955 39.2517 59.9955 39.2517 59.9595C39.1079 59.8516 38.9641 59.7436 38.8203 59.5996C38.8203 59.5276 38.8563 59.5276 38.8922 59.5276C38.8922 59.4916 38.9282 59.4916 38.9641 59.4916C38.9641 59.4556 39.0001 59.4556 39.036 59.4556C39.036 59.4556 39.036 59.4556 39.072 59.4556C39.1438 59.3836 39.2157 59.3476 39.2876 59.3476C39.2876 59.3476 39.3236 59.3476 39.3236 59.3116C39.3236 59.2756 39.3595 59.2756 39.3955 59.2756C39.4674 59.2036 39.5393 59.1317 39.6831 59.0957C39.6831 59.0957 39.719 59.0957 39.719 59.0597C39.719 59.0597 39.755 59.0597 39.755 59.0237H39.7909C39.7909 58.9877 39.8269 58.9877 39.8628 58.9877C39.8628 58.9517 39.8987 58.9517 39.8987 58.9517C39.8987 58.9517 39.9347 58.9517 39.9347 58.9157L39.9706 58.8797H40.0066C40.0066 58.8437 40.0425 58.8437 40.0785 58.8437C40.0785 58.8437 40.0785 58.8437 40.1144 58.8437C40.1144 58.8437 40.1504 58.8437 40.1504 58.8077L40.1863 58.7717C40.1863 58.7717 40.1863 58.7357 40.2223 58.7717C40.2582 58.7357 40.3301 58.6997 40.402 58.6637C40.438 58.6277 40.5099 58.5917 40.5818 58.5557C40.6177 58.5197 40.6536 58.4837 40.7255 58.4837C40.7615 58.4477 40.7974 58.4117 40.8693 58.3757H40.9053C40.9053 58.3397 40.9412 58.3397 40.9772 58.3397L41.0131 58.3038C41.0131 58.2678 41.0491 58.2678 41.085 58.2678C41.085 58.2678 41.085 58.2678 41.121 58.2678C41.1569 58.2318 41.1569 58.2318 41.1929 58.1958H41.2288C41.3007 58.1598 41.3367 58.1238 41.4086 58.0878C41.4086 58.0518 41.4445 58.0518 41.4805 58.0518L41.5164 58.0158C41.5164 57.9798 41.5523 57.9798 41.5523 57.9798C41.5523 57.9798 41.5523 57.9798 41.5883 57.9438H41.6242H41.6602C41.6602 57.9078 41.6961 57.9078 41.6961 57.9078C41.6961 57.9078 41.6961 57.9078 41.7321 57.9078C41.768 57.8718 41.768 57.8718 41.804 57.8718C41.804 57.8718 41.8399 57.8358 41.8399 57.8718C41.8399 57.8358 41.8759 57.8358 41.9118 57.8358C41.9478 57.7998 41.9478 57.7638 41.9837 57.7998C41.9837 57.7638 42.0197 57.7638 42.0197 57.7638C42.0197 57.7278 42.0556 57.7278 42.0916 57.7278C42.1275 57.6918 42.1275 57.6558 42.1994 57.6558C42.2353 57.5838 42.3432 57.5479 42.4151 57.5119C42.6308 57.3679 42.8824 57.2239 43.0981 57.0799C43.134 57.0799 43.134 57.0439 43.17 57.0439C43.3497 56.8999 43.5654 56.756 43.7811 56.648C44.7876 56.036 45.7942 55.3881 46.8007 54.7762C47.2321 54.5242 47.6275 54.2723 48.0589 53.9843C48.1667 53.9123 48.2386 53.9483 48.3105 54.0203C48.8857 54.4882 49.353 55.0282 49.7844 55.6041C49.8922 55.7481 50.036 55.8921 50.1079 56.072L50.1439 56.108C50.1439 56.108 50.1439 56.144 50.1798 56.144C50.2157 56.18 50.2517 56.216 50.2876 56.288C50.5033 56.576 50.6831 56.8639 50.8628 57.1879C51.1863 57.7638 51.4739 58.3757 51.6896 58.9877C51.7256 59.0597 51.7615 59.1316 51.7974 59.2036C51.8334 59.2396 51.8334 59.3116 51.7974 59.3476C51.7615 59.3476 51.7615 59.3476 51.7255 59.3116C51.2582 58.4477 50.6112 57.7638 49.9282 57.0799C49.8922 57.0439 49.8563 57.0439 49.8563 57.0079C49.7844 56.9719 49.7484 56.9359 49.7125 56.8639C49.4608 56.648 49.2092 56.432 48.9216 56.18C48.8497 56.144 48.7778 56.072 48.7419 56.036C48.67 56.0001 48.5981 55.9281 48.5621 55.8921C48.5262 55.8561 48.4903 55.8561 48.4184 55.8561C48.4184 55.8561 48.3824 55.8921 48.3824 55.8561C48.3824 55.8561 48.3824 55.8561 48.3465 55.8561C48.3105 55.8921 48.2746 55.8921 48.2386 55.9281C48.2386 55.9281 48.2386 55.9641 48.2027 55.9641C48.1308 56.036 48.0589 56.072 47.951 56.108H47.9151C47.8791 56.144 47.8432 56.18 47.8072 56.18C47.7713 56.216 47.7354 56.252 47.6994 56.252C47.6994 56.288 47.6635 56.288 47.6275 56.288C47.6275 56.288 47.6275 56.324 47.5916 56.324C47.5556 56.36 47.4837 56.396 47.4118 56.432C47.3399 56.504 47.268 56.54 47.1602 56.576C47.1602 56.612 47.1242 56.612 47.0883 56.612C47.0883 56.648 47.0523 56.648 47.0523 56.648C46.9804 56.72 46.9086 56.756 46.8007 56.8279C46.7288 56.8639 46.621 56.9359 46.5491 56.9719C46.5491 56.9719 46.5131 56.9719 46.5131 57.0079C46.5131 57.0439 46.4772 57.0439 46.4412 57.0439C46.4053 57.0799 46.3693 57.1159 46.3334 57.1159H46.2974C46.2974 57.1519 46.2615 57.1519 46.2615 57.1519C46.2615 57.1519 46.2615 57.1879 46.2255 57.1519C46.1896 57.1879 46.1536 57.2239 46.0818 57.2239C46.0818 57.2599 46.0458 57.2599 46.0099 57.2599C46.0099 57.2959 45.9739 57.2959 45.938 57.2959C45.938 57.2959 45.938 57.3319 45.902 57.3319C45.8661 57.3679 45.8301 57.4039 45.7942 57.4039C45.7582 57.4399 45.7223 57.4759 45.6863 57.4759C45.6863 57.5119 45.6504 57.5119 45.6144 57.5119H45.5785C45.5785 57.5479 45.5425 57.5479 45.5425 57.5479H45.5066H45.4706C45.3987 57.6198 45.3628 57.6558 45.255 57.6558C45.255 57.6918 45.219 57.6918 45.1831 57.6918C45.1471 57.7278 45.1112 57.7638 45.0752 57.7638C45.0393 57.7998 45.0393 57.7998 45.0033 57.7998C45.0033 57.8358 44.9674 57.8358 44.9674 57.8358C44.9314 57.8718 44.9314 57.8718 44.8955 57.8718C44.8595 57.9078 44.8236 57.9078 44.7876 57.9438H44.7517C44.7157 57.9798 44.6438 58.0158 44.5719 58.0518H44.536C44.5001 58.0518 44.5001 58.0878 44.4641 58.0878C44.4641 58.1238 44.4282 58.1238 44.4282 58.1238C44.3922 58.1598 44.3563 58.1958 44.3203 58.1958C44.3203 58.2318 44.2844 58.2318 44.2484 58.2318C44.2125 58.2678 44.1765 58.3038 44.1406 58.3038C44.0687 58.3757 43.9968 58.4477 43.8889 58.4477C43.6014 58.6277 43.3138 58.8077 43.0621 58.9517H43.0262C43.0262 58.9877 42.9903 59.0237 42.9543 59.0237C42.5229 59.2756 42.1275 59.5276 41.6961 59.7796C41.6602 59.7796 41.6602 59.7796 41.6242 59.8156C41.6242 59.8156 41.6242 59.8516 41.5883 59.8516V59.8876V59.9235C41.7321 60.0315 41.8759 60.2115 41.9837 60.3555C42.3072 60.7514 42.6308 61.1474 42.9543 61.5073C43.134 61.6873 43.2778 61.9033 43.3857 62.1553C43.4576 62.1913 43.4576 62.2273 43.4935 62.2632C43.6733 62.4792 43.853 62.7312 43.9968 62.9832C44.0327 63.0192 44.0327 63.0191 44.0327 63.0911C44.1046 63.1631 44.1765 63.2351 44.2125 63.3431C44.2484 63.3791 44.2844 63.4151 44.2844 63.4511C44.3203 63.4511 44.3203 63.4871 44.3203 63.4871C44.3563 63.5231 44.3922 63.5591 44.3922 63.5951C44.4282 63.5951 44.4282 63.6311 44.4282 63.6311C44.4282 63.6311 44.4282 63.6311 44.4282 63.6671C44.4641 63.6671 44.4641 63.7031 44.4641 63.7031C44.4641 63.7031 44.4641 63.7031 44.4641 63.7391L44.5001 63.7751C44.536 63.8111 44.5719 63.847 44.5719 63.919C44.6079 63.955 44.6438 63.991 44.6438 64.027C44.6798 64.027 44.6798 64.063 44.6798 64.063V64.099C44.7157 64.099 44.7157 64.135 44.7157 64.171C44.7876 64.243 44.8236 64.315 44.8595 64.423C44.8955 64.459 44.8955 64.495 44.9314 64.531L44.9674 64.567V64.6029C45.0033 64.6029 45.0033 64.6389 45.0033 64.6749C45.0393 64.7109 45.0752 64.7469 45.0752 64.7829C45.1112 64.7829 45.1112 64.8189 45.1112 64.8189C45.1471 64.8549 45.1831 64.8909 45.1831 64.9629C45.219 64.9629 45.219 64.9989 45.219 64.9989C45.255 64.9989 45.255 65.0349 45.255 65.0709C45.255 65.0709 45.255 65.0709 45.2909 65.1069L45.3269 65.1429C45.3628 65.1789 45.3988 65.2149 45.3988 65.2509C45.3988 65.2509 45.3987 65.2869 45.4347 65.2869C45.4706 65.3229 45.5066 65.3589 45.5066 65.3949C45.5425 65.4308 45.5785 65.4668 45.5785 65.5028C45.5785 65.5028 45.5785 65.5028 45.6144 65.5388L45.6504 65.5748V65.6108C45.6863 65.6468 45.7223 65.6828 45.7223 65.7188C45.7223 65.7188 45.7223 65.7188 45.7223 65.7548C45.7582 65.7548 45.7582 65.7908 45.7582 65.8268L45.7942 65.8628C45.7942 65.8628 45.7942 65.8628 45.7942 65.8988C45.8301 65.8988 45.8301 65.9348 45.8301 65.9348C45.8301 65.9348 45.8661 65.9348 45.8661 65.9708V66.0068C45.902 66.0428 45.938 66.0788 45.938 66.1148C45.938 66.1148 45.938 66.1508 45.9739 66.1508C46.0099 66.1867 46.0458 66.2227 46.0458 66.2947C46.0818 66.3307 46.1177 66.3667 46.1177 66.4027C46.1177 66.4027 46.1537 66.4027 46.1177 66.4387C46.1177 66.4387 46.1177 66.4747 46.1537 66.4747C46.1896 66.4747 46.1896 66.5107 46.1896 66.5467C46.2255 66.5467 46.2255 66.5827 46.2255 66.5827C46.2255 66.5827 46.2255 66.6187 46.2615 66.6187V66.6547V66.6907L46.2974 66.7267C46.2974 66.7267 46.3334 66.7267 46.2974 66.7627V66.7987C46.3334 66.8347 46.3334 66.8347 46.3334 66.8707V66.9067C46.3693 66.9067 46.3693 66.9426 46.3693 66.9786C46.4053 66.9786 46.4053 67.0146 46.4053 67.0506C46.4412 67.0506 46.4412 67.0866 46.4412 67.0866C46.4412 67.0866 46.4772 67.0866 46.4412 67.1226V67.1586C46.4772 67.1586 46.4772 67.1946 46.4772 67.2306V67.2666L46.5131 67.3026C46.5131 67.3026 46.5131 67.3026 46.5131 67.3386C46.5491 67.3746 46.585 67.4106 46.585 67.4466L46.621 67.4826C46.621 67.5186 46.6569 67.5186 46.6569 67.5546V67.5906C46.6569 67.6266 46.6929 67.6266 46.6929 67.6626V67.6986V67.7346L46.7288 67.7705C46.7288 67.7705 46.7288 67.8065 46.7648 67.8065C46.7648 67.8425 46.7648 67.8425 46.8007 67.8785V67.9145C46.8367 67.9145 46.8367 67.9505 46.8367 67.9865C46.8726 68.0225 46.8726 68.0585 46.8726 68.0945C46.8726 68.0945 46.9086 68.1305 46.8726 68.1305C46.9086 68.1305 46.9086 68.1665 46.9086 68.2025V68.2385V68.2745V68.3105V68.3465C46.9086 68.3465 46.9086 68.3465 46.9086 68.3825V68.4185C46.9445 68.4545 46.9804 68.4905 46.9804 68.5624C47.0164 68.5984 47.0164 68.6344 47.0164 68.6704C47.0523 68.7064 47.0523 68.7424 47.0523 68.7784V68.8144V68.8504C47.0523 68.8504 47.0883 68.8864 47.0523 68.8864V68.9224V68.9584V68.9944C47.0523 69.0304 47.0523 69.0304 47.0883 69.0664C47.1242 69.0664 47.1242 69.1024 47.1242 69.1384C47.304 69.4983 47.4478 69.8943 47.5556 70.2902C47.5916 70.4342 47.6635 70.6142 47.6994 70.7582C47.7354 70.7942 47.7354 70.8302 47.7354 70.8661V70.9021C47.7713 70.9381 47.7713 70.9381 47.7713 70.9741C47.8072 71.0101 47.8072 71.0101 47.8072 71.0461V71.0821C47.951 70.8661 47.951 70.9381 47.951 71.0101C47.987 71.0461 47.987 71.1181 47.987 71.1901C48.0229 71.2261 48.0229 71.2621 48.0229 71.3341C48.0589 71.3701 48.0589 71.4421 48.0589 71.4781C48.0589 71.4781 48.0948 71.5141 48.0589 71.5141V71.5501C48.0948 71.5861 48.0948 71.5861 48.0589 71.6221C48.0948 71.694 48.0948 71.73 48.0948 71.802V71.838C48.1308 71.91 48.1308 71.946 48.1308 72.018C48.1308 72.054 48.1308 72.054 48.1308 72.09C48.1667 72.126 48.1667 72.162 48.1308 72.198V72.234C48.1667 72.27 48.1667 72.306 48.1308 72.342C48.1308 72.378 48.1308 72.378 48.1308 72.4139V72.4499V72.4859C48.1667 72.7379 48.1667 73.0259 48.1667 73.2778C48.2027 73.6018 48.1667 73.8898 48.1308 74.2137C48.0948 74.7177 48.0229 75.1136 47.8072 75.5096Z" fill="#01A147"/>
<path fill-rule="evenodd" clip-rule="evenodd" d="M31.125 62.6588C31.2328 62.5508 31.3407 62.4428 31.4845 62.3708C31.844 62.0829 32.2034 61.7949 32.5629 61.507C32.9224 61.219 33.2819 60.931 33.6413 60.6071C33.6773 60.5711 33.7132 60.5711 33.7492 60.6071C34.0727 60.895 34.4322 61.075 34.7557 61.327C34.9355 61.471 35.1152 61.5789 35.3309 61.7229C34.9355 61.9749 34.576 62.2269 34.1806 62.5148C34.3243 62.6228 34.4681 62.6948 34.6119 62.7668C35.8701 63.4867 37.0564 64.3146 38.2426 65.1425C39.8603 66.3303 41.442 67.5902 42.8799 69.03C43.6708 69.7859 44.3897 70.6138 45.0727 71.4777C45.576 72.1256 46.1152 72.7735 46.5825 73.4214C46.9061 73.8894 47.2296 74.3933 47.4812 74.9332C47.4812 74.9692 47.4812 74.9692 47.5172 75.0052C47.5531 75.0412 47.5531 75.0772 47.5531 75.1132V75.1492C47.5172 75.1492 47.5172 75.1492 47.5172 75.1132C47.5172 75.0772 47.4453 75.0772 47.4812 75.0052C47.2655 74.6453 47.0498 74.2853 46.8342 73.9614C46.6904 73.7454 46.5466 73.5654 46.4028 73.3854C45.6479 72.4496 44.7851 71.5497 43.9224 70.6858C42.9877 69.7139 41.9453 68.85 40.8668 68.0581C39.5368 67.0503 38.1708 66.1144 36.7688 65.2145C35.6185 64.4946 34.4322 63.8467 33.174 63.3427C32.4191 63.0908 31.7721 62.8748 31.125 62.6588Z" fill="#01A147"/>
<path fill-rule="evenodd" clip-rule="evenodd" d="M47.579 75.0752C47.579 75.1112 47.579 75.1112 47.543 75.1472C47.4712 74.7153 47.3993 74.3193 47.2914 73.8874C47.2195 73.6714 47.1476 73.4555 47.0757 73.2035C47.0398 73.1675 47.0398 73.1315 47.0398 73.0955C47.0038 73.0955 47.0038 73.0595 47.0038 73.0235C46.9679 72.9155 46.9319 72.8435 46.86 72.7355C46.6444 72.2316 46.4287 71.7637 46.1411 71.3317C45.0267 69.5679 43.6607 68.0561 42.1868 66.6163C40.5332 64.9965 38.7359 63.4847 36.9025 62.0449C35.9679 61.325 35.0332 60.6051 34.0627 59.9212C33.8829 59.8132 33.7032 59.6692 33.5234 59.5252C33.5594 59.4532 33.6672 59.4172 33.7391 59.3812C34.2064 59.0933 34.6738 58.7693 35.1411 58.4814C35.4646 58.2654 35.8241 58.0494 36.1476 57.8334C36.5071 57.5815 36.8666 57.3655 37.1901 57.1495C37.6574 56.8616 38.0888 56.5736 38.5561 56.2496C38.5921 56.2136 38.628 56.2136 38.628 56.2136C38.9515 55.9617 39.311 55.7817 39.6705 55.5297C39.7424 55.4937 39.7783 55.4577 39.8502 55.4218C40.1019 55.2418 40.3535 55.0978 40.6051 54.9178C41.1084 54.5939 41.6117 54.2699 42.1149 53.9459C42.1509 53.9099 42.1868 53.9099 42.2587 53.9459C42.8339 54.4499 43.445 54.9538 44.0202 55.4218C44.0202 55.4218 44.0202 55.4218 44.0561 55.4577C43.9483 55.5297 43.8045 55.6377 43.6966 55.7097C43.445 55.8897 43.2293 56.0337 42.9777 56.2136C42.9058 56.2496 42.8698 56.2856 42.798 56.2136C42.6901 56.1057 42.5823 56.0337 42.4744 55.9257C42.4025 55.8897 42.3666 55.8897 42.2947 55.9257C41.7555 56.2856 41.2162 56.6456 40.6411 57.0056C40.3895 57.1855 40.1378 57.3295 39.8862 57.4735C39.5627 57.7255 39.2032 57.9414 38.8437 58.1574C38.628 58.3014 38.4123 58.4454 38.1966 58.5893C37.5855 58.9853 37.0104 59.3453 36.3993 59.7412C36.3633 59.7772 36.3633 59.7772 36.3274 59.8132C36.6868 60.0652 37.0104 60.3171 37.3339 60.5691C39.2751 62.0449 41.1084 63.6647 42.762 65.4645C43.7326 66.5083 44.6313 67.6602 45.3862 68.848C45.7457 69.424 46.0692 69.9999 46.3568 70.6118C46.3568 70.6478 46.3927 70.6838 46.3927 70.7198V70.7558C46.4287 70.7918 46.4646 70.8638 46.5006 70.9358C46.6444 71.3317 46.86 71.6917 46.9679 72.0876C47.1117 72.4476 47.1836 72.8075 47.2914 73.1675C47.4712 73.8514 47.5071 74.4633 47.579 75.0752Z" fill="#0C3270"/>
<path fill-rule="evenodd" clip-rule="evenodd" d="M47.4031 75.4003C42.6939 70.9009 37.158 67.8053 31.0469 65.6815C31.1907 65.5735 31.3345 65.4656 31.4423 65.3576C31.9096 64.9976 32.3769 64.6377 32.8083 64.2777C32.8443 64.2417 32.8802 64.2057 32.9521 64.2417C34.6057 65.1416 36.2233 66.1135 37.805 67.1213C39.4586 68.2012 41.0403 69.3171 42.5501 70.5409C43.8443 71.5488 45.0665 72.6646 46.1809 73.8525C46.5763 74.2844 47.0077 74.7164 47.3312 75.2203C47.4031 75.3283 47.475 75.3643 47.4031 75.4003Z" fill="#0C3270"/>
<path fill-rule="evenodd" clip-rule="evenodd" d="M38.0619 7.40554C64.8789 0.170469 90.7612 16.5844 99.7122 42.933C107.693 66.438 88.1011 90.8069 88.2449 90.9509C101.941 78.1005 108.304 58.303 103.055 38.9015C95.5423 10.8611 66.7841 -5.73278 38.7808 1.82626C10.8135 9.38529 -5.72245 38.2176 1.82657 66.222C1.97036 66.726 2.11415 67.1939 2.25794 67.6978C-4.06886 41.3132 11.7122 14.5326 38.0619 7.40554Z" fill="#0C3270"/>
<path fill-rule="evenodd" clip-rule="evenodd" d="M82.0938 86.811C83.1722 87.4229 84.1787 88.0708 85.1853 88.7547C97.767 76.1204 102.009 57.5107 96.6166 40.8809C100.894 57.3308 95.6101 75.3645 82.0938 86.811Z" fill="#01A147"/>
<path d="M38.4252 34.7272V41.2064C38.9644 41.3143 39.4317 41.3503 39.8631 41.3503C40.9415 41.3503 41.7324 41.0624 42.3076 40.5224C42.8468 39.9465 43.1343 39.0826 43.1343 37.9308C43.1343 36.7429 42.8108 35.915 42.1997 35.4471C41.5886 34.9792 40.5102 34.7632 39.0363 34.7632H38.4252V34.7272ZM38.4252 33.5393H39.0004C40.2945 33.5393 41.2291 33.2874 41.8043 32.7474C42.3795 32.2075 42.667 31.4516 42.667 30.4077C42.667 29.5079 42.4154 28.8599 41.9481 28.392C41.4448 27.9241 40.7618 27.7081 39.8272 27.7081C39.4317 27.7081 38.9644 27.7441 38.3892 27.8161V33.5393H38.4252ZM32.2422 27.2761V26.4482C34.1474 26.5202 35.7651 26.5562 37.0951 26.5562C37.5984 26.5562 38.4252 26.5562 39.6115 26.5202C40.1507 26.5202 40.654 26.5202 41.1213 26.5202C42.7749 26.5202 43.9971 26.7722 44.7161 27.2401C45.6866 27.8521 46.1899 28.7879 46.1899 30.0118C46.1899 31.0557 45.8304 31.9555 45.0755 32.6395C44.5363 33.1794 43.6736 33.6113 42.5592 33.9713C43.5657 34.0433 44.3566 34.2232 45.0036 34.4752C45.6147 34.7632 46.0821 35.1591 46.4415 35.6991C46.801 36.239 46.9448 36.8869 46.9448 37.6428C46.9448 38.5427 46.6932 39.4066 46.154 40.1985C45.6147 40.9904 44.8239 41.6023 43.7814 42.0343C42.703 42.4662 41.337 42.6822 39.6834 42.6822C39.252 42.6822 38.6768 42.6822 37.9938 42.6462C37.0951 42.6102 36.52 42.5742 36.1964 42.5742C35.5853 42.5742 34.2912 42.6102 32.2781 42.7182V41.8543L34.2553 41.4583C34.435 41.3863 34.5428 41.3503 34.6507 41.2423C34.7226 41.1704 34.7945 41.0264 34.8664 40.8824C34.9383 40.6304 34.9742 39.9825 34.9742 38.8667C35.0102 36.9589 35.0102 35.1591 35.0102 33.4673C35.0102 32.5315 34.9742 31.0916 34.9023 29.1119C34.9023 28.536 34.8304 28.14 34.6866 27.9241C34.6147 27.8161 34.5069 27.7441 34.3272 27.6721C34.2193 27.6721 33.5363 27.5281 32.2422 27.2761Z" fill="#0C3270"/>
<path d="M60.2874 31.0923H59.1011C58.8495 29.6165 58.454 28.6446 57.9148 28.1407C57.3756 27.6368 56.6926 27.3848 55.758 27.3848C54.9671 27.3848 54.3201 27.6008 53.8527 27.9967C53.3854 28.3927 53.1697 28.9326 53.1697 29.5445C53.1697 30.1205 53.3854 30.6244 53.7808 31.0923C54.2122 31.5603 55.1828 32.1362 56.7645 32.8201C58.3103 33.504 59.4246 34.2239 60.0357 34.9798C60.6469 35.7717 60.9704 36.7076 60.9704 37.8595C60.9704 39.2273 60.4312 40.4511 59.3887 41.459C58.3103 42.5029 56.6207 43.0068 54.2482 43.0068C53.3854 43.0068 52.5946 42.9348 51.8397 42.8268C51.2645 42.7548 50.5455 42.5749 49.7188 42.2869C49.8625 40.9551 49.9344 39.6232 49.9344 38.3274V37.5715H51.1207C51.4083 39.0833 51.7678 40.0912 52.2351 40.6311C52.8103 41.315 53.6371 41.675 54.6436 41.675C55.4704 41.675 56.1174 41.423 56.6207 40.9551C57.124 40.4871 57.3756 39.8392 57.3756 39.1193C57.3756 38.6514 57.2678 38.2194 57.0521 37.8595C56.8364 37.4995 56.5488 37.1756 56.1174 36.8516C55.722 36.5636 54.9671 36.1677 53.8887 35.6638C52.2351 34.9078 51.1207 34.1519 50.5455 33.432C49.9704 32.7121 49.7188 31.8842 49.7188 30.9484C49.7188 29.5445 50.258 28.3567 51.3364 27.4568C52.4148 26.5209 53.9606 26.053 55.9737 26.053C57.3037 26.053 58.7416 26.3049 60.3233 26.8089C60.2874 27.9967 60.2874 28.8606 60.2874 29.2926C60.2155 29.8685 60.2514 30.4444 60.2874 31.0923Z" fill="#0C3270"/>
<defs>
<linearGradient id="paint0_linear_2806_27879" x1="27.401" y1="26.1283" x2="27.1073" y2="18.4829" gradientUnits="userSpaceOnUse">
<stop stop-color="#EC2426"/>
<stop offset="1" stop-color="#FCED24"/>
</linearGradient>
</defs>
</svg>
