<svg width="107" height="110" viewBox="0 0 107 110" fill="none" xmlns="http://www.w3.org/2000/svg">
<g opacity="0.09">
<g clip-path="url(#clip0_1189_25390)">
<path d="M35.9368 25.1344C38.1891 26.9209 39.82 29.1631 40.2725 32.1084C40.3317 32.7404 40.3757 33.3735 40.4201 34.0066C40.6319 36.961 41.1175 40.2768 43.4229 42.3402C45.4499 43.9234 47.8093 44.162 50.2751 44.1066C52.8992 44.0999 55.3961 45.116 57.2691 47.0178C57.3782 47.1355 57.4874 47.2535 57.6002 47.3749C57.7494 47.5241 57.7494 47.5242 57.9015 47.6762C59.619 49.5055 60.3726 52.0764 60.3468 54.5717C60.3451 54.8159 60.3451 54.8159 60.3432 55.0651C60.2823 57.9167 59.2305 60.1451 57.2851 62.1542C57.1729 62.2717 57.0609 62.3891 56.9453 62.51C55.1484 64.2789 52.7275 65.0789 50.2751 65.1587C47.2836 65.0612 44.6904 63.8301 42.6008 61.6226C40.628 59.2678 40.0624 56.4912 40.1109 53.4673C40.1426 51.1836 39.7035 48.8378 38.2362 47.0495C37.6201 46.4381 36.9277 46.0031 36.1767 45.5883C36.0591 45.5234 35.9416 45.4582 35.8204 45.3911C32.5712 43.8419 27.9868 44.1038 24.683 45.2337C22.9782 45.9194 21.739 47.0167 20.9166 48.7148C20.2357 50.4589 20.2437 52.2329 20.2964 54.0844C20.3198 55.9123 20.232 57.3994 19.4792 59.0685C19.4028 59.2399 19.3265 59.4114 19.2478 59.5881C17.9121 62.2242 15.635 63.877 12.9389 64.7616C10.2833 65.5052 7.52131 65.0817 5.11434 63.7382C2.77362 62.2312 1.05656 60.0355 0.402785 57.2491C-0.236998 54.1606 0.223258 51.3576 1.8365 48.6743C3.32008 46.4063 5.55723 44.8996 8.13747 44.2893C8.9274 44.1431 9.69764 44.1063 10.4974 44.0881C13.1 44.0212 15.7143 43.7199 17.7169 41.8125C19.4487 39.8562 19.9328 37.4171 20.0207 34.849C20.1674 31.3834 20.9616 28.4454 23.4708 25.9832C26.9003 22.9459 32.1723 22.4361 35.9368 25.1344Z" fill="#1B1A17"/>
<path d="M76.0772 25.2394C78.0619 26.6902 79.622 28.8462 80.131 31.3297C80.2968 32.4174 80.3837 33.5156 80.4766 34.6121C80.7184 37.392 81.2846 40.2689 83.3209 42.282C85.3367 43.9851 87.7784 44.2029 90.2913 44.1397C92.9156 44.1332 95.4123 45.149 97.2853 47.0509C97.3944 47.1689 97.5038 47.2866 97.6163 47.408C97.7156 47.5075 97.8152 47.607 97.9179 47.7095C99.6352 49.5389 100.389 52.1095 100.363 54.605C100.361 54.8492 100.361 54.8492 100.36 55.0982C100.301 57.8461 99.2758 60.1767 97.4586 62.1873C95.4964 64.1046 92.9787 65.1044 90.2913 65.192C87.2997 65.0945 84.7065 63.8632 82.617 61.6556C81.1477 59.9019 80.3105 57.7003 80.1902 55.3966C80.1837 55.2831 80.1775 55.1698 80.1711 55.0527C80.1385 54.4241 80.1324 53.8025 80.1509 53.1736C80.1638 50.9464 79.5544 49.046 78.3688 47.195C76.0727 44.933 73.0986 44.5247 70.0593 44.4035C67.1859 44.2785 64.6726 43.1952 62.7003 41.0037C60.7906 38.7116 59.9587 35.9656 60.1683 32.9575C60.45 29.9068 61.8068 27.5576 64.0217 25.587C67.5293 22.8069 72.4353 22.7107 76.0772 25.2394Z" fill="#1B1A17"/>
<path d="M56.7757 5.02342C58.186 6.26131 59.1826 7.76644 59.8278 9.55058C59.878 9.67703 59.928 9.80348 59.9799 9.93375C60.8418 12.5057 60.4173 15.5799 59.3551 17.9959C58.0979 20.4632 55.9564 22.3525 53.3694 23.1929C50.4475 23.9986 47.6265 23.7672 44.962 22.1798C44.2275 21.6723 43.5983 21.0736 42.9726 20.432C42.8741 20.3359 42.7754 20.2398 42.6735 20.1408C40.9333 18.3018 40.1985 15.7154 40.0781 13.2048C40.2125 10.0592 41.3474 7.41867 43.534 5.20613C47.3807 1.81365 52.8327 1.9096 56.7757 5.02342Z" fill="#FF6000"/>
<path d="M76.3067 66.8526C78.4877 68.5417 79.7553 70.8128 80.3105 73.5475C80.3778 74.155 80.3932 74.7533 80.3893 75.3644C80.3885 75.5263 80.3876 75.6882 80.3868 75.8551C80.3209 78.7752 79.1647 81.0862 77.1601 83.1296C75.0689 85.1217 72.5733 85.8877 69.7563 85.8905C66.9471 85.707 64.5317 84.4093 62.6012 82.331C60.8071 80.2067 60.0344 77.4697 60.1475 74.6844C60.3958 71.923 61.4745 69.3726 63.467 67.4646C67.266 64.3185 72.2731 63.9901 76.3067 66.8526Z" fill="#FF6000"/>
<path d="M36.725 67.2167C38.1351 68.4545 39.1319 69.9598 39.7769 71.7439C39.8271 71.8704 39.8774 71.9968 39.929 72.1272C40.7667 74.6267 40.4093 77.7102 39.3437 80.0574C38.8906 80.9408 38.3663 81.7113 37.7291 82.463C37.6489 82.5608 37.5687 82.6589 37.4862 82.7598C35.7243 84.7512 33.1914 85.6917 30.6406 85.8735C27.8064 85.9008 25.3383 85.0176 23.28 82.9927C23.1618 82.8713 23.0436 82.7502 22.9219 82.6254C22.8232 82.5293 22.7245 82.4332 22.6228 82.334C20.8824 80.4952 20.1475 77.9085 20.0273 75.3981C20.1615 72.2525 21.2966 69.612 23.483 67.3994C27.3298 64.0071 32.7818 64.1029 36.725 67.2167Z" fill="#FF6000"/>
<path d="M50.2595 85.6368C50.4178 85.638 50.576 85.6391 50.739 85.6402C51.9737 85.6677 52.9994 85.8406 54.1385 86.3576C54.3478 86.4486 54.3478 86.4486 54.5613 86.5417C56.8444 87.6238 58.7691 89.64 59.6862 92.0616C60.4574 94.3816 60.7736 97.3658 59.8094 99.6751C59.7695 99.7726 59.7297 99.8698 59.6887 99.9704C58.5485 102.699 56.806 104.664 54.1096 105.836C51.3941 106.896 48.5557 106.799 45.896 105.613C43.4555 104.374 41.6832 102.349 40.68 99.7462C39.7724 96.7976 39.9828 93.8747 41.2761 91.0992C42.6612 88.5458 44.849 86.7681 47.544 85.9338C48.457 85.6843 49.318 85.6267 50.2595 85.6368Z" fill="#FF6000"/>
</g>
</g>
<defs>
<clipPath id="clip0_1189_25390">
<rect width="101" height="103.971" fill="white" transform="translate(0.125 2.6748)"/>
</clipPath>
</defs>
</svg>
