<svg width="368" height="109" viewBox="0 0 368 109" fill="none" xmlns="http://www.w3.org/2000/svg">
<path d="M65.041 23.0293L78.0488 16.9971L71.8193 52.2715L88.6748 34.3604L90.5068 42.9512L107.729 39.4785L102.782 59.2168L110.478 61.959L83.6953 84.5381L87.8877 66.4971L88.9795 61.7969L84.252 62.7646L62.8164 67.1514L57.1719 68.3057L61.251 72.375L64.165 75.2812C53.2098 84.3192 44.004 90.2701 36.4785 93.8936C32.5772 95.7719 29.1824 96.9975 26.2695 97.7197L26.5654 96.3193L28.7646 85.9014L0 61.959L8.24414 59.2168L1.46582 39.4785L18.8711 42.9512L20.8867 34.3604L39.0244 52.2715L31.8789 16.9971L44.1543 23.0293L54.9639 0L65.041 23.0293Z" fill="url(#paint0_linear_2806_28020)"/>
<path d="M68.7539 75.4836C19.836 116.972 2.06435 100.889 10.3089 83.3427C-12.4095 121.907 51.5318 112.037 73.7006 86.267L78.4641 93.395L84.8765 65.7969L63.4406 70.1833L68.7539 75.4836Z" fill="#721111"/>
<path d="M133.235 29.6279V55.3987H128.723V29.6279H133.235ZM143.319 55.3987H138.948V29.6279H143.319L151.639 50.1458L159.959 29.6279H164.401V55.3987H160.03V47.4665C160.03 42.2842 160.03 40.7682 160.277 38.935L153.719 55.3987H149.559L143.037 38.9703C143.284 40.5214 143.319 42.954 143.319 46.1621V55.3987ZM174.477 55.3987H170.105V29.6279H174.477L182.797 50.1458L191.116 29.6279H195.558V55.3987H191.187V47.4665C191.187 42.2842 191.187 40.7682 191.434 38.935L184.876 55.3987H180.717L174.195 38.9703C174.441 40.5214 174.477 42.954 174.477 46.1621V55.3987ZM205.775 29.6279V55.3987H201.262V29.6279H205.775ZM222.769 33.4354C217.657 33.4354 214.731 37.1371 214.731 42.7072C214.731 48.4536 218.045 51.5912 222.804 51.5912C227.281 51.5912 229.996 49.1235 229.996 44.9987V44.893H222.205V40.9092H234.191V55.3987H230.383L230.101 52.4373C228.691 54.4116 225.765 55.7865 222.275 55.7865C215.048 55.7865 210.007 50.5336 210.007 42.6014C210.007 34.775 215.118 29.2049 222.874 29.2049C228.762 29.2049 233.31 32.6245 234.05 37.8774H229.291C228.48 34.8455 225.871 33.4354 222.769 33.4354ZM243.577 55.3987H239.064V29.6279H248.9C254.752 29.6279 258.172 32.5893 258.172 37.6659C258.172 41.1208 256.55 43.5886 253.518 44.8224L258.418 55.3987H253.483L249.111 45.7743H243.577V55.3987ZM243.577 33.6469V41.7906H248.9C251.755 41.7906 253.448 40.2747 253.448 37.6659C253.448 35.0923 251.755 33.6469 248.9 33.6469H243.577ZM264.902 55.3987H260.214L269.521 29.6279H274.139L283.446 55.3987H278.687L276.607 49.4407H266.982L264.902 55.3987ZM271.248 37.3133L268.322 45.6333H275.302L272.341 37.3133C272.13 36.6435 271.883 35.8679 271.812 35.3391C271.707 35.8327 271.495 36.6082 271.248 37.3133ZM282.115 33.7879V29.6279H301.716V33.7879H294.172V55.3987H289.659V33.7879H282.115ZM309.678 29.6279V55.3987H305.165V29.6279H309.678ZM338.905 42.4957C338.905 50.3221 333.758 55.8217 326.355 55.8217C318.986 55.8217 313.91 50.3573 313.91 42.4957C313.91 34.6693 319.022 29.1696 326.39 29.1696C333.758 29.1696 338.905 34.634 338.905 42.4957ZM334.146 42.4957C334.146 36.996 331.114 33.5059 326.39 33.5059C321.666 33.5059 318.634 36.996 318.634 42.4957C318.634 47.9953 321.666 51.4855 326.39 51.4855C331.114 51.4855 334.146 47.9248 334.146 42.4957ZM347.547 55.3987H343.105V29.6279H347.582L359.674 47.8896V29.6279H364.116V55.3987H359.674L347.547 37.1371V55.3987Z" fill="#111111"/>
<path d="M150.685 74.676V70.7873H169.008V74.676H161.956V94.8777H157.738V74.676H150.685ZM193.249 82.816C193.249 90.1321 188.437 95.2732 181.517 95.2732C174.629 95.2732 169.883 90.1651 169.883 82.816C169.883 75.4999 174.662 70.3589 181.55 70.3589C188.437 70.3589 193.249 75.467 193.249 82.816ZM188.8 82.816C188.8 77.675 185.966 74.4124 181.55 74.4124C177.133 74.4124 174.299 77.675 174.299 82.816C174.299 87.9571 177.133 91.2196 181.55 91.2196C185.966 91.2196 188.8 87.8911 188.8 82.816ZM216.24 95.2732C209.221 95.2732 204.673 90.3958 204.673 82.849C204.673 75.3681 209.386 70.3918 216.438 70.3918C222.139 70.3918 226.391 73.7203 227.215 78.8943H222.766C221.942 76.0931 219.536 74.4453 216.339 74.4453C211.89 74.4453 209.089 77.675 209.089 82.816C209.089 87.9241 211.923 91.2196 216.339 91.2196C219.602 91.2196 222.107 89.506 222.897 86.8366H227.281C226.358 91.9117 221.942 95.2732 216.24 95.2732ZM232.11 94.8777H227.727L236.427 70.7873H240.744L249.444 94.8777H244.995L243.051 89.3082H234.054L232.11 94.8777ZM238.042 77.9716L235.306 85.749H241.832L239.063 77.9716C238.866 77.3454 238.635 76.6204 238.569 76.1261C238.47 76.5874 238.272 77.3125 238.042 77.9716ZM256.618 94.8777H252.465V70.7873H256.65L267.954 87.8582V70.7873H272.107V94.8777H267.954L256.618 77.8068V94.8777ZM279.515 94.8777H275.132L283.833 70.7873H288.15L296.85 94.8777H292.401L290.457 89.3082H281.46L279.515 94.8777ZM285.447 77.9716L282.712 85.749H289.237L286.469 77.9716C286.271 77.3454 286.041 76.6204 285.975 76.1261C285.876 76.5874 285.678 77.3125 285.447 77.9716ZM308.538 94.8777H299.871V70.7873H308.307C315.426 70.7873 320.336 75.6976 320.336 82.8819C320.336 89.9673 315.525 94.8777 308.538 94.8777ZM307.912 74.676H304.089V90.9889H308.143C312.954 90.9889 315.887 87.8911 315.887 82.8819C315.887 77.7738 312.888 74.676 307.912 74.676ZM325.151 94.8777H320.768L329.468 70.7873H333.785L342.485 94.8777H338.036L336.092 89.3082H327.095L325.151 94.8777ZM331.083 77.9716L328.348 85.749H334.873L332.104 77.9716C331.907 77.3454 331.676 76.6204 331.61 76.1261C331.511 76.5874 331.314 77.3125 331.083 77.9716Z" fill="#111111"/>
<defs>
<linearGradient id="paint0_linear_2806_28020" x1="55.2387" y1="0" x2="55.2387" y2="97.7198" gradientUnits="userSpaceOnUse">
<stop stop-color="#660303"/>
<stop offset="1" stop-color="#DD0606"/>
</linearGradient>
</defs>
</svg>
