<svg width="109" height="109" viewBox="0 0 109 109" fill="none" xmlns="http://www.w3.org/2000/svg">
<path d="M109 54.5C109 84.6001 84.5821 109 54.4884 109C24.3947 109 0 84.6001 0 54.5C0 24.3999 24.3947 0 54.4884 0C84.5821 0 109 24.3999 109 54.5Z" fill="#4D1495"/>
<path d="M73.9967 68.5719L73.0926 31.2261C73.1158 30.1598 73.023 25.7784 70.0094 22.5098C68.6417 21.0262 66.1381 19.2412 62.0117 19.1484C61.9499 19.1484 61.8881 19.1484 61.8262 19.1484C57.2826 19.2643 54.6167 21.1653 53.1794 22.7648C50.0499 26.2189 50.0963 30.7393 50.1427 31.7129L50.7686 69.8005C50.8149 71.9332 52.5767 73.6255 54.7095 73.6023C56.8422 73.556 58.5345 71.8173 58.4881 69.6846L57.8622 31.9679L53.8518 32.0839L61.6176 24.5498L69.7312 31.6898L65.3963 31.7825L66.2771 68.8269C66.2771 68.8964 66.2771 68.9428 66.2771 68.9892C66.2771 69.0587 66.6249 75.2019 63.1708 79.0037C61.3394 81.0205 58.7431 82.0637 55.2195 82.1796C51.2786 82.2955 48.3345 81.3218 46.2018 79.2355C42.4 75.5032 42.4464 69.2442 42.4464 69.1978C42.4927 67.0651 40.8004 65.3033 38.6909 65.2569C36.5581 65.2105 34.7732 66.9028 34.7268 69.0123C34.7268 69.4064 34.5877 78.5632 40.7309 84.66C44.3704 88.2995 49.3313 90.0614 55.4513 89.8991C61.1308 89.7136 65.6744 87.7664 68.943 84.1268C69.3603 83.6632 69.7467 83.1841 70.1021 82.6896C74.2748 76.8941 74.043 69.6382 73.9967 68.5719Z" fill="white"/>
</svg>
