<svg width="83" height="97" viewBox="0 0 83 97" fill="none" xmlns="http://www.w3.org/2000/svg">
<path d="M46.7425 29.6947C51.1154 29.6949 54.6595 33.2392 54.6598 37.612V39.5925C54.6596 43.9654 51.1154 47.5096 46.7425 47.5098H26.9455C22.5726 47.5101 19.0284 51.0557 19.0282 55.4286V89.0827C19.0279 93.4556 15.4824 96.9999 11.1094 97H9.12896C4.75618 96.9997 1.2119 93.4555 1.21164 89.0827V51.4692C1.21193 47.0964 4.7562 43.5522 9.12896 43.5519H10.1199C13.8267 43.5516 16.8534 40.6399 17.039 36.9792L17.0565 36.2659C17.2422 32.6051 20.2701 29.6947 23.9771 29.6947H46.7425Z" fill="#0099FF"/>
<path d="M44.7635 0C65.5359 0.000298537 82.3753 16.8396 82.3755 37.612C82.3755 58.3847 65.536 75.2252 44.7635 75.2255H34.8643C30.4914 75.2252 26.947 71.6797 26.947 67.3067V62.7817C26.947 59.8142 29.3522 57.409 32.3197 57.409H45.753C56.1391 57.4089 64.5586 48.989 64.559 38.603C64.559 28.2167 56.1393 19.7956 45.753 19.7955H32.3197C29.3522 19.7955 26.947 17.3903 26.947 14.4228V7.91879C26.947 3.54577 30.4914 0.00034363 34.8643 0H44.7635Z" fill="#0099FF"/>
<path d="M16.0422 17.8165C16.3518 17.8165 16.6034 18.0682 16.6034 18.3778V26.1183C16.6034 30.703 12.8865 34.4199 8.30172 34.42C3.71689 34.42 0 30.7031 0 26.1183C5.82402e-05 21.5335 3.71692 17.8165 8.30172 17.8165H16.0422Z" fill="#0099FF"/>
</svg>
