<svg width="151" height="37" viewBox="0 0 151 37" fill="none" xmlns="http://www.w3.org/2000/svg">
<path opacity="0.1" d="M25.736 35.6602H0.488V29.9482L17.816 6.23615H0.872V0.572156H25.448V6.04415L7.976 29.9962H25.736V35.6602ZM37.6269 36.2842C32.5869 36.2842 29.5149 33.3562 29.5149 28.8922C29.5149 24.5242 32.6829 21.7882 38.2989 21.3562L45.4029 20.8282V20.3002C45.4029 17.0842 43.4829 15.7882 40.5069 15.7882C37.0509 15.7882 35.1309 17.2282 35.1309 19.7242H30.1389C30.1389 14.5882 34.3629 11.2282 40.7949 11.2282C47.1789 11.2282 51.1149 14.6842 51.1149 21.2602V35.6602H45.9789L45.5469 32.1562C44.5389 34.6042 41.3229 36.2842 37.6269 36.2842ZM39.5469 31.8682C43.1469 31.8682 45.4509 29.7082 45.4509 26.0602V24.8122L40.5069 25.1962C36.8589 25.5322 35.4669 26.7322 35.4669 28.6522C35.4669 30.8122 36.9069 31.8682 39.5469 31.8682ZM72.9478 11.9482H78.8038V35.6602H73.3798L72.9478 32.4922C71.5078 34.7482 68.4358 36.2842 65.2678 36.2842C59.7958 36.2842 56.5798 32.5882 56.5798 26.7802V11.9482H62.4358V24.7162C62.4358 29.2282 64.2118 31.0522 67.4758 31.0522C71.1718 31.0522 72.9478 28.8922 72.9478 24.3802V11.9482ZM82.9914 23.7562C82.9914 16.4122 87.8394 11.2282 94.8474 11.2282C101.327 11.2282 105.743 14.8282 106.367 20.5402H100.511C99.8394 17.8522 97.8714 16.4602 95.0874 16.4602C91.3434 16.4602 88.8474 19.2922 88.8474 23.7562C88.8474 28.2202 91.1514 31.0042 94.8954 31.0042C97.8234 31.0042 99.8874 29.5642 100.511 26.9722H106.415C105.695 32.4922 101.087 36.2842 94.8954 36.2842C87.6954 36.2842 82.9914 31.2922 82.9914 23.7562ZM118.838 35.6602H112.982V16.8442H108.422V11.9482H112.982V4.55616H118.838V11.9482H123.446V16.8442H118.838V35.6602ZM125.46 23.7562C125.46 16.3642 130.788 11.2762 138.132 11.2762C145.476 11.2762 150.804 16.3642 150.804 23.7562C150.804 31.1482 145.476 36.2362 138.132 36.2362C130.788 36.2362 125.46 31.1482 125.46 23.7562ZM131.316 23.7562C131.316 28.0762 134.1 31.0042 138.132 31.0042C142.164 31.0042 144.948 28.0762 144.948 23.7562C144.948 19.4362 142.164 16.5082 138.132 16.5082C134.1 16.5082 131.316 19.4362 131.316 23.7562Z" fill="url(#paint0_linear_1199_25408)"/>
<defs>
<linearGradient id="paint0_linear_1199_25408" x1="-1" y1="17.6602" x2="307.405" y2="17.6602" gradientUnits="userSpaceOnUse">
<stop stop-color="#D3AF37"/>
<stop offset="1" stop-color="#7B6300"/>
</linearGradient>
</defs>
</svg>
