<svg width="1006" height="137" viewBox="0 0 1006 137" fill="none" xmlns="http://www.w3.org/2000/svg">
<path d="M231.017 134.637C231.026 135.953 226.665 136.23 225.265 136.275C218.104 136.501 208.383 136.435 201.195 136.232C196.202 136.092 190.467 135.055 185.316 135.03C185.318 133.496 200.707 135.445 202.463 135.445C204.617 135.445 206.728 134.628 208.814 134.626C216.212 134.618 223.631 134.632 231.017 134.637Z" fill="#F38400"/>
<path d="M960.866 80.1486L964.682 82.549C961.401 82.3263 958.31 82.8374 957.058 84.9494C968.336 84.3621 979.001 85.6216 990.058 86.5638L988.778 88.957L992.591 89.7558L976.099 93.7777C977.874 94.7087 979.267 97.8831 980.219 98.3814C980.969 98.774 985.526 99.4759 987.282 99.9718C989.123 100.492 990.729 99.4959 990.053 101.78L983.72 100.984L986.256 104.179C981.913 103.417 980.339 106.133 978.956 106.546C978.086 106.806 961.821 108.911 960.078 108.985C957.474 109.097 955.666 108.372 953.258 108.194C952.333 112.752 958.966 111.012 963.903 111.483C969.244 111.991 976.206 113.087 981.444 114.037C982.75 114.274 985.274 114.241 984.978 115.395L938.03 120.21C937.458 124.369 949.185 119.447 950.712 122.606C933.597 124.581 916.435 126.725 899.146 128.119C891.817 128.711 884.487 129.214 877.099 129.026L878.996 130.643L926.595 130.631C926.067 132.235 924.002 131.999 922.149 132.224C888.221 136.351 837.429 133.732 801.514 133.793C745.97 133.889 689.896 133.584 634.028 133.833C536.313 134.269 437.493 131.309 339.491 132.191C288.892 132.647 237.64 130.626 187.185 130.824C178.797 130.857 169.084 130.031 160.881 130.822C159.771 130.928 157.06 131.183 157.409 132.219C176.028 132.214 194.644 134.176 213.247 132.23C214.899 133.12 213.45 133.764 211.369 133.829C198.636 134.229 180.682 134.468 168.142 133.86C161.077 133.517 152.675 132.727 145.348 132.224C124.105 130.766 102.697 127.614 81.2514 127.415C80.2131 124.442 86.6674 126.391 89.352 125.725L109.164 123.42L68.2373 124.013L58.4041 121.818L72.8664 121.848L73.6382 119.401L78.7014 119.415C70.5601 118.075 60.9884 118.834 52.922 117.79C52.4206 117.725 51.3316 115.715 46.2087 115.479C38.9483 115.143 38.8481 115.122 31.4785 113.567C28.3954 112.918 23.9224 113.431 22.8613 111.404L34.276 108.183L29.1938 106.989L34.2786 104.582C27.2035 103.184 36.9898 101.375 38.0852 99.7747L34.2887 98.5825C38.2946 99.052 41.266 99.991 43.1649 96.9817C40.7748 96.4546 37.3934 95.9834 35.242 95.3112C33.7379 94.8409 34.912 93.3035 31.099 93.7497L29.2192 95.3665C27.1045 91.4183 15.045 89.8255 8.90157 89.7558L15.8713 88.9658C20.0206 84.5304 6.34774 86.5077 6.37948 84.5552L21.5869 80.1398C20.8786 78.0375 17.0441 79.0606 15.2493 78.1504C17.9631 74.4762 24.6459 73.1398 30.4656 72.1287L26.6628 69.7371L31.7501 69.7307C33.0194 66.5459 25.6321 68.3446 25.4062 68.1347L25.3808 65.7295L17.7828 65.7231C16.8042 63.507 19.7731 64.3162 20.8685 63.346C21.394 62.8805 19.6309 61.8381 22.9412 61.2348L21.5996 56.9132L25.3872 56.5046L20.3278 54.5208L25.1193 54.2708L29.1989 51.3144C24.3629 51.6189 20.4331 54.2388 15.2303 52.509C18.5533 51.5636 22.8295 47.6946 25.4278 46.9206C27.9448 46.1707 32.0357 47.0128 33.0118 44.9048C28.106 46.2092 26.4775 43.4491 25.707 43.3201C21.8484 42.6759 21.4308 44.1758 20.1628 40.185L15.2315 39.6907L29.2078 36.8801C30.3844 33.6425 24.9543 36.6397 24.1357 36.0837L24.0557 33.3396C24.1966 32.7972 34.1593 31.553 33.0029 28.8754L21.5996 29.6757L29.2001 26.4782L16.5021 27.2665L17.7904 25.6754L0 25.2692L13.9673 21.26L5.08734 20.853C5.79814 18.8797 9.61872 19.1312 11.7207 18.3925C13.8366 17.6482 15.5971 15.4634 20.3214 16.0458C20.4318 14.6141 20.9205 14.3433 18.3883 14.4202C15.0348 14.5227 12.5711 15.8848 8.3215 16.0923C5.80829 16.2149 1.48127 16.7701 2.54494 14.4563C10.5643 13.4644 18.4327 11.8355 26.3899 10.6706C52.8915 6.78879 74.6218 6.5028 100.919 4.83551C140.011 2.35661 179.147 0.404069 218.962 0.0275074C244.983 -0.219261 271.394 1.28779 297.659 0.828703C378.438 -0.582202 459.297 0.823107 540.095 0.170934C592.003 -0.24729 645.359 1.82299 697.486 0.828703C776.539 -0.679147 855.016 0.738999 934.845 4.03431C953.48 4.8972 971.63 7.69818 990.059 8.84789C988.649 11.2659 984.022 10.121 980.868 10.6506C979.595 10.8645 978.397 11.7041 976.616 11.9725C972.263 12.6295 965.3 12.0519 964.121 14.385L959.601 13.6511L960.864 16.8462L943.1 17.661C942.774 18.7915 945.234 18.7987 946.489 18.9341C953.502 19.6889 963.149 18.6177 970.324 19.2947C976.076 19.8371 983.631 22.6509 990.059 22.4682C989.368 25.1194 983.206 23.0234 982.449 24.8574L993.862 27.6727C991.587 28.6855 987.232 27.9516 987.459 30.4345L982.456 28.8721L982.439 32.0809L981.174 29.6797L976.107 31.2693C975.426 33.8099 977.309 32.4871 979.27 32.8445C985.351 33.9517 992.389 35.1632 997.67 37.2879L987.527 36.8873C986.367 39.4167 990.721 38.0362 992.073 39.2492L991.555 41.5222L993.888 42.0919L993.863 43.2832L988.795 44.4922C990.013 45.8847 997.054 46.5369 996.399 48.491C995.573 50.9619 982.306 48.374 982.424 51.7014C987.157 52.6532 984.708 55.6737 989.781 55.483C989.654 59.0035 996.249 58.7583 1000.21 59.7149C997.644 61.4431 993.603 60.847 990.198 61.4359C986.905 62.0056 987.661 63.0303 987.325 63.1705C986.458 63.5319 983.422 61.488 983.719 63.3155C990.205 63.8331 996.808 63.1192 1003.41 63.3228C1005.49 63.3868 1006.93 64.0374 1005.28 64.9235L979.882 67.7181L978.636 68.9255L986.248 69.7443L985.635 71.3251L982.441 72.1303L991.703 72.9307L993.788 74.9537C993.766 75.2677 988.196 77.6561 987.089 77.951C985.215 78.4501 983.45 77.9261 982.413 78.2169C981.202 78.5566 979.658 80.1486 979.271 80.1486H960.866ZM347.792 3.24109H345.265V4.02869H347.792V3.24109ZM879.626 4.04228L869.483 4.43247C871.476 6.28483 878.217 6.07251 879.626 4.04228ZM956.424 9.64346V10.4447C957.248 10.1779 957.248 9.91026 956.424 9.64346ZM977.356 9.64425L971.028 10.4535L971.026 11.2394L977.361 11.2426L977.356 9.64425ZM24.1217 14.4578H21.5945V15.2454H24.1217V14.4578ZM926.602 18.4534V19.2594L938.014 19.2618V18.4558L926.602 18.4534ZM941.822 18.4638H939.295V19.2514H941.822V18.4638ZM974.823 22.4698H972.296V23.2574H974.823V22.4698ZM23.4921 62.5223V63.3235C24.3159 63.0567 24.3159 62.7891 23.4921 62.5223ZM24.7614 76.9438V77.745C25.5852 77.4782 25.5852 77.2106 24.7614 76.9438ZM945.635 80.9426L943.786 79.6046L938.024 80.155V80.9426H945.635ZM984.972 89.7597V88.1646H983.724V89.7597H984.972ZM291.943 128.228H286.877V129.015H291.943V128.228ZM662.588 128.217V129.023L675.27 129.026V128.22L662.588 128.217ZM154.859 130.631H149.793V131.419H154.859V130.631ZM797.127 131.425H767.934L779.933 133.063C783.713 132.977 787.505 133.169 791.275 132.94C792.526 132.864 797.262 132.586 797.127 131.425Z" fill="#F38400"/>
<path d="M991.325 52.915H987.527V53.7026H991.325V52.915Z" fill="#F38400"/>
<path d="M966.578 14.4512C967.402 14.718 967.402 14.9856 966.578 15.2524V14.4512Z" fill="#F38400"/>
<path d="M23.4922 44.0947C24.316 44.3615 24.316 44.6291 23.4922 44.8959V44.0947Z" fill="#F38400"/>
<path d="M97.36 45.4C84.496 45.4 77.872 54.424 77.872 68.152C77.872 82.456 85.936 89.56 97.264 89.56C108.976 89.56 114.16 83.224 114.832 75.832H96.016V62.2H129.424V103H116.08L115.216 96.568C111.376 101.08 103.696 104.056 95.248 104.056C75.376 104.056 61.456 89.464 61.456 67.672C61.456 46.264 75.76 30.808 97.744 30.808C114.736 30.808 127.792 40.792 129.424 56.152H113.104C111.28 48.664 104.752 45.4 97.36 45.4ZM157.819 103H142.267V31.96H169.723C187.003 31.96 196.795 40.312 196.795 55C196.795 64.216 192.859 70.744 184.987 74.776L197.467 103H180.475L169.819 78.136H157.819V103ZM157.819 45.784V64.504H169.627C176.443 64.504 180.379 61.048 180.379 55C180.379 49.048 176.635 45.784 169.723 45.784H157.819ZM274.025 67.384C274.025 89.08 259.721 104.152 239.081 104.152C218.537 104.152 204.425 89.176 204.425 67.48C204.425 45.784 218.633 30.712 239.177 30.712C259.817 30.712 274.025 45.688 274.025 67.384ZM257.609 67.384C257.609 53.848 250.697 45.688 239.273 45.688C227.753 45.688 220.841 53.848 220.841 67.384C220.841 81.016 227.753 89.176 239.273 89.176C250.697 89.176 257.609 80.824 257.609 67.384ZM297.315 103L276.003 31.96H292.227L301.539 62.776C302.786 67 303.939 71.224 305.091 78.232C306.243 71.224 307.395 67.192 308.643 62.776L317.379 31.96H334.755L343.107 62.776C344.259 67.096 345.411 71.416 346.659 78.232C348.099 71.032 349.155 67.096 350.403 62.968L359.907 31.96H375.747L354.051 103H338.883L325.923 56.344L312.579 103H297.315ZM380.076 46.36V31.96H435.948V46.36H415.788V103H400.236V46.36H380.076ZM460.819 103H445.267V31.96H460.819V59.992H488.275V31.96H503.827V103H488.275V74.392H460.819V103ZM540.05 52.6C540.05 39.736 550.898 30.616 566.162 30.616C581.426 30.616 591.026 39.064 591.026 52.504H575.57C575.57 47.512 571.826 44.44 565.97 44.44C559.634 44.44 555.602 47.32 555.602 52.024C555.602 56.344 557.81 58.456 562.802 59.512L573.458 61.72C586.13 64.312 592.178 70.36 592.178 81.592C592.178 95.32 581.426 104.248 565.106 104.248C549.266 104.248 538.994 95.704 538.994 82.36H554.45C554.45 87.544 558.29 90.424 565.202 90.424C572.21 90.424 576.626 87.64 576.626 83.128C576.626 79.192 574.802 77.176 570.098 76.216L559.25 74.008C546.578 71.416 540.05 64.216 540.05 52.6ZM596.076 46.36V31.96H651.948V46.36H631.788V103H616.236V46.36H596.076ZM724.025 67.384C724.025 89.08 709.721 104.152 689.081 104.152C668.537 104.152 654.425 89.176 654.425 67.48C654.425 45.784 668.633 30.712 689.177 30.712C709.817 30.712 724.025 45.688 724.025 67.384ZM707.609 67.384C707.609 53.848 700.697 45.688 689.273 45.688C677.753 45.688 670.841 53.848 670.841 67.384C670.841 81.016 677.753 89.176 689.273 89.176C700.697 89.176 707.609 80.824 707.609 67.384ZM750.413 103H734.861V31.96H762.317C779.597 31.96 789.389 40.312 789.389 55C789.389 64.216 785.453 70.744 777.581 74.776L790.061 103H773.069L762.413 78.136H750.413V103ZM750.413 45.784V64.504H762.221C769.037 64.504 772.973 61.048 772.973 55C772.973 49.048 769.229 45.784 762.317 45.784H750.413ZM816.507 31.96V103H800.955V31.96H816.507ZM876.45 103H831.33V31.96H876.45V46.36H846.882V60.28H873.09V73.912H846.882V88.6H876.45V103ZM885.237 52.6C885.237 39.736 896.085 30.616 911.349 30.616C926.613 30.616 936.213 39.064 936.213 52.504H920.757C920.757 47.512 917.013 44.44 911.157 44.44C904.821 44.44 900.789 47.32 900.789 52.024C900.789 56.344 902.997 58.456 907.989 59.512L918.645 61.72C931.317 64.312 937.365 70.36 937.365 81.592C937.365 95.32 926.613 104.248 910.293 104.248C894.453 104.248 884.181 95.704 884.181 82.36H899.637C899.637 87.544 903.477 90.424 910.389 90.424C917.397 90.424 921.813 87.64 921.813 83.128C921.813 79.192 919.989 77.176 915.285 76.216L904.437 74.008C891.765 71.416 885.237 64.216 885.237 52.6Z" fill="white"/>
</svg>
