<svg width="408" height="55" viewBox="0 0 408 55" fill="none" xmlns="http://www.w3.org/2000/svg">
<path d="M70.6528 53.4553C70.6555 53.9779 69.3216 54.0877 68.8935 54.1055C66.7033 54.1955 63.7305 54.1691 61.5321 54.0887C60.0049 54.033 58.2511 53.6214 56.6758 53.6115C56.6762 53.0023 61.3827 53.776 61.9199 53.776C62.5787 53.776 63.2242 53.4518 63.8621 53.4509C66.1248 53.448 68.3939 53.4534 70.6528 53.4553Z" fill="#F38400"/>
<path d="M293.867 31.8217L295.034 32.7747C294.03 32.6863 293.085 32.8892 292.702 33.7278C296.152 33.4946 299.413 33.9946 302.795 34.3687L302.403 35.3189L303.57 35.6361L298.526 37.2329C299.068 37.6025 299.495 38.8629 299.786 39.0607C300.015 39.2166 301.409 39.4953 301.946 39.6922C302.509 39.8986 303 39.5032 302.793 40.4101L300.856 40.0942L301.632 41.3625C300.304 41.06 299.822 42.1384 299.4 42.3022C299.133 42.4056 294.159 43.2412 293.626 43.2708C292.829 43.315 292.277 43.0271 291.54 42.9565C291.257 44.7665 293.286 44.0756 294.796 44.2623C296.429 44.4643 298.558 44.8992 300.16 45.2764C300.56 45.3706 301.332 45.3575 301.241 45.8156L286.883 47.7274C286.708 49.3787 290.294 47.4246 290.761 48.6785C285.527 49.4626 280.278 50.3139 274.991 50.8677C272.749 51.1025 270.507 51.3022 268.248 51.2275L268.828 51.8697L283.386 51.8649C283.224 52.5018 282.593 52.4079 282.026 52.4973C271.649 54.1359 256.115 53.096 245.131 53.1205C228.144 53.1583 210.995 53.0374 193.908 53.1364C164.023 53.3091 133.801 52.134 103.828 52.4843C88.3533 52.6653 72.6787 51.8627 57.2479 51.9416C54.6824 51.9546 51.7119 51.6267 49.203 51.9406C48.8637 51.983 48.0345 52.0841 48.1413 52.4954C53.8357 52.4932 59.529 53.2722 65.2184 52.4996C65.7238 52.853 65.2805 53.1087 64.6442 53.1348C60.7499 53.2935 55.2588 53.3883 51.4239 53.1469C49.2632 53.0107 46.6933 52.6971 44.4526 52.4973C37.9558 51.9184 31.4085 50.667 24.8496 50.5881C24.532 49.4076 26.506 50.1815 27.327 49.9169L33.3864 49.002L20.8694 49.2374L17.862 48.3658L22.2851 48.3779L22.5212 47.4061L24.0697 47.4118C21.5798 46.8797 18.6524 47.1812 16.1854 46.7664C16.0321 46.7406 15.699 45.9428 14.1323 45.849C11.9118 45.7157 11.8811 45.7071 9.62725 45.09C8.68432 44.832 7.31632 45.0359 6.99179 44.2311L10.4828 42.9524L8.9285 42.4781L10.4836 41.5225C8.31981 40.9674 11.3128 40.2491 11.6478 39.6139L10.4867 39.1406C11.7119 39.327 12.6206 39.6998 13.2014 38.505C12.4704 38.2957 11.4362 38.1086 10.7782 37.8418C10.3182 37.655 10.6773 37.0446 9.51117 37.2218L8.93626 37.8637C8.28952 36.2961 4.60128 35.6637 2.72241 35.6361L4.854 35.3224C6.12301 33.5614 1.94137 34.3465 1.95107 33.5712L6.60204 31.8182C6.38543 30.9835 5.21269 31.3897 4.66378 31.0283C5.49374 29.5695 7.53759 29.0389 9.31747 28.6375L8.15443 27.688L9.71032 27.6854C10.0985 26.421 7.83922 27.1351 7.77012 27.0518L7.76236 26.0968L5.43862 26.0943C5.13932 25.2144 6.04731 25.5357 6.38232 25.1505C6.54303 24.9657 6.00383 24.5518 7.01624 24.3123L6.60592 22.5964L7.7643 22.4342L6.21695 21.6466L7.68239 21.5473L8.93005 20.3735C7.45102 20.4944 6.24917 21.5346 4.65796 20.8478C5.67425 20.4725 6.98208 18.9364 7.77672 18.6291C8.54651 18.3313 9.79766 18.6657 10.0962 17.8287C8.59581 18.3466 8.09775 17.2507 7.86212 17.1995C6.68201 16.9438 6.55429 17.5393 6.16648 15.9548L4.65834 15.7585L8.93277 14.6426C9.29262 13.3572 7.63192 14.5472 7.38154 14.3264L7.35708 13.2369C7.40017 13.0216 10.4471 12.5276 10.0935 11.4645L6.60592 11.7823L8.93043 10.5127L5.04693 10.8257L5.44095 10.194L0 10.0327L4.2717 8.44094L1.55589 8.27934C1.77328 7.49586 2.94175 7.59573 3.5846 7.30244C4.23172 7.00692 4.77015 6.13947 6.21501 6.37073C6.24878 5.80229 6.39824 5.69475 5.62379 5.72529C4.59817 5.76601 3.84469 6.30679 2.54501 6.38918C1.77638 6.43785 0.453026 6.65829 0.778334 5.73962C3.23095 5.34581 5.63738 4.6991 8.07097 4.23658C16.1761 2.69538 22.822 2.58183 30.8646 1.91986C42.8203 0.935654 54.7895 0.160429 66.9664 0.0109214C74.9244 -0.0870538 83.002 0.511295 91.0345 0.329023C115.74 -0.231154 140.469 0.326801 165.18 0.0678666C181.055 -0.0981823 197.374 0.723786 213.316 0.329023C237.493 -0.269644 261.494 0.293407 285.909 1.60176C291.608 1.94435 297.159 3.05643 302.795 3.51291C302.364 4.47294 300.949 4.01837 299.984 4.22864C299.595 4.31357 299.228 4.64693 298.684 4.75349C297.353 5.01434 295.223 4.785 294.862 5.71131L293.48 5.41992L293.866 6.6885L288.433 7.01202C288.334 7.46086 289.086 7.46372 289.47 7.51748C291.615 7.81713 294.565 7.39184 296.759 7.66063C298.519 7.87599 300.829 8.99316 302.795 8.92063C302.584 9.97323 300.699 9.14107 300.468 9.86921L303.958 10.987C303.262 11.3891 301.931 11.0977 302 12.0835L300.47 11.4632L300.465 12.7372L300.078 11.7839L298.528 12.415C298.32 13.4237 298.896 12.8985 299.495 13.0404C301.355 13.48 303.508 13.9609 305.123 14.8046L302.021 14.6455C301.666 15.6497 302.998 15.1017 303.411 15.5833L303.253 16.4857L303.966 16.7119L303.959 17.1849L302.408 17.6649C302.781 18.2178 304.934 18.4767 304.734 19.2526C304.481 20.2336 300.424 19.2061 300.46 20.5272C301.908 20.9051 301.158 22.1043 302.71 22.0286C302.671 23.4264 304.688 23.329 305.899 23.7088C305.115 24.395 303.879 24.1583 302.838 24.3921C301.83 24.6183 302.062 25.0251 301.959 25.0808C301.694 25.2243 300.765 24.4128 300.856 25.1384C302.84 25.3439 304.859 25.0605 306.877 25.1413C307.514 25.1667 307.956 25.425 307.452 25.7768L299.683 26.8863L299.302 27.3657L301.63 27.6908L301.442 28.3184L300.465 28.6381L303.298 28.9559L303.936 29.7591C303.929 29.8838 302.225 30.8321 301.887 30.9491C301.314 31.1473 300.774 30.9393 300.457 31.0547C300.086 31.1896 299.614 31.8217 299.496 31.8217H293.867ZM106.367 1.28682H105.594V1.59952H106.367V1.28682ZM269.021 1.60492L265.919 1.75984C266.528 2.49529 268.59 2.41099 269.021 1.60492ZM292.508 3.82878V4.14688C292.76 4.04095 292.76 3.93471 292.508 3.82878ZM298.91 3.82909L296.975 4.15037L296.974 4.46244L298.912 4.4637L298.91 3.82909ZM7.37727 5.74024H6.60437V6.05294H7.37727V5.74024ZM283.388 7.32661V7.64663L286.878 7.64758V7.32758L283.388 7.32661ZM288.043 7.33075H287.27V7.64345H288.043V7.33075ZM298.136 8.92125H297.363V9.23396H298.136V8.92125ZM7.18472 24.8235V25.1416C7.43666 25.0356 7.43666 24.9294 7.18472 24.8235ZM7.57292 30.5493V30.8674C7.82486 30.7615 7.82486 30.6552 7.57292 30.5493ZM289.209 32.1369L288.643 31.6057L286.881 31.8242V32.1369H289.209ZM301.239 35.6376V35.0043H300.858V35.6376H301.239ZM89.2865 50.9106H87.7372V51.2233H89.2865V50.9106ZM202.643 50.9065V51.2265L206.521 51.2275V50.9075L202.643 50.9065ZM47.3614 51.8649H45.8121V52.1776H47.3614V51.8649ZM243.79 52.1802H234.861L238.531 52.8304C239.687 52.7963 240.847 52.8727 242 52.7817C242.383 52.7515 243.831 52.6411 243.79 52.1802Z" fill="#F38400"/>
<path d="M303.185 21.009H302.023V21.3217H303.185V21.009Z" fill="#F38400"/>
<path d="M295.613 5.7373C295.865 5.84323 295.865 5.94948 295.613 6.05541V5.7373Z" fill="#F38400"/>
<path d="M7.18359 17.5071C7.43553 17.613 7.43553 17.7193 7.18359 17.8252V17.5071Z" fill="#F38400"/>
<path d="M34.4636 20.1234C30.717 20.1234 28.7877 22.7517 28.7877 26.7499C28.7877 30.916 31.1364 32.985 34.4356 32.985C37.8468 32.985 39.3566 31.1397 39.5523 28.9867H34.0722V25.0164H43.8022V36.8994H39.9158L39.6642 35.0261C38.5458 36.3402 36.309 37.207 33.8485 37.207C28.0608 37.207 24.0066 32.9571 24.0066 26.6101C24.0066 20.3751 28.1726 15.8735 34.5754 15.8735C39.5244 15.8735 43.3269 18.7813 43.8022 23.2549H39.049C38.5178 21.0741 36.6165 20.1234 34.4636 20.1234ZM52.0723 36.8994H47.5428V16.209H55.5393C60.5721 16.209 63.424 18.6415 63.424 22.9194C63.424 25.6036 62.2777 27.5049 59.985 28.6792L63.6198 36.8994H58.6708L55.5673 29.6578H52.0723V36.8994ZM52.0723 20.2353V25.6875H55.5114C57.4965 25.6875 58.6429 24.6809 58.6429 22.9194C58.6429 21.1859 57.5524 20.2353 55.5393 20.2353H52.0723ZM85.9172 26.5263C85.9172 32.8452 81.7512 37.2349 75.7398 37.2349C69.7563 37.2349 65.6462 32.8732 65.6462 26.5542C65.6462 20.2353 69.7843 15.8455 75.7677 15.8455C81.7791 15.8455 85.9172 20.2073 85.9172 26.5263ZM81.136 26.5263C81.136 22.5839 79.1229 20.2073 75.7957 20.2073C72.4405 20.2073 70.4274 22.5839 70.4274 26.5263C70.4274 30.4966 72.4405 32.8732 75.7957 32.8732C79.1229 32.8732 81.136 30.4407 81.136 26.5263ZM92.7003 36.8994L86.4932 16.209H91.2185L93.9306 25.1842C94.2941 26.4144 94.6296 27.6447 94.9651 29.6857C95.3006 27.6447 95.6361 26.4703 95.9996 25.1842L98.544 16.209H103.605L106.037 25.1842C106.373 26.4424 106.708 27.7006 107.072 29.6857C107.491 27.5887 107.799 26.4424 108.162 25.2401L110.93 16.209H115.544L109.225 36.8994H104.807L101.032 23.3109L97.146 36.8994H92.7003ZM116.805 20.403V16.209H133.077V20.403H127.206V36.8994H122.676V20.403H116.805ZM140.321 36.8994H135.792V16.209H140.321V24.3733H148.318V16.209H152.847V36.8994H148.318V28.5673H140.321V36.8994ZM163.397 22.2204C163.397 18.4738 166.556 15.8176 171.002 15.8176C175.448 15.8176 178.244 18.2781 178.244 22.1925H173.742C173.742 20.7385 172.652 19.8438 170.946 19.8438C169.101 19.8438 167.927 20.6826 167.927 22.0527C167.927 23.3109 168.57 23.926 170.024 24.2335L173.127 24.8766C176.818 25.6315 178.579 27.393 178.579 30.6643C178.579 34.6626 175.448 37.2629 170.695 37.2629C166.081 37.2629 163.089 34.7745 163.089 30.888H167.591C167.591 32.3979 168.709 33.2367 170.723 33.2367C172.764 33.2367 174.05 32.4258 174.05 31.1117C174.05 29.9653 173.519 29.3782 172.148 29.0986L168.989 28.4555C165.298 27.7006 163.397 25.6036 163.397 22.2204ZM179.715 20.403V16.209H195.987V20.403H190.116V36.8994H185.586V20.403H179.715ZM216.98 26.5263C216.98 32.8452 212.814 37.2349 206.802 37.2349C200.819 37.2349 196.709 32.8732 196.709 26.5542C196.709 20.2353 200.847 15.8455 206.83 15.8455C212.842 15.8455 216.98 20.2073 216.98 26.5263ZM212.199 26.5263C212.199 22.5839 210.185 20.2073 206.858 20.2073C203.503 20.2073 201.49 22.5839 201.49 26.5263C201.49 30.4966 203.503 32.8732 206.858 32.8732C210.185 32.8732 212.199 30.4407 212.199 26.5263ZM224.665 36.8994H220.136V16.209H228.132C233.165 16.209 236.017 18.6415 236.017 22.9194C236.017 25.6036 234.871 27.5049 232.578 28.6792L236.213 36.8994H231.264L228.16 29.6578H224.665V36.8994ZM224.665 20.2353V25.6875H228.104C230.089 25.6875 231.236 24.6809 231.236 22.9194C231.236 21.1859 230.145 20.2353 228.132 20.2353H224.665ZM243.915 16.209V36.8994H239.385V16.209H243.915ZM261.373 36.8994H248.232V16.209H261.373V20.403H252.762V24.4572H260.395V28.4275H252.762V32.7054H261.373V36.8994ZM263.933 22.2204C263.933 18.4738 267.092 15.8176 271.538 15.8176C275.984 15.8176 278.78 18.2781 278.78 22.1925H274.278C274.278 20.7385 273.188 19.8438 271.482 19.8438C269.637 19.8438 268.462 20.6826 268.462 22.0527C268.462 23.3109 269.105 23.926 270.559 24.2335L273.663 24.8766C277.354 25.6315 279.115 27.393 279.115 30.6643C279.115 34.6626 275.984 37.2629 271.23 37.2629C266.617 37.2629 263.625 34.7745 263.625 30.888H268.127C268.127 32.3979 269.245 33.2367 271.258 33.2367C273.299 33.2367 274.586 32.4258 274.586 31.1117C274.586 29.9653 274.054 29.3782 272.684 29.0986L269.525 28.4555C265.834 27.7006 263.933 25.6036 263.933 22.2204Z" fill="white"/>
</svg>
