<svg width="933" height="137" viewBox="0 0 933 137" fill="none" xmlns="http://www.w3.org/2000/svg">
<path d="M178.659 134.637C178.666 135.954 175.293 136.23 174.21 136.275C168.672 136.502 161.154 136.435 155.596 136.232C151.734 136.092 147.299 135.055 143.315 135.031C143.316 133.496 155.218 135.445 156.576 135.445C158.242 135.445 159.874 134.628 161.487 134.626C167.209 134.619 172.947 134.632 178.659 134.637Z" fill="#F38400"/>
<path d="M743.095 80.1486L746.046 82.549C743.509 82.3263 741.118 82.8374 740.151 84.9494C748.872 84.3621 757.12 85.6216 765.671 86.5638L764.681 88.957L767.63 89.7558L754.876 93.7777C756.248 94.7087 757.326 97.8831 758.062 98.3814C758.642 98.774 762.166 99.4759 763.524 99.9718C764.948 100.492 766.19 99.4959 765.667 101.78L760.77 100.984L762.731 104.179C759.372 103.417 758.155 106.133 757.086 106.546C756.412 106.806 743.834 108.911 742.486 108.985C740.472 109.097 739.074 108.372 737.212 108.194C736.496 112.752 741.626 111.012 745.444 111.483C749.574 111.991 754.958 113.087 759.009 114.037C760.02 114.274 761.971 114.241 761.742 115.395L725.435 120.21C724.992 124.369 734.062 119.447 735.242 122.606C722.006 124.581 708.734 126.725 695.363 128.119C689.695 128.711 684.026 129.214 678.313 129.026L679.78 130.643L716.592 130.631C716.183 132.235 714.586 131.999 713.153 132.224C686.914 136.351 647.634 133.732 619.859 133.793C576.903 133.889 533.538 133.584 490.332 133.833C414.763 134.269 338.339 131.309 262.548 132.191C223.417 132.647 183.781 130.626 144.762 130.824C138.274 130.857 130.763 130.031 124.419 130.822C123.561 130.928 121.464 131.183 121.734 132.219C136.133 132.214 150.53 134.176 164.916 132.23C166.194 133.12 165.073 133.764 163.465 133.829C153.617 134.229 139.732 134.468 130.034 133.86C124.571 133.517 118.072 132.727 112.406 132.224C95.9781 130.766 79.422 127.614 62.8366 127.415C62.0336 124.442 67.0251 126.391 69.1013 125.725L84.4234 123.42L52.772 124.013L45.1674 121.818L56.352 121.848L56.9488 119.401L60.8645 119.415C54.5684 118.075 47.1659 118.834 40.9277 117.79C40.54 117.725 39.6978 115.715 35.7359 115.479C30.1211 115.143 30.0435 115.122 24.3442 113.567C21.9599 112.918 18.5006 113.431 17.68 111.404L26.5077 108.183L22.5773 106.989L26.5097 104.582C21.0381 103.184 28.6064 101.375 29.4536 99.7747L26.5175 98.5825C29.6155 99.052 31.9135 99.991 33.382 96.9817C31.5336 96.4546 28.9186 95.9834 27.2547 95.3112C26.0915 94.8409 26.9995 93.3035 24.0507 93.7497L22.5969 95.3665C20.9615 91.4183 11.6352 89.8255 6.88411 89.7558L12.2742 88.9658C15.4831 84.5304 4.90909 86.5077 4.93363 84.5552L16.6944 80.1398C16.1467 78.0375 13.1812 79.0606 11.7932 78.1504C13.8919 74.4762 19.0602 73.1398 23.5609 72.1287L20.6199 69.7371L24.5543 69.7307C25.5359 66.5459 19.8229 68.3446 19.6481 68.1347L19.6285 65.7295L13.7525 65.7231C12.9957 63.507 15.2917 64.3162 16.1388 63.346C16.5452 62.8805 15.1818 61.8381 17.7418 61.2348L16.7043 56.9132L19.6334 56.5046L15.7207 54.5208L19.4263 54.2708L22.5812 51.3144C18.8413 51.6189 15.8021 54.2388 11.7785 52.509C14.3484 51.5636 17.6554 47.6946 19.6648 46.9206C21.6114 46.1707 24.7752 47.0128 25.53 44.9048C21.7361 46.2092 20.4766 43.4491 19.8808 43.3201C16.8967 42.6759 16.5737 44.1758 15.5931 40.185L11.7795 39.6907L22.5881 36.8801C23.4981 33.6425 19.2987 36.6397 18.6655 36.0837L18.6037 33.3396C18.7127 32.7972 26.4174 31.553 25.5231 28.8754L16.7043 29.6757L22.5822 26.4782L12.7621 27.2665L13.7584 25.6754L0 25.2692L10.8018 21.26L3.93434 20.853C4.48405 18.8797 7.43873 19.1312 9.0643 18.3925C10.7007 17.6482 12.0622 15.4634 15.7158 16.0458C15.8012 14.6141 16.1791 14.3433 14.2208 14.4202C11.6273 14.5227 9.72198 15.8848 6.43551 16.0923C4.4919 16.2149 1.14556 16.7701 1.96816 14.4563C8.17004 13.4644 14.2551 11.8355 20.4089 10.6706C40.9042 6.78879 57.7095 6.5028 78.0468 4.83551C108.279 2.35661 138.545 0.404069 169.337 0.0275074C189.46 -0.219261 209.885 1.28779 230.197 0.828703C292.669 -0.582202 355.202 0.823107 417.688 0.170934C457.831 -0.24729 499.095 1.82299 539.408 0.828703C600.544 -0.679147 661.235 0.738999 722.971 4.03431C737.383 4.8972 751.42 7.69818 765.672 8.84789C764.581 11.2659 761.003 10.121 758.564 10.6506C757.579 10.8645 756.653 11.7041 755.275 11.9725C751.909 12.6295 746.524 12.0519 745.612 14.385L742.117 13.6511L743.094 16.8462L729.356 17.661C729.103 18.7915 731.006 18.7987 731.977 18.9341C737.4 19.6889 744.86 18.6177 750.409 19.2947C754.858 19.8371 760.701 22.6509 765.672 22.4682C765.138 25.1194 760.372 23.0234 759.787 24.8574L768.613 27.6727C766.854 28.6855 763.486 27.9516 763.661 30.4345L759.792 28.8721L759.779 32.0809L758.8 29.6797L754.882 31.2693C754.356 33.8099 755.811 32.4871 757.328 32.8445C762.031 33.9517 767.474 35.1632 771.558 37.2879L763.714 36.8873C762.816 39.4167 766.184 38.0362 767.23 39.2492L766.829 41.5222L768.633 42.0919L768.614 43.2832L764.694 44.4922C765.636 45.8847 771.082 46.5369 770.575 48.491C769.936 50.9619 759.676 48.374 759.767 51.7014C763.428 52.6532 761.533 55.6737 765.457 55.483C765.359 59.0035 770.459 58.7583 773.52 59.7149C771.538 61.4431 768.412 60.847 765.78 61.4359C763.232 62.0056 763.817 63.0303 763.557 63.1705C762.887 63.5319 760.539 61.488 760.769 63.3155C765.785 63.8331 770.891 63.1192 775.994 63.3228C777.605 63.3868 778.722 64.0374 777.446 64.9235L757.801 67.7181L756.838 68.9255L762.725 69.7443L762.251 71.3251L759.78 72.1303L766.943 72.9307L768.556 74.9537C768.539 75.2677 764.231 77.6561 763.375 77.951C761.926 78.4501 760.56 77.9261 759.758 78.2169C758.822 78.5566 757.628 80.1486 757.329 80.1486H743.095ZM268.968 3.24109H267.014V4.02869H268.968V3.24109ZM680.268 4.04228L672.424 4.43247C673.965 6.28483 679.178 6.07251 680.268 4.04228ZM739.66 9.64346V10.4447C740.297 10.1779 740.297 9.91026 739.66 9.64346ZM755.848 9.64425L750.954 10.4535L750.952 11.2394L755.852 11.2426L755.848 9.64425ZM18.6547 14.4578H16.7003V15.2454H18.6547V14.4578ZM716.597 18.4534V19.2594L725.422 19.2618V18.4558L716.597 18.4534ZM728.367 18.4638H726.413V19.2514H728.367V18.4638ZM753.889 22.4698H751.935V23.2574H753.889V22.4698ZM18.1679 62.5223V63.3235C18.8049 63.0567 18.8049 62.7891 18.1679 62.5223ZM19.1495 76.9438V77.745C19.7866 77.4782 19.7866 77.2106 19.1495 76.9438ZM731.316 80.9426L729.886 79.6046L725.43 80.155V80.9426H731.316ZM761.737 89.7597V88.1646H760.773V89.7597H761.737ZM225.777 128.228H221.859V129.015H225.777V128.228ZM512.419 128.217V129.023L522.227 129.026V128.22L512.419 128.217ZM119.762 130.631H115.844V131.419H119.762V130.631ZM616.466 131.425H593.889L603.169 133.063C606.092 132.977 609.025 133.169 611.94 132.94C612.908 132.864 616.57 132.586 616.466 131.425Z" fill="#F38400"/>
<path d="M766.651 52.9153H763.714V53.7029H766.651V52.9153Z" fill="#F38400"/>
<path d="M747.513 14.4507C748.15 14.7175 748.15 14.9851 747.513 15.2519V14.4507Z" fill="#F38400"/>
<path d="M18.168 44.095C18.805 44.3618 18.805 44.6294 18.168 44.8962V44.095Z" fill="#F38400"/>
<path d="M131.056 67.384C131.056 89.08 116.752 104.152 96.112 104.152C75.568 104.152 61.456 89.176 61.456 67.48C61.456 45.784 75.664 30.712 96.208 30.712C116.848 30.712 131.056 45.688 131.056 67.384ZM114.64 67.384C114.64 53.848 107.728 45.688 96.304 45.688C84.784 45.688 77.872 53.848 77.872 67.384C77.872 81.016 84.784 89.176 96.304 89.176C107.728 89.176 114.64 80.824 114.64 67.384ZM182.404 75.256H157.444V103H141.892V31.96H187.108V46.36H157.444V61.24H182.404V75.256ZM223.173 103V31.96H252.741C267.045 31.96 275.685 39.448 275.685 51.64C275.685 59.224 272.229 64.792 265.797 67.576C272.805 69.88 276.549 75.352 276.549 83.416C276.549 95.992 268.101 103 252.741 103H223.173ZM251.109 45.592H238.725V61.048H251.109C256.677 61.048 259.749 58.264 259.749 53.176C259.749 48.184 256.773 45.592 251.109 45.592ZM251.877 74.104H238.725V89.368H251.877C257.637 89.368 260.613 86.776 260.613 81.496C260.613 76.696 257.541 74.104 251.877 74.104ZM286.537 76.312V31.96H302.089V75.256C302.089 84.184 306.985 89.08 315.721 89.08C324.553 89.08 329.545 83.992 329.545 75.256V31.96H345.097V76.312C345.097 93.208 333.577 104.152 315.721 104.152C297.961 104.152 286.537 93.304 286.537 76.312ZM355.456 52.6C355.456 39.736 366.304 30.616 381.568 30.616C396.832 30.616 406.432 39.064 406.432 52.504H390.976C390.976 47.512 387.232 44.44 381.376 44.44C375.04 44.44 371.008 47.32 371.008 52.024C371.008 56.344 373.216 58.456 378.208 59.512L388.864 61.72C401.536 64.312 407.584 70.36 407.584 81.592C407.584 95.32 396.832 104.248 380.512 104.248C364.672 104.248 354.4 95.704 354.4 82.36H369.856C369.856 87.544 373.696 90.424 380.608 90.424C387.616 90.424 392.032 87.64 392.032 83.128C392.032 79.192 390.208 77.176 385.504 76.216L374.656 74.008C361.984 71.416 355.456 64.216 355.456 52.6ZM433.444 31.96V103H417.892V31.96H433.444ZM463.627 103H448.267V31.96H463.627L493.579 77.176V31.96H508.939V103H493.579L463.627 57.88V103ZM568.856 103H523.736V31.96H568.856V46.36H539.288V60.28H565.496V73.912H539.288V88.6H568.856V103ZM577.644 52.6C577.644 39.736 588.492 30.616 603.756 30.616C619.02 30.616 628.62 39.064 628.62 52.504H613.164C613.164 47.512 609.42 44.44 603.564 44.44C597.228 44.44 593.196 47.32 593.196 52.024C593.196 56.344 595.404 58.456 600.396 59.512L611.052 61.72C623.724 64.312 629.772 70.36 629.772 81.592C629.772 95.32 619.02 104.248 602.7 104.248C586.859 104.248 576.588 95.704 576.588 82.36H592.044C592.044 87.544 595.884 90.424 602.796 90.424C609.804 90.424 614.22 87.64 614.22 83.128C614.22 79.192 612.396 77.176 607.692 76.216L596.844 74.008C584.172 71.416 577.644 64.216 577.644 52.6ZM637.081 52.6C637.081 39.736 647.929 30.616 663.193 30.616C678.457 30.616 688.057 39.064 688.057 52.504H672.601C672.601 47.512 668.857 44.44 663.001 44.44C656.665 44.44 652.633 47.32 652.633 52.024C652.633 56.344 654.841 58.456 659.833 59.512L670.489 61.72C683.161 64.312 689.209 70.36 689.209 81.592C689.209 95.32 678.457 104.248 662.137 104.248C646.297 104.248 636.025 95.704 636.025 82.36H651.481C651.481 87.544 655.321 90.424 662.233 90.424C669.241 90.424 673.657 87.64 673.657 83.128C673.657 79.192 671.833 77.176 667.129 76.216L656.281 74.008C643.609 71.416 637.081 64.216 637.081 52.6Z" fill="white"/>
</svg>
